<ttFont>
<head>
    <!-- Most of this table will be recalculated by the compiler -->
    <tableVersion value="1.0"/>
    <fontRevision value="1.0"/>
    <checkSumAdjustment value="0xcbb47bc9"/>
    <magicNumber value="0x5f0f3cf5"/>
    <flags value="00000000 00011011"/>
    <unitsPerEm value="1000"/>
    <created value="Sat Dec  6 13:43:37 2025"/>
    <modified value="Sat Dec  6 13:49:01 2025"/>
    <xMin value="-61"/>
    <yMin value="-250"/>
    <xMax value="1150"/>
    <yMax value="750"/>
    <macStyle value="00000000 00000010"/>
    <lowestRecPPEM value="6"/>
    <fontDirectionHint value="2"/>
    <indexToLocFormat value="0"/>
    <glyphDataFormat value="0"/>
  </head>
    <TTGlyph name="A" xMin="34" yMin="0" xMax="741" yMax="716">
      <contour>
        <pt x="645" y="74" on="1"/>
        <pt x="648" y="58" on="0"/>
        <pt x="659" y="40" on="0"/>
        <pt x="681" y="32" on="0"/>
        <pt x="715" y="31" on="0"/>
        <pt x="741" y="31" on="1"/>
        <pt x="736" y="0" on="1"/>
        <pt x="708" y="1" on="0"/>
        <pt x="671" y="2" on="0"/>
        <pt x="643" y="3" on="0"/>
        <pt x="620" y="3" on="0"/>
        <pt x="605" y="3" on="1"/>
        <pt x="570" y="3" on="0"/>
        <pt x="496" y="2" on="0"/>
        <pt x="462" y="0" on="1"/>
        <pt x="467" y="31" on="1"/>
        <pt x="477" y="31" on="0"/>
        <pt x="507" y="32" on="0"/>
        <pt x="535" y="38" on="0"/>
        <pt x="555" y="52" on="0"/>
        <pt x="555" y="65" on="1"/>
        <pt x="555" y="68" on="0"/>
        <pt x="550" y="96" on="0"/>
        <pt x="543" y="130" on="0"/>
        <pt x="536" y="160" on="0"/>
        <pt x="535" y="165" on="1"/>
        <pt x="533" y="176" on="0"/>
        <pt x="530" y="191" on="0"/>
        <pt x="527" y="205" on="0"/>
        <pt x="525" y="219" on="0"/>
        <pt x="523" y="230" on="1"/>
        <pt x="264" y="230" on="1"/>
        <pt x="259" y="220" on="0"/>
        <pt x="242" y="188" on="0"/>
        <pt x="224" y="154" on="0"/>
        <pt x="207" y="122" on="0"/>
        <pt x="202" y="112" on="1"/>
        <pt x="194" y="97" on="0"/>
        <pt x="188" y="84" on="0"/>
        <pt x="188" y="76" on="1"/>
        <pt x="188" y="58" on="0"/>
        <pt x="221" y="31" on="0"/>
        <pt x="254" y="31" on="1"/>
        <pt x="249" y="0" on="1"/>
        <pt x="230" y="1" on="0"/>
        <pt x="203" y="2" on="0"/>
        <pt x="178" y="3" on="0"/>
        <pt x="153" y="3" on="0"/>
        <pt x="136" y="3" on="1"/>
        <pt x="133" y="3" on="0"/>
        <pt x="113" y="3" on="0"/>
        <pt x="84" y="2" on="0"/>
        <pt x="50" y="1" on="0"/>
        <pt x="34" y="0" on="1"/>
        <pt x="39" y="31" on="1"/>
        <pt x="71" y="31" on="0"/>
        <pt x="113" y="46" on="0"/>
        <pt x="142" y="67" on="0"/>
        <pt x="158" y="90" on="0"/>
        <pt x="162" y="99" on="1"/>
        <pt x="477" y="695" on="1"/>
        <pt x="482" y="705" on="0"/>
        <pt x="492" y="716" on="0"/>
        <pt x="504" y="716" on="1"/>
        <pt x="515" y="716" on="0"/>
        <pt x="523" y="706" on="0"/>
        <pt x="526" y="691" on="1"/>
      </contour>
      <contour>
        <pt x="281" y="261" on="1"/>
        <pt x="517" y="261" on="1"/>
        <pt x="453" y="588" on="1"/>
      </contour>
    </TTGlyph>
    <TTGlyph name="AE" xMin="34" yMin="0" xMax="956" yMax="683">
      <contour>
        <pt x="198" y="101" on="1"/>
        <pt x="193" y="92" on="0"/>
        <pt x="190" y="82" on="0"/>
        <pt x="190" y="75" on="1"/>
        <pt x="190" y="60" on="0"/>
        <pt x="207" y="42" on="0"/>
        <pt x="228" y="33" on="0"/>
        <pt x="250" y="30" on="0"/>
        <pt x="254" y="30" on="1"/>
        <pt x="248" y="0" on="1"/>
        <pt x="232" y="1" on="0"/>
        <pt x="205" y="2" on="0"/>
        <pt x="180" y="3" on="0"/>
        <pt x="153" y="3" on="0"/>
        <pt x="136" y="3" on="1"/>
        <pt x="133" y="3" on="0"/>
        <pt x="113" y="3" on="0"/>
        <pt x="84" y="2" on="0"/>
        <pt x="50" y="1" on="0"/>
        <pt x="34" y="0" on="1"/>
        <pt x="36" y="8" on="0"/>
        <pt x="37" y="23" on="0"/>
        <pt x="39" y="31" on="1"/>
        <pt x="72" y="31" on="0"/>
        <pt x="115" y="46" on="0"/>
        <pt x="144" y="68" on="0"/>
        <pt x="159" y="91" on="0"/>
        <pt x="163" y="99" on="1"/>
        <pt x="463" y="651" on="1"/>
        <pt x="453" y="651" on="0"/>
        <pt x="433" y="652" on="0"/>
        <pt x="423" y="652" on="1"/>
        <pt x="378" y="652" on="1"/>
        <pt x="380" y="660" on="0"/>
        <pt x="381" y="675" on="0"/>
        <pt x="383" y="683" on="1"/>
        <pt x="956" y="683" on="1"/>
        <pt x="946" y="458" on="1"/>
        <pt x="918" y="458" on="1"/>
        <pt x="919" y="462" on="1"/>
        <pt x="920" y="507" on="1"/>
        <pt x="920" y="545" on="0"/>
        <pt x="909" y="599" on="0"/>
        <pt x="876" y="635" on="0"/>
        <pt x="818" y="652" on="0"/>
        <pt x="771" y="652" on="1"/>
        <pt x="669" y="652" on="1"/>
        <pt x="653" y="652" on="0"/>
        <pt x="634" y="649" on="0"/>
        <pt x="622" y="641" on="0"/>
        <pt x="616" y="626" on="0"/>
        <pt x="614" y="613" on="1"/>
        <pt x="570" y="344" on="1"/>
        <pt x="657" y="344" on="1"/>
        <pt x="691" y="344" on="0"/>
        <pt x="734" y="355" on="0"/>
        <pt x="762" y="382" on="0"/>
        <pt x="777" y="427" on="0"/>
        <pt x="782" y="461" on="1"/>
        <pt x="810" y="461" on="1"/>
        <pt x="766" y="196" on="1"/>
        <pt x="738" y="196" on="1"/>
        <pt x="740" y="210" on="0"/>
        <pt x="744" y="235" on="0"/>
        <pt x="744" y="249" on="1"/>
        <pt x="744" y="287" on="0"/>
        <pt x="701" y="313" on="0"/>
        <pt x="652" y="313" on="1"/>
        <pt x="564" y="313" on="1"/>
        <pt x="523" y="68" on="1"/>
        <pt x="522" y="66" on="0"/>
        <pt x="522" y="54" on="0"/>
        <pt x="522" y="52" on="1"/>
        <pt x="522" y="38" on="0"/>
        <pt x="541" y="31" on="0"/>
        <pt x="566" y="31" on="1"/>
        <pt x="666" y="31" on="1"/>
        <pt x="728" y="31" on="0"/>
        <pt x="805" y="57" on="0"/>
        <pt x="856" y="113" on="0"/>
        <pt x="892" y="198" on="0"/>
        <pt x="913" y="258" on="1"/>
        <pt x="941" y="258" on="1"/>
        <pt x="855" y="0" on="1"/>
        <pt x="352" y="0" on="1"/>
        <pt x="354" y="8" on="0"/>
        <pt x="355" y="23" on="0"/>
        <pt x="357" y="31" on="1"/>
        <pt x="380" y="31" on="0"/>
        <pt x="410" y="32" on="0"/>
        <pt x="428" y="40" on="0"/>
        <pt x="437" y="57" on="0"/>
        <pt x="440" y="72" on="1"/>
        <pt x="480" y="313" on="1"/>
        <pt x="313" y="313" on="1"/>
      </contour>
      <contour>
        <pt x="330" y="344" on="1"/>
        <pt x="485" y="344" on="1"/>
        <pt x="529" y="608" on="1"/>
        <pt x="529" y="610" on="0"/>
        <pt x="531" y="618" on="0"/>
        <pt x="531" y="620" on="1"/>
        <pt x="531" y="630" on="0"/>
        <pt x="521" y="641" on="0"/>
        <pt x="508" y="647" on="0"/>
        <pt x="497" y="648" on="0"/>
        <pt x="495" y="648" on="1"/>
      </contour>
    </TTGlyph>
    <TTGlyph name="B" xMin="41" yMin="0" xMax="728" yMax="683">
      <contour>
        <pt x="527" y="683" on="1"/>
        <pt x="571" y="683" on="0"/>
        <pt x="645" y="660" on="0"/>
        <pt x="698" y="620" on="0"/>
        <pt x="728" y="566" on="0"/>
        <pt x="728" y="534" on="1"/>
        <pt x="728" y="500" on="0"/>
        <pt x="694" y="441" on="0"/>
        <pt x="639" y="396" on="0"/>
        <pt x="569" y="364" on="0"/>
        <pt x="532" y="357" on="1"/>
        <pt x="567" y="353" on="0"/>
        <pt x="629" y="328" on="0"/>
        <pt x="675" y="289" on="0"/>
        <pt x="702" y="237" on="0"/>
        <pt x="702" y="205" on="1"/>
        <pt x="702" y="166" on="0"/>
        <pt x="661" y="93" on="0"/>
        <pt x="590" y="35" on="0"/>
        <pt x="495" y="0" on="0"/>
        <pt x="441" y="0" on="1"/>
        <pt x="41" y="0" on="1"/>
        <pt x="43" y="8" on="0"/>
        <pt x="44" y="23" on="0"/>
        <pt x="46" y="31" on="1"/>
        <pt x="69" y="31" on="1"/>
        <pt x="96" y="31" on="0"/>
        <pt x="128" y="35" on="0"/>
        <pt x="146" y="45" on="0"/>
        <pt x="153" y="61" on="0"/>
        <pt x="155" y="73" on="1"/>
        <pt x="243" y="601" on="1"/>
        <pt x="245" y="613" on="0"/>
        <pt x="246" y="620" on="0"/>
        <pt x="246" y="623" on="1"/>
        <pt x="246" y="631" on="0"/>
        <pt x="241" y="642" on="0"/>
        <pt x="226" y="649" on="0"/>
        <pt x="196" y="652" on="0"/>
        <pt x="172" y="652" on="1"/>
        <pt x="150" y="652" on="1"/>
        <pt x="151" y="659" on="0"/>
        <pt x="154" y="677" on="0"/>
        <pt x="155" y="683" on="1"/>
      </contour>
      <contour>
        <pt x="445" y="368" on="1"/>
        <pt x="485" y="368" on="0"/>
        <pt x="553" y="397" on="0"/>
        <pt x="604" y="445" on="0"/>
        <pt x="633" y="506" on="0"/>
        <pt x="633" y="537" on="1"/>
        <pt x="633" y="552" on="0"/>
        <pt x="623" y="592" on="0"/>
        <pt x="597" y="627" on="0"/>
        <pt x="551" y="652" on="0"/>
        <pt x="515" y="652" on="1"/>
        <pt x="384" y="652" on="1"/>
        <pt x="368" y="652" on="0"/>
        <pt x="349" y="649" on="0"/>
        <pt x="337" y="641" on="0"/>
        <pt x="331" y="626" on="0"/>
        <pt x="329" y="613" on="1"/>
        <pt x="289" y="368" on="1"/>
      </contour>
      <contour>
        <pt x="413" y="31" on="1"/>
        <pt x="454" y="31" on="0"/>
        <pt x="524" y="61" on="0"/>
        <pt x="575" y="111" on="0"/>
        <pt x="604" y="176" on="0"/>
        <pt x="604" y="212" on="1"/>
        <pt x="604" y="225" on="0"/>
        <pt x="596" y="269" on="0"/>
        <pt x="569" y="312" on="0"/>
        <pt x="517" y="343" on="0"/>
        <pt x="473" y="343" on="1"/>
        <pt x="284" y="343" on="1"/>
        <pt x="238" y="68" on="1"/>
        <pt x="237" y="66" on="0"/>
        <pt x="237" y="54" on="0"/>
        <pt x="237" y="52" on="1"/>
        <pt x="237" y="38" on="0"/>
        <pt x="256" y="31" on="0"/>
        <pt x="281" y="31" on="1"/>
      </contour>
    </TTGlyph>
    <TTGlyph name="C" xMin="109" yMin="-22" xMax="799" yMax="705">
      <contour>
        <pt x="758" y="440" on="1"/>
        <pt x="756" y="426" on="0"/>
        <pt x="749" y="419" on="0"/>
        <pt x="740" y="419" on="1"/>
        <pt x="729" y="419" on="0"/>
        <pt x="725" y="430" on="0"/>
        <pt x="725" y="444" on="1"/>
        <pt x="725" y="458" on="1"/>
        <pt x="725" y="497" on="0"/>
        <pt x="702" y="574" on="0"/>
        <pt x="656" y="635" on="0"/>
        <pt x="586" y="674" on="0"/>
        <pt x="538" y="674" on="1"/>
        <pt x="505" y="674" on="0"/>
        <pt x="441" y="657" on="0"/>
        <pt x="383" y="628" on="0"/>
        <pt x="334" y="589" on="0"/>
        <pt x="315" y="567" on="1"/>
        <pt x="275" y="521" on="0"/>
        <pt x="231" y="417" on="0"/>
        <pt x="211" y="325" on="0"/>
        <pt x="208" y="259" on="0"/>
        <pt x="208" y="251" on="1"/>
        <pt x="208" y="178" on="0"/>
        <pt x="252" y="84" on="0"/>
        <pt x="318" y="30" on="0"/>
        <pt x="394" y="9" on="0"/>
        <pt x="425" y="9" on="1"/>
        <pt x="463" y="9" on="0"/>
        <pt x="547" y="36" on="0"/>
        <pt x="622" y="92" on="0"/>
        <pt x="681" y="175" on="0"/>
        <pt x="694" y="231" on="1"/>
        <pt x="697" y="242" on="0"/>
        <pt x="702" y="251" on="0"/>
        <pt x="710" y="251" on="1"/>
        <pt x="713" y="251" on="0"/>
        <pt x="724" y="248" on="0"/>
        <pt x="724" y="238" on="1"/>
        <pt x="724" y="237" on="0"/>
        <pt x="718" y="204" on="0"/>
        <pt x="696" y="152" on="0"/>
        <pt x="656" y="89" on="0"/>
        <pt x="621" y="59" on="1"/>
        <pt x="580" y="23" on="0"/>
        <pt x="474" y="-22" on="0"/>
        <pt x="413" y="-22" on="1"/>
        <pt x="350" y="-22" on="0"/>
        <pt x="239" y="23" on="0"/>
        <pt x="156" y="103" on="0"/>
        <pt x="109" y="216" on="0"/>
        <pt x="109" y="283" on="1"/>
        <pt x="109" y="367" on="0"/>
        <pt x="180" y="520" on="0"/>
        <pt x="298" y="636" on="0"/>
        <pt x="449" y="705" on="0"/>
        <pt x="530" y="705" on="1"/>
        <pt x="566" y="705" on="0"/>
        <pt x="624" y="687" on="0"/>
        <pt x="667" y="661" on="0"/>
        <pt x="698" y="630" on="0"/>
        <pt x="707" y="617" on="1"/>
        <pt x="782" y="705" on="1"/>
        <pt x="787" y="705" on="0"/>
        <pt x="799" y="702" on="0"/>
        <pt x="799" y="693" on="1"/>
        <pt x="798" y="679" on="1"/>
      </contour>
    </TTGlyph>
    <TTGlyph name="D" xMin="40" yMin="0" xMax="788" yMax="683">
      <contour>
        <pt x="524" y="683" on="1"/>
        <pt x="584" y="683" on="0"/>
        <pt x="681" y="640" on="0"/>
        <pt x="750" y="563" on="0"/>
        <pt x="788" y="459" on="0"/>
        <pt x="788" y="399" on="1"/>
        <pt x="788" y="318" on="0"/>
        <pt x="726" y="174" on="0"/>
        <pt x="621" y="64" on="0"/>
        <pt x="484" y="0" on="0"/>
        <pt x="410" y="0" on="1"/>
        <pt x="40" y="0" on="1"/>
        <pt x="45" y="31" on="1"/>
        <pt x="77" y="31" on="0"/>
        <pt x="117" y="32" on="0"/>
        <pt x="141" y="41" on="0"/>
        <pt x="151" y="59" on="0"/>
        <pt x="154" y="75" on="1"/>
        <pt x="242" y="599" on="1"/>
        <pt x="243" y="605" on="0"/>
        <pt x="245" y="618" on="0"/>
        <pt x="245" y="623" on="1"/>
        <pt x="245" y="641" on="0"/>
        <pt x="224" y="648" on="0"/>
        <pt x="207" y="650" on="1"/>
        <pt x="196" y="652" on="0"/>
        <pt x="163" y="652" on="0"/>
        <pt x="149" y="652" on="1"/>
        <pt x="154" y="683" on="1"/>
      </contour>
      <contour>
        <pt x="241" y="73" on="1"/>
        <pt x="239" y="63" on="0"/>
        <pt x="239" y="57" on="0"/>
        <pt x="239" y="52" on="1"/>
        <pt x="239" y="38" on="0"/>
        <pt x="260" y="31" on="0"/>
        <pt x="285" y="31" on="1"/>
        <pt x="389" y="31" on="1"/>
        <pt x="465" y="31" on="0"/>
        <pt x="581" y="99" on="0"/>
        <pt x="618" y="150" on="1"/>
        <pt x="644" y="188" on="0"/>
        <pt x="675" y="282" on="0"/>
        <pt x="690" y="367" on="0"/>
        <pt x="694" y="430" on="0"/>
        <pt x="694" y="437" on="1"/>
        <pt x="694" y="496" on="0"/>
        <pt x="660" y="578" on="0"/>
        <pt x="603" y="629" on="0"/>
        <pt x="530" y="652" on="0"/>
        <pt x="492" y="652" on="1"/>
        <pt x="388" y="652" on="1"/>
        <pt x="370" y="652" on="0"/>
        <pt x="349" y="649" on="0"/>
        <pt x="338" y="640" on="0"/>
        <pt x="333" y="624" on="0"/>
        <pt x="331" y="611" on="1"/>
      </contour>
    </TTGlyph>
    <TTGlyph name="E" xMin="38" yMin="0" xMax="726" yMax="680">
      <contour>
        <pt x="626" y="0" on="1"/>
        <pt x="38" y="0" on="1"/>
        <pt x="40" y="8" on="0"/>
        <pt x="41" y="23" on="0"/>
        <pt x="43" y="31" on="1"/>
        <pt x="66" y="31" on="1"/>
        <pt x="93" y="31" on="0"/>
        <pt x="125" y="35" on="0"/>
        <pt x="143" y="45" on="0"/>
        <pt x="150" y="61" on="0"/>
        <pt x="152" y="73" on="1"/>
        <pt x="240" y="601" on="1"/>
        <pt x="242" y="611" on="0"/>
        <pt x="243" y="618" on="0"/>
        <pt x="243" y="620" on="1"/>
        <pt x="243" y="637" on="0"/>
        <pt x="214" y="649" on="0"/>
        <pt x="169" y="649" on="1"/>
        <pt x="146" y="649" on="1"/>
        <pt x="151" y="680" on="1"/>
        <pt x="726" y="680" on="1"/>
        <pt x="717" y="455" on="1"/>
        <pt x="689" y="455" on="1"/>
        <pt x="690" y="464" on="0"/>
        <pt x="690" y="488" on="0"/>
        <pt x="690" y="497" on="1"/>
        <pt x="690" y="538" on="0"/>
        <pt x="677" y="595" on="0"/>
        <pt x="639" y="632" on="0"/>
        <pt x="574" y="649" on="0"/>
        <pt x="521" y="649" on="1"/>
        <pt x="387" y="649" on="1"/>
        <pt x="356" y="649" on="0"/>
        <pt x="336" y="636" on="0"/>
        <pt x="332" y="613" on="1"/>
        <pt x="292" y="369" on="1"/>
        <pt x="385" y="369" on="1"/>
        <pt x="418" y="369" on="0"/>
        <pt x="463" y="379" on="0"/>
        <pt x="492" y="405" on="0"/>
        <pt x="509" y="451" on="0"/>
        <pt x="514" y="486" on="1"/>
        <pt x="542" y="486" on="1"/>
        <pt x="498" y="221" on="1"/>
        <pt x="470" y="221" on="1"/>
        <pt x="472" y="231" on="0"/>
        <pt x="476" y="263" on="0"/>
        <pt x="476" y="272" on="1"/>
        <pt x="476" y="312" on="0"/>
        <pt x="430" y="338" on="0"/>
        <pt x="379" y="338" on="1"/>
        <pt x="287" y="338" on="1"/>
        <pt x="241" y="68" on="1"/>
        <pt x="240" y="66" on="0"/>
        <pt x="240" y="54" on="0"/>
        <pt x="240" y="52" on="1"/>
        <pt x="240" y="38" on="0"/>
        <pt x="259" y="31" on="0"/>
        <pt x="284" y="31" on="1"/>
        <pt x="424" y="31" on="1"/>
        <pt x="491" y="31" on="0"/>
        <pt x="574" y="59" on="0"/>
        <pt x="628" y="116" on="0"/>
        <pt x="664" y="201" on="0"/>
        <pt x="684" y="258" on="1"/>
        <pt x="712" y="258" on="1"/>
      </contour>
    </TTGlyph>
    <TTGlyph name="F" xMin="38" yMin="0" xMax="712" yMax="680">
      <contour>
        <pt x="244" y="83" on="1"/>
        <pt x="242" y="71" on="0"/>
        <pt x="241" y="64" on="0"/>
        <pt x="241" y="62" on="1"/>
        <pt x="241" y="54" on="0"/>
        <pt x="247" y="42" on="0"/>
        <pt x="266" y="35" on="0"/>
        <pt x="301" y="31" on="0"/>
        <pt x="330" y="31" on="1"/>
        <pt x="362" y="31" on="1"/>
        <pt x="357" y="0" on="1"/>
        <pt x="344" y="1" on="0"/>
        <pt x="300" y="2" on="0"/>
        <pt x="252" y="3" on="0"/>
        <pt x="206" y="3" on="0"/>
        <pt x="191" y="3" on="1"/>
        <pt x="156" y="3" on="0"/>
        <pt x="72" y="2" on="0"/>
        <pt x="38" y="0" on="1"/>
        <pt x="43" y="31" on="1"/>
        <pt x="66" y="31" on="1"/>
        <pt x="93" y="31" on="0"/>
        <pt x="125" y="35" on="0"/>
        <pt x="143" y="45" on="0"/>
        <pt x="150" y="61" on="0"/>
        <pt x="152" y="73" on="1"/>
        <pt x="240" y="601" on="1"/>
        <pt x="242" y="611" on="0"/>
        <pt x="243" y="618" on="0"/>
        <pt x="243" y="620" on="1"/>
        <pt x="243" y="637" on="0"/>
        <pt x="214" y="649" on="0"/>
        <pt x="169" y="649" on="1"/>
        <pt x="146" y="649" on="1"/>
        <pt x="151" y="680" on="1"/>
        <pt x="712" y="680" on="1"/>
        <pt x="703" y="455" on="1"/>
        <pt x="675" y="455" on="1"/>
        <pt x="676" y="464" on="0"/>
        <pt x="676" y="488" on="0"/>
        <pt x="676" y="498" on="1"/>
        <pt x="676" y="537" on="0"/>
        <pt x="664" y="593" on="0"/>
        <pt x="629" y="631" on="0"/>
        <pt x="565" y="649" on="0"/>
        <pt x="513" y="649" on="1"/>
        <pt x="387" y="649" on="1"/>
        <pt x="356" y="649" on="0"/>
        <pt x="336" y="636" on="0"/>
        <pt x="332" y="613" on="1"/>
        <pt x="290" y="356" on="1"/>
        <pt x="379" y="356" on="1"/>
        <pt x="414" y="356" on="0"/>
        <pt x="459" y="368" on="0"/>
        <pt x="487" y="395" on="0"/>
        <pt x="502" y="440" on="0"/>
        <pt x="507" y="473" on="1"/>
        <pt x="535" y="473" on="1"/>
        <pt x="491" y="208" on="1"/>
        <pt x="463" y="208" on="1"/>
        <pt x="465" y="218" on="0"/>
        <pt x="469" y="251" on="0"/>
        <pt x="469" y="260" on="1"/>
        <pt x="469" y="298" on="0"/>
        <pt x="425" y="325" on="0"/>
        <pt x="374" y="325" on="1"/>
        <pt x="284" y="325" on="1"/>
      </contour>
    </TTGlyph>
    <TTGlyph name="G" xMin="109" yMin="-22" xMax="801" yMax="705">
      <contour>
        <pt x="688" y="21" on="1"/>
        <pt x="686" y="13" on="0"/>
        <pt x="683" y="1" on="0"/>
        <pt x="675" y="1" on="1"/>
        <pt x="671" y="1" on="0"/>
        <pt x="656" y="13" on="0"/>
        <pt x="640" y="32" on="0"/>
        <pt x="626" y="54" on="0"/>
        <pt x="621" y="63" on="1"/>
        <pt x="600" y="35" on="0"/>
        <pt x="544" y="2" on="0"/>
        <pt x="486" y="-16" on="0"/>
        <pt x="432" y="-22" on="0"/>
        <pt x="414" y="-22" on="1"/>
        <pt x="349" y="-22" on="0"/>
        <pt x="238" y="23" on="0"/>
        <pt x="156" y="104" on="0"/>
        <pt x="109" y="216" on="0"/>
        <pt x="109" y="283" on="1"/>
        <pt x="109" y="367" on="0"/>
        <pt x="180" y="520" on="0"/>
        <pt x="298" y="636" on="0"/>
        <pt x="449" y="705" on="0"/>
        <pt x="530" y="705" on="1"/>
        <pt x="566" y="705" on="0"/>
        <pt x="624" y="687" on="0"/>
        <pt x="667" y="661" on="0"/>
        <pt x="698" y="630" on="0"/>
        <pt x="707" y="617" on="1"/>
        <pt x="782" y="705" on="1"/>
        <pt x="787" y="705" on="0"/>
        <pt x="799" y="702" on="0"/>
        <pt x="799" y="693" on="1"/>
        <pt x="798" y="679" on="1"/>
        <pt x="758" y="440" on="1"/>
        <pt x="756" y="426" on="0"/>
        <pt x="749" y="419" on="0"/>
        <pt x="740" y="419" on="1"/>
        <pt x="729" y="419" on="0"/>
        <pt x="725" y="430" on="0"/>
        <pt x="725" y="444" on="1"/>
        <pt x="725" y="458" on="1"/>
        <pt x="725" y="497" on="0"/>
        <pt x="702" y="574" on="0"/>
        <pt x="656" y="635" on="0"/>
        <pt x="586" y="674" on="0"/>
        <pt x="538" y="674" on="1"/>
        <pt x="505" y="674" on="0"/>
        <pt x="441" y="657" on="0"/>
        <pt x="383" y="628" on="0"/>
        <pt x="334" y="589" on="0"/>
        <pt x="315" y="567" on="1"/>
        <pt x="275" y="521" on="0"/>
        <pt x="231" y="416" on="0"/>
        <pt x="211" y="324" on="0"/>
        <pt x="208" y="259" on="0"/>
        <pt x="208" y="252" on="1"/>
        <pt x="208" y="179" on="0"/>
        <pt x="253" y="85" on="0"/>
        <pt x="320" y="30" on="0"/>
        <pt x="397" y="9" on="0"/>
        <pt x="429" y="9" on="1"/>
        <pt x="450" y="9" on="0"/>
        <pt x="509" y="19" on="0"/>
        <pt x="565" y="45" on="0"/>
        <pt x="609" y="90" on="0"/>
        <pt x="615" y="125" on="1"/>
        <pt x="616" y="131" on="0"/>
        <pt x="620" y="156" on="0"/>
        <pt x="625" y="184" on="0"/>
        <pt x="629" y="208" on="0"/>
        <pt x="629" y="212" on="1"/>
        <pt x="629" y="221" on="0"/>
        <pt x="621" y="233" on="0"/>
        <pt x="601" y="240" on="0"/>
        <pt x="566" y="243" on="0"/>
        <pt x="539" y="243" on="1"/>
        <pt x="506" y="243" on="1"/>
        <pt x="507" y="249" on="0"/>
        <pt x="510" y="267" on="0"/>
        <pt x="511" y="274" on="1"/>
        <pt x="525" y="273" on="0"/>
        <pt x="567" y="272" on="0"/>
        <pt x="613" y="271" on="0"/>
        <pt x="657" y="271" on="0"/>
        <pt x="672" y="271" on="1"/>
        <pt x="695" y="271" on="0"/>
        <pt x="723" y="271" on="0"/>
        <pt x="749" y="272" on="0"/>
        <pt x="778" y="273" on="0"/>
        <pt x="801" y="274" on="1"/>
        <pt x="800" y="268" on="0"/>
        <pt x="797" y="250" on="0"/>
        <pt x="796" y="243" on="1"/>
        <pt x="772" y="243" on="0"/>
        <pt x="743" y="241" on="0"/>
        <pt x="727" y="232" on="0"/>
        <pt x="720" y="217" on="0"/>
        <pt x="718" y="203" on="1"/>
      </contour>
    </TTGlyph>
    <TTGlyph name="Gamma" xMin="38" yMin="0" xMax="683" yMax="680">
      <contour>
        <pt x="244" y="83" on="1"/>
        <pt x="242" y="71" on="0"/>
        <pt x="241" y="64" on="0"/>
        <pt x="241" y="62" on="1"/>
        <pt x="241" y="54" on="0"/>
        <pt x="247" y="42" on="0"/>
        <pt x="266" y="35" on="0"/>
        <pt x="301" y="31" on="0"/>
        <pt x="330" y="31" on="1"/>
        <pt x="362" y="31" on="1"/>
        <pt x="357" y="0" on="1"/>
        <pt x="344" y="1" on="0"/>
        <pt x="300" y="2" on="0"/>
        <pt x="252" y="3" on="0"/>
        <pt x="206" y="3" on="0"/>
        <pt x="191" y="3" on="1"/>
        <pt x="156" y="3" on="0"/>
        <pt x="72" y="2" on="0"/>
        <pt x="38" y="0" on="1"/>
        <pt x="43" y="31" on="1"/>
        <pt x="66" y="31" on="1"/>
        <pt x="93" y="31" on="0"/>
        <pt x="125" y="35" on="0"/>
        <pt x="143" y="45" on="0"/>
        <pt x="150" y="61" on="0"/>
        <pt x="152" y="73" on="1"/>
        <pt x="240" y="601" on="1"/>
        <pt x="242" y="611" on="0"/>
        <pt x="243" y="618" on="0"/>
        <pt x="243" y="620" on="1"/>
        <pt x="243" y="637" on="0"/>
        <pt x="214" y="649" on="0"/>
        <pt x="169" y="649" on="1"/>
        <pt x="146" y="649" on="1"/>
        <pt x="151" y="680" on="1"/>
        <pt x="683" y="680" on="1"/>
        <pt x="674" y="455" on="1"/>
        <pt x="646" y="455" on="1"/>
        <pt x="647" y="464" on="0"/>
        <pt x="647" y="490" on="0"/>
        <pt x="647" y="500" on="1"/>
        <pt x="647" y="536" on="0"/>
        <pt x="638" y="592" on="0"/>
        <pt x="606" y="629" on="0"/>
        <pt x="546" y="649" on="0"/>
        <pt x="495" y="649" on="1"/>
        <pt x="387" y="649" on="1"/>
        <pt x="356" y="649" on="0"/>
        <pt x="336" y="636" on="0"/>
        <pt x="332" y="613" on="1"/>
      </contour>
    </TTGlyph>
    <TTGlyph name="H" xMin="38" yMin="0" xMax="846" yMax="683">
      <contour>
        <pt x="644" y="83" on="1"/>
        <pt x="642" y="70" on="0"/>
        <pt x="641" y="63" on="0"/>
        <pt x="641" y="60" on="1"/>
        <pt x="641" y="53" on="0"/>
        <pt x="645" y="42" on="0"/>
        <pt x="660" y="34" on="0"/>
        <pt x="690" y="31" on="0"/>
        <pt x="715" y="31" on="1"/>
        <pt x="737" y="31" on="1"/>
        <pt x="736" y="25" on="0"/>
        <pt x="733" y="7" on="0"/>
        <pt x="732" y="0" on="1"/>
        <pt x="696" y="2" on="0"/>
        <pt x="621" y="3" on="0"/>
        <pt x="585" y="3" on="1"/>
        <pt x="550" y="3" on="0"/>
        <pt x="472" y="2" on="0"/>
        <pt x="438" y="0" on="1"/>
        <pt x="443" y="31" on="1"/>
        <pt x="466" y="31" on="1"/>
        <pt x="493" y="31" on="0"/>
        <pt x="525" y="35" on="0"/>
        <pt x="543" y="45" on="0"/>
        <pt x="550" y="61" on="0"/>
        <pt x="552" y="73" on="1"/>
        <pt x="596" y="340" on="1"/>
        <pt x="287" y="340" on="1"/>
        <pt x="244" y="83" on="1"/>
        <pt x="242" y="71" on="0"/>
        <pt x="241" y="64" on="0"/>
        <pt x="241" y="60" on="1"/>
        <pt x="241" y="53" on="0"/>
        <pt x="245" y="42" on="0"/>
        <pt x="260" y="34" on="0"/>
        <pt x="290" y="31" on="0"/>
        <pt x="315" y="31" on="1"/>
        <pt x="337" y="31" on="1"/>
        <pt x="336" y="25" on="0"/>
        <pt x="333" y="7" on="0"/>
        <pt x="332" y="0" on="1"/>
        <pt x="296" y="2" on="0"/>
        <pt x="221" y="3" on="0"/>
        <pt x="185" y="3" on="1"/>
        <pt x="150" y="3" on="0"/>
        <pt x="72" y="2" on="0"/>
        <pt x="38" y="0" on="1"/>
        <pt x="43" y="31" on="1"/>
        <pt x="66" y="31" on="1"/>
        <pt x="93" y="31" on="0"/>
        <pt x="125" y="35" on="0"/>
        <pt x="143" y="45" on="0"/>
        <pt x="150" y="61" on="0"/>
        <pt x="152" y="73" on="1"/>
        <pt x="240" y="601" on="1"/>
        <pt x="242" y="613" on="0"/>
        <pt x="243" y="620" on="0"/>
        <pt x="243" y="623" on="1"/>
        <pt x="243" y="631" on="0"/>
        <pt x="238" y="642" on="0"/>
        <pt x="223" y="649" on="0"/>
        <pt x="193" y="652" on="0"/>
        <pt x="169" y="652" on="1"/>
        <pt x="147" y="652" on="1"/>
        <pt x="148" y="659" on="0"/>
        <pt x="151" y="677" on="0"/>
        <pt x="152" y="683" on="1"/>
        <pt x="188" y="681" on="0"/>
        <pt x="262" y="680" on="0"/>
        <pt x="298" y="680" on="1"/>
        <pt x="333" y="680" on="0"/>
        <pt x="412" y="681" on="0"/>
        <pt x="446" y="683" on="1"/>
        <pt x="441" y="652" on="1"/>
        <pt x="418" y="652" on="1"/>
        <pt x="391" y="652" on="0"/>
        <pt x="359" y="648" on="0"/>
        <pt x="341" y="638" on="0"/>
        <pt x="333" y="621" on="0"/>
        <pt x="331" y="607" on="1"/>
        <pt x="292" y="371" on="1"/>
        <pt x="602" y="371" on="1"/>
        <pt x="640" y="601" on="1"/>
        <pt x="642" y="613" on="0"/>
        <pt x="643" y="620" on="0"/>
        <pt x="643" y="623" on="1"/>
        <pt x="643" y="631" on="0"/>
        <pt x="638" y="642" on="0"/>
        <pt x="623" y="649" on="0"/>
        <pt x="593" y="652" on="0"/>
        <pt x="569" y="652" on="1"/>
        <pt x="547" y="652" on="1"/>
        <pt x="548" y="659" on="0"/>
        <pt x="551" y="677" on="0"/>
        <pt x="552" y="683" on="1"/>
        <pt x="588" y="681" on="0"/>
        <pt x="662" y="680" on="0"/>
        <pt x="698" y="680" on="1"/>
        <pt x="733" y="680" on="0"/>
        <pt x="812" y="681" on="0"/>
        <pt x="846" y="683" on="1"/>
        <pt x="841" y="652" on="1"/>
        <pt x="818" y="652" on="1"/>
        <pt x="791" y="652" on="0"/>
        <pt x="759" y="648" on="0"/>
        <pt x="741" y="637" on="0"/>
        <pt x="733" y="620" on="0"/>
        <pt x="731" y="607" on="1"/>
      </contour>
    </TTGlyph>
    <TTGlyph name="I" xMin="33" yMin="0" xMax="451" yMax="683">
      <contour>
        <pt x="244" y="83" on="1"/>
        <pt x="242" y="71" on="0"/>
        <pt x="241" y="64" on="0"/>
        <pt x="241" y="61" on="1"/>
        <pt x="241" y="53" on="0"/>
        <pt x="245" y="42" on="0"/>
        <pt x="261" y="34" on="0"/>
        <pt x="292" y="31" on="0"/>
        <pt x="318" y="31" on="1"/>
        <pt x="342" y="31" on="1"/>
        <pt x="341" y="24" on="0"/>
        <pt x="338" y="6" on="0"/>
        <pt x="337" y="0" on="1"/>
        <pt x="322" y="1" on="0"/>
        <pt x="282" y="2" on="0"/>
        <pt x="241" y="3" on="0"/>
        <pt x="201" y="3" on="0"/>
        <pt x="185" y="3" on="1"/>
        <pt x="169" y="3" on="0"/>
        <pt x="129" y="3" on="0"/>
        <pt x="88" y="2" on="0"/>
        <pt x="48" y="1" on="0"/>
        <pt x="33" y="0" on="1"/>
        <pt x="38" y="31" on="1"/>
        <pt x="63" y="31" on="1"/>
        <pt x="91" y="31" on="0"/>
        <pt x="125" y="35" on="0"/>
        <pt x="143" y="45" on="0"/>
        <pt x="151" y="63" on="0"/>
        <pt x="153" y="77" on="1"/>
        <pt x="240" y="601" on="1"/>
        <pt x="242" y="613" on="0"/>
        <pt x="243" y="620" on="0"/>
        <pt x="243" y="622" on="1"/>
        <pt x="243" y="630" on="0"/>
        <pt x="239" y="641" on="0"/>
        <pt x="223" y="649" on="0"/>
        <pt x="192" y="652" on="0"/>
        <pt x="166" y="652" on="1"/>
        <pt x="142" y="652" on="1"/>
        <pt x="144" y="660" on="0"/>
        <pt x="145" y="675" on="0"/>
        <pt x="147" y="683" on="1"/>
        <pt x="162" y="682" on="0"/>
        <pt x="202" y="681" on="0"/>
        <pt x="243" y="680" on="0"/>
        <pt x="283" y="680" on="0"/>
        <pt x="299" y="680" on="1"/>
        <pt x="315" y="680" on="0"/>
        <pt x="355" y="680" on="0"/>
        <pt x="396" y="681" on="0"/>
        <pt x="436" y="682" on="0"/>
        <pt x="451" y="683" on="1"/>
        <pt x="446" y="652" on="1"/>
        <pt x="421" y="652" on="1"/>
        <pt x="393" y="652" on="0"/>
        <pt x="359" y="648" on="0"/>
        <pt x="341" y="637" on="0"/>
        <pt x="333" y="620" on="0"/>
        <pt x="331" y="607" on="1"/>
      </contour>
    </TTGlyph>
    <TTGlyph name="J" xMin="65" yMin="-22" xMax="589" yMax="683">
      <contour>
        <pt x="423" y="143" on="1"/>
        <pt x="417" y="107" on="0"/>
        <pt x="377" y="47" on="0"/>
        <pt x="318" y="3" on="0"/>
        <pt x="246" y="-22" on="0"/>
        <pt x="208" y="-22" on="1"/>
        <pt x="178" y="-22" on="0"/>
        <pt x="125" y="-4" on="0"/>
        <pt x="87" y="27" on="0"/>
        <pt x="65" y="71" on="0"/>
        <pt x="65" y="96" on="1"/>
        <pt x="65" y="135" on="0"/>
        <pt x="106" y="168" on="0"/>
        <pt x="128" y="168" on="1"/>
        <pt x="143" y="168" on="0"/>
        <pt x="162" y="158" on="0"/>
        <pt x="173" y="144" on="0"/>
        <pt x="177" y="128" on="0"/>
        <pt x="177" y="122" on="1"/>
        <pt x="177" y="109" on="0"/>
        <pt x="167" y="85" on="0"/>
        <pt x="147" y="67" on="0"/>
        <pt x="121" y="58" on="0"/>
        <pt x="104" y="60" on="1"/>
        <pt x="114" y="40" on="0"/>
        <pt x="145" y="17" on="0"/>
        <pt x="176" y="6" on="0"/>
        <pt x="201" y="3" on="0"/>
        <pt x="206" y="3" on="1"/>
        <pt x="229" y="3" on="0"/>
        <pt x="272" y="26" on="0"/>
        <pt x="306" y="65" on="0"/>
        <pt x="331" y="117" on="0"/>
        <pt x="336" y="145" on="1"/>
        <pt x="412" y="601" on="1"/>
        <pt x="414" y="612" on="0"/>
        <pt x="415" y="619" on="0"/>
        <pt x="415" y="621" on="1"/>
        <pt x="415" y="638" on="0"/>
        <pt x="380" y="652" on="0"/>
        <pt x="323" y="652" on="1"/>
        <pt x="288" y="652" on="1"/>
        <pt x="293" y="683" on="1"/>
        <pt x="307" y="682" on="0"/>
        <pt x="350" y="681" on="0"/>
        <pt x="396" y="680" on="0"/>
        <pt x="441" y="680" on="0"/>
        <pt x="456" y="680" on="1"/>
        <pt x="477" y="680" on="0"/>
        <pt x="506" y="680" on="0"/>
        <pt x="534" y="681" on="0"/>
        <pt x="566" y="682" on="0"/>
        <pt x="589" y="683" on="1"/>
        <pt x="588" y="676" on="0"/>
        <pt x="585" y="658" on="0"/>
        <pt x="584" y="652" on="1"/>
        <pt x="561" y="652" on="0"/>
        <pt x="531" y="651" on="0"/>
        <pt x="513" y="643" on="0"/>
        <pt x="504" y="626" on="0"/>
        <pt x="501" y="611" on="1"/>
      </contour>
    </TTGlyph>
    <TTGlyph name="K" xMin="38" yMin="0" xMax="855" yMax="683">
      <contour>
        <pt x="482" y="418" on="1"/>
        <pt x="490" y="403" on="0"/>
        <pt x="522" y="343" on="0"/>
        <pt x="562" y="268" on="0"/>
        <pt x="604" y="189" on="0"/>
        <pt x="640" y="122" on="0"/>
        <pt x="665" y="77" on="0"/>
        <pt x="667" y="73" on="1"/>
        <pt x="676" y="59" on="0"/>
        <pt x="693" y="42" on="0"/>
        <pt x="713" y="33" on="0"/>
        <pt x="741" y="31" on="0"/>
        <pt x="760" y="31" on="1"/>
        <pt x="755" y="0" on="1"/>
        <pt x="717" y="2" on="0"/>
        <pt x="659" y="3" on="0"/>
        <pt x="639" y="3" on="1"/>
        <pt x="605" y="3" on="0"/>
        <pt x="532" y="2" on="0"/>
        <pt x="499" y="0" on="1"/>
        <pt x="504" y="31" on="1"/>
        <pt x="511" y="31" on="0"/>
        <pt x="532" y="32" on="0"/>
        <pt x="552" y="38" on="0"/>
        <pt x="566" y="52" on="0"/>
        <pt x="566" y="65" on="1"/>
        <pt x="566" y="73" on="0"/>
        <pt x="559" y="89" on="0"/>
        <pt x="553" y="100" on="1"/>
        <pt x="412" y="363" on="1"/>
        <pt x="272" y="250" on="1"/>
        <pt x="271" y="244" on="0"/>
        <pt x="266" y="212" on="0"/>
        <pt x="259" y="172" on="0"/>
        <pt x="251" y="128" on="0"/>
        <pt x="245" y="90" on="0"/>
        <pt x="241" y="63" on="0"/>
        <pt x="241" y="60" on="1"/>
        <pt x="241" y="42" on="0"/>
        <pt x="262" y="35" on="0"/>
        <pt x="279" y="33" on="1"/>
        <pt x="290" y="31" on="0"/>
        <pt x="323" y="31" on="0"/>
        <pt x="337" y="31" on="1"/>
        <pt x="332" y="0" on="1"/>
        <pt x="296" y="2" on="0"/>
        <pt x="221" y="3" on="0"/>
        <pt x="185" y="3" on="1"/>
        <pt x="150" y="3" on="0"/>
        <pt x="72" y="2" on="0"/>
        <pt x="38" y="0" on="1"/>
        <pt x="43" y="31" on="1"/>
        <pt x="75" y="31" on="0"/>
        <pt x="115" y="32" on="0"/>
        <pt x="139" y="41" on="0"/>
        <pt x="149" y="59" on="0"/>
        <pt x="152" y="75" on="1"/>
        <pt x="240" y="599" on="1"/>
        <pt x="241" y="605" on="0"/>
        <pt x="243" y="618" on="0"/>
        <pt x="243" y="623" on="1"/>
        <pt x="243" y="641" on="0"/>
        <pt x="222" y="648" on="0"/>
        <pt x="205" y="650" on="1"/>
        <pt x="194" y="652" on="0"/>
        <pt x="161" y="652" on="0"/>
        <pt x="147" y="652" on="1"/>
        <pt x="152" y="683" on="1"/>
        <pt x="188" y="681" on="0"/>
        <pt x="262" y="680" on="0"/>
        <pt x="298" y="680" on="1"/>
        <pt x="333" y="680" on="0"/>
        <pt x="412" y="681" on="0"/>
        <pt x="446" y="683" on="1"/>
        <pt x="441" y="652" on="1"/>
        <pt x="408" y="652" on="0"/>
        <pt x="368" y="651" on="0"/>
        <pt x="344" y="642" on="0"/>
        <pt x="334" y="623" on="0"/>
        <pt x="331" y="605" on="1"/>
        <pt x="278" y="288" on="1"/>
        <pt x="647" y="583" on="1"/>
        <pt x="653" y="588" on="0"/>
        <pt x="675" y="610" on="0"/>
        <pt x="675" y="624" on="1"/>
        <pt x="675" y="640" on="0"/>
        <pt x="651" y="652" on="0"/>
        <pt x="637" y="652" on="1"/>
        <pt x="642" y="683" on="1"/>
        <pt x="678" y="681" on="0"/>
        <pt x="735" y="680" on="0"/>
        <pt x="765" y="680" on="1"/>
        <pt x="768" y="680" on="0"/>
        <pt x="789" y="680" on="0"/>
        <pt x="816" y="681" on="0"/>
        <pt x="844" y="682" on="0"/>
        <pt x="855" y="683" on="1"/>
        <pt x="850" y="652" on="1"/>
        <pt x="815" y="651" on="0"/>
        <pt x="741" y="624" on="0"/>
        <pt x="695" y="588" on="1"/>
      </contour>
    </TTGlyph>
    <TTGlyph name="L" xMin="38" yMin="0" xMax="641" yMax="683">
      <contour>
        <pt x="570" y="0" on="1"/>
        <pt x="38" y="0" on="1"/>
        <pt x="40" y="8" on="0"/>
        <pt x="41" y="23" on="0"/>
        <pt x="43" y="31" on="1"/>
        <pt x="66" y="31" on="1"/>
        <pt x="93" y="31" on="0"/>
        <pt x="125" y="35" on="0"/>
        <pt x="143" y="45" on="0"/>
        <pt x="150" y="61" on="0"/>
        <pt x="152" y="73" on="1"/>
        <pt x="240" y="601" on="1"/>
        <pt x="242" y="613" on="0"/>
        <pt x="243" y="620" on="0"/>
        <pt x="243" y="623" on="1"/>
        <pt x="243" y="631" on="0"/>
        <pt x="238" y="642" on="0"/>
        <pt x="223" y="649" on="0"/>
        <pt x="193" y="652" on="0"/>
        <pt x="169" y="652" on="1"/>
        <pt x="147" y="652" on="1"/>
        <pt x="148" y="659" on="0"/>
        <pt x="151" y="677" on="0"/>
        <pt x="152" y="683" on="1"/>
        <pt x="190" y="681" on="0"/>
        <pt x="266" y="680" on="0"/>
        <pt x="304" y="680" on="1"/>
        <pt x="319" y="680" on="0"/>
        <pt x="365" y="680" on="0"/>
        <pt x="413" y="681" on="0"/>
        <pt x="458" y="682" on="0"/>
        <pt x="471" y="683" on="1"/>
        <pt x="466" y="652" on="1"/>
        <pt x="433" y="652" on="1"/>
        <pt x="400" y="652" on="0"/>
        <pt x="362" y="647" on="0"/>
        <pt x="341" y="637" on="0"/>
        <pt x="333" y="619" on="0"/>
        <pt x="331" y="606" on="1"/>
        <pt x="242" y="71" on="1"/>
        <pt x="241" y="66" on="0"/>
        <pt x="240" y="56" on="0"/>
        <pt x="240" y="52" on="1"/>
        <pt x="240" y="38" on="0"/>
        <pt x="259" y="31" on="0"/>
        <pt x="284" y="31" on="1"/>
        <pt x="371" y="31" on="1"/>
        <pt x="438" y="31" on="0"/>
        <pt x="522" y="72" on="0"/>
        <pt x="573" y="137" on="0"/>
        <pt x="602" y="218" on="0"/>
        <pt x="613" y="258" on="1"/>
        <pt x="641" y="258" on="1"/>
      </contour>
    </TTGlyph>
    <TTGlyph name="Lambda" xMin="34" yMin="0" xMax="685" yMax="716">
      <contour>
        <pt x="183" y="99" on="1"/>
        <pt x="178" y="90" on="0"/>
        <pt x="176" y="83" on="0"/>
        <pt x="176" y="77" on="1"/>
        <pt x="176" y="62" on="0"/>
        <pt x="192" y="44" on="0"/>
        <pt x="213" y="34" on="0"/>
        <pt x="236" y="30" on="0"/>
        <pt x="243" y="30" on="1"/>
        <pt x="237" y="0" on="1"/>
        <pt x="206" y="2" on="0"/>
        <pt x="160" y="3" on="0"/>
        <pt x="128" y="3" on="1"/>
        <pt x="105" y="3" on="0"/>
        <pt x="57" y="2" on="0"/>
        <pt x="34" y="0" on="1"/>
        <pt x="39" y="31" on="1"/>
        <pt x="51" y="31" on="0"/>
        <pt x="79" y="35" on="0"/>
        <pt x="108" y="49" on="0"/>
        <pt x="136" y="74" on="0"/>
        <pt x="147" y="95" on="1"/>
        <pt x="450" y="696" on="1"/>
        <pt x="455" y="706" on="0"/>
        <pt x="464" y="716" on="0"/>
        <pt x="475" y="716" on="1"/>
        <pt x="488" y="716" on="0"/>
        <pt x="494" y="704" on="0"/>
        <pt x="496" y="693" on="1"/>
        <pt x="601" y="71" on="1"/>
        <pt x="604" y="56" on="0"/>
        <pt x="613" y="40" on="0"/>
        <pt x="632" y="32" on="0"/>
        <pt x="662" y="31" on="0"/>
        <pt x="685" y="31" on="1"/>
        <pt x="679" y="0" on="1"/>
        <pt x="651" y="1" on="0"/>
        <pt x="619" y="2" on="0"/>
        <pt x="595" y="3" on="0"/>
        <pt x="573" y="3" on="0"/>
        <pt x="555" y="3" on="1"/>
        <pt x="520" y="3" on="0"/>
        <pt x="447" y="2" on="0"/>
        <pt x="413" y="0" on="1"/>
        <pt x="414" y="7" on="0"/>
        <pt x="417" y="25" on="0"/>
        <pt x="418" y="31" on="1"/>
        <pt x="427" y="31" on="0"/>
        <pt x="457" y="32" on="0"/>
        <pt x="486" y="38" on="0"/>
        <pt x="507" y="52" on="0"/>
        <pt x="507" y="65" on="1"/>
        <pt x="507" y="67" on="0"/>
        <pt x="507" y="72" on="0"/>
        <pt x="505" y="79" on="1"/>
        <pt x="421" y="575" on="1"/>
      </contour>
    </TTGlyph>
    <TTGlyph name="M" xMin="43" yMin="0" xMax="1012" yMax="683">
      <contour>
        <pt x="487" y="98" on="1"/>
        <pt x="805" y="664" on="1"/>
        <pt x="813" y="678" on="0"/>
        <pt x="828" y="683" on="0"/>
        <pt x="843" y="683" on="1"/>
        <pt x="1012" y="683" on="1"/>
        <pt x="1007" y="652" on="1"/>
        <pt x="984" y="652" on="1"/>
        <pt x="957" y="652" on="0"/>
        <pt x="925" y="648" on="0"/>
        <pt x="907" y="637" on="0"/>
        <pt x="899" y="620" on="0"/>
        <pt x="897" y="607" on="1"/>
        <pt x="810" y="83" on="1"/>
        <pt x="808" y="70" on="0"/>
        <pt x="807" y="63" on="0"/>
        <pt x="807" y="60" on="1"/>
        <pt x="807" y="53" on="0"/>
        <pt x="811" y="42" on="0"/>
        <pt x="826" y="34" on="0"/>
        <pt x="856" y="31" on="0"/>
        <pt x="881" y="31" on="1"/>
        <pt x="903" y="31" on="1"/>
        <pt x="902" y="25" on="0"/>
        <pt x="899" y="7" on="0"/>
        <pt x="898" y="0" on="1"/>
        <pt x="876" y="1" on="0"/>
        <pt x="830" y="2" on="0"/>
        <pt x="791" y="3" on="0"/>
        <pt x="762" y="3" on="0"/>
        <pt x="756" y="3" on="1"/>
        <pt x="721" y="3" on="0"/>
        <pt x="648" y="2" on="0"/>
        <pt x="613" y="0" on="1"/>
        <pt x="618" y="31" on="1"/>
        <pt x="641" y="31" on="1"/>
        <pt x="668" y="31" on="0"/>
        <pt x="700" y="35" on="0"/>
        <pt x="718" y="45" on="0"/>
        <pt x="725" y="61" on="0"/>
        <pt x="727" y="73" on="1"/>
        <pt x="823" y="648" on="1"/>
        <pt x="822" y="648" on="1"/>
        <pt x="467" y="19" on="1"/>
        <pt x="463" y="13" on="0"/>
        <pt x="454" y="0" on="0"/>
        <pt x="445" y="0" on="1"/>
        <pt x="434" y="0" on="0"/>
        <pt x="428" y="14" on="0"/>
        <pt x="426" y="23" on="1"/>
        <pt x="284" y="640" on="1"/>
        <pt x="283" y="640" on="1"/>
        <pt x="194" y="107" on="1"/>
        <pt x="192" y="95" on="0"/>
        <pt x="191" y="89" on="0"/>
        <pt x="191" y="86" on="1"/>
        <pt x="191" y="66" on="0"/>
        <pt x="212" y="44" on="0"/>
        <pt x="241" y="33" on="0"/>
        <pt x="273" y="31" on="0"/>
        <pt x="283" y="31" on="1"/>
        <pt x="277" y="0" on="1"/>
        <pt x="259" y="1" on="0"/>
        <pt x="232" y="2" on="0"/>
        <pt x="207" y="3" on="0"/>
        <pt x="180" y="3" on="0"/>
        <pt x="161" y="3" on="1"/>
        <pt x="146" y="3" on="0"/>
        <pt x="123" y="3" on="0"/>
        <pt x="98" y="2" on="0"/>
        <pt x="67" y="1" on="0"/>
        <pt x="43" y="0" on="1"/>
        <pt x="49" y="31" on="1"/>
        <pt x="84" y="31" on="0"/>
        <pt x="126" y="44" on="0"/>
        <pt x="150" y="65" on="0"/>
        <pt x="160" y="90" on="0"/>
        <pt x="162" y="102" on="1"/>
        <pt x="245" y="601" on="1"/>
        <pt x="247" y="613" on="0"/>
        <pt x="248" y="620" on="0"/>
        <pt x="248" y="623" on="1"/>
        <pt x="248" y="631" on="0"/>
        <pt x="243" y="642" on="0"/>
        <pt x="228" y="649" on="0"/>
        <pt x="198" y="652" on="0"/>
        <pt x="174" y="652" on="1"/>
        <pt x="152" y="652" on="1"/>
        <pt x="153" y="659" on="0"/>
        <pt x="156" y="677" on="0"/>
        <pt x="157" y="683" on="1"/>
        <pt x="325" y="683" on="1"/>
        <pt x="342" y="683" on="0"/>
        <pt x="354" y="677" on="0"/>
        <pt x="358" y="660" on="1"/>
      </contour>
    </TTGlyph>
    <TTGlyph name="N" xMin="38" yMin="0" xMax="846" yMax="683">
      <contour>
        <pt x="624" y="148" on="1"/>
        <pt x="696" y="583" on="1"/>
        <pt x="697" y="589" on="0"/>
        <pt x="698" y="595" on="0"/>
        <pt x="698" y="597" on="1"/>
        <pt x="698" y="618" on="0"/>
        <pt x="676" y="640" on="0"/>
        <pt x="646" y="650" on="0"/>
        <pt x="615" y="652" on="0"/>
        <pt x="606" y="652" on="1"/>
        <pt x="612" y="683" on="1"/>
        <pt x="630" y="682" on="0"/>
        <pt x="657" y="681" on="0"/>
        <pt x="682" y="680" on="0"/>
        <pt x="709" y="680" on="0"/>
        <pt x="728" y="680" on="1"/>
        <pt x="743" y="680" on="0"/>
        <pt x="766" y="680" on="0"/>
        <pt x="791" y="681" on="0"/>
        <pt x="822" y="682" on="0"/>
        <pt x="846" y="683" on="1"/>
        <pt x="841" y="652" on="1"/>
        <pt x="793" y="652" on="0"/>
        <pt x="734" y="622" on="0"/>
        <pt x="727" y="582" on="1"/>
        <pt x="634" y="21" on="1"/>
        <pt x="632" y="10" on="0"/>
        <pt x="626" y="0" on="0"/>
        <pt x="617" y="0" on="1"/>
        <pt x="609" y="0" on="0"/>
        <pt x="603" y="5" on="0"/>
        <pt x="598" y="16" on="1"/>
        <pt x="286" y="604" on="1"/>
        <pt x="284" y="607" on="0"/>
        <pt x="277" y="618" on="0"/>
        <pt x="275" y="620" on="1"/>
        <pt x="189" y="107" on="1"/>
        <pt x="187" y="96" on="0"/>
        <pt x="186" y="89" on="0"/>
        <pt x="186" y="86" on="1"/>
        <pt x="186" y="66" on="0"/>
        <pt x="207" y="44" on="0"/>
        <pt x="236" y="33" on="0"/>
        <pt x="268" y="31" on="0"/>
        <pt x="278" y="31" on="1"/>
        <pt x="272" y="0" on="1"/>
        <pt x="254" y="1" on="0"/>
        <pt x="227" y="2" on="0"/>
        <pt x="202" y="3" on="0"/>
        <pt x="175" y="3" on="0"/>
        <pt x="156" y="3" on="1"/>
        <pt x="141" y="3" on="0"/>
        <pt x="118" y="3" on="0"/>
        <pt x="93" y="2" on="0"/>
        <pt x="62" y="1" on="0"/>
        <pt x="38" y="0" on="1"/>
        <pt x="44" y="31" on="1"/>
        <pt x="79" y="31" on="0"/>
        <pt x="122" y="44" on="0"/>
        <pt x="146" y="65" on="0"/>
        <pt x="155" y="90" on="0"/>
        <pt x="157" y="102" on="1"/>
        <pt x="245" y="629" on="1"/>
        <pt x="246" y="641" on="1"/>
        <pt x="246" y="645" on="0"/>
        <pt x="225" y="650" on="0"/>
        <pt x="198" y="652" on="0"/>
        <pt x="176" y="652" on="0"/>
        <pt x="174" y="652" on="1"/>
        <pt x="147" y="652" on="1"/>
        <pt x="148" y="659" on="0"/>
        <pt x="151" y="677" on="0"/>
        <pt x="152" y="683" on="1"/>
        <pt x="318" y="683" on="1"/>
        <pt x="333" y="683" on="0"/>
        <pt x="341" y="679" on="0"/>
        <pt x="347" y="668" on="1"/>
      </contour>
    </TTGlyph>
    <TTGlyph name="O" xMin="108" yMin="-22" xMax="803" yMax="705">
      <contour>
        <pt x="803" y="403" on="1"/>
        <pt x="803" y="319" on="0"/>
        <pt x="735" y="165" on="0"/>
        <pt x="622" y="48" on="0"/>
        <pt x="475" y="-22" on="0"/>
        <pt x="395" y="-22" on="1"/>
        <pt x="333" y="-22" on="0"/>
        <pt x="228" y="22" on="0"/>
        <pt x="151" y="102" on="0"/>
        <pt x="108" y="211" on="0"/>
        <pt x="108" y="276" on="1"/>
        <pt x="108" y="331" on="0"/>
        <pt x="139" y="438" on="0"/>
        <pt x="194" y="533" on="0"/>
        <pt x="270" y="614" on="0"/>
        <pt x="361" y="672" on="0"/>
        <pt x="463" y="705" on="0"/>
        <pt x="516" y="705" on="1"/>
        <pt x="579" y="705" on="0"/>
        <pt x="684" y="660" on="0"/>
        <pt x="760" y="579" on="0"/>
        <pt x="803" y="468" on="0"/>
      </contour>
      <contour>
        <pt x="401" y="8" on="1"/>
        <pt x="466" y="8" on="0"/>
        <pt x="577" y="82" on="0"/>
        <pt x="659" y="203" on="0"/>
        <pt x="706" y="359" on="0"/>
        <pt x="706" y="441" on="1"/>
        <pt x="706" y="503" on="0"/>
        <pt x="672" y="592" on="0"/>
        <pt x="618" y="649" on="0"/>
        <pt x="548" y="677" on="0"/>
        <pt x="512" y="677" on="1"/>
        <pt x="453" y="677" on="0"/>
        <pt x="343" y="616" on="0"/>
        <pt x="259" y="505" on="0"/>
        <pt x="209" y="350" on="0"/>
        <pt x="209" y="256" on="1"/>
        <pt x="209" y="193" on="0"/>
        <pt x="241" y="99" on="0"/>
        <pt x="295" y="38" on="0"/>
        <pt x="364" y="8" on="0"/>
      </contour>
    </TTGlyph>
    <TTGlyph name="OE" xMin="122" yMin="-22" xMax="1070" yMax="705">
      <contour>
        <pt x="969" y="0" on="1"/>
        <pt x="571" y="0" on="1"/>
        <pt x="563" y="0" on="0"/>
        <pt x="529" y="-2" on="0"/>
        <pt x="500" y="-9" on="1"/>
        <pt x="477" y="-14" on="0"/>
        <pt x="447" y="-19" on="0"/>
        <pt x="426" y="-22" on="0"/>
        <pt x="413" y="-22" on="0"/>
        <pt x="408" y="-22" on="1"/>
        <pt x="348" y="-22" on="0"/>
        <pt x="244" y="21" on="0"/>
        <pt x="167" y="100" on="0"/>
        <pt x="122" y="210" on="0"/>
        <pt x="122" y="276" on="1"/>
        <pt x="122" y="360" on="0"/>
        <pt x="190" y="515" on="0"/>
        <pt x="304" y="634" on="0"/>
        <pt x="451" y="705" on="0"/>
        <pt x="529" y="705" on="1"/>
        <pt x="537" y="705" on="0"/>
        <pt x="567" y="703" on="0"/>
        <pt x="599" y="695" on="1"/>
        <pt x="617" y="691" on="0"/>
        <pt x="642" y="686" on="0"/>
        <pt x="661" y="684" on="0"/>
        <pt x="676" y="683" on="0"/>
        <pt x="685" y="683" on="1"/>
        <pt x="1070" y="683" on="1"/>
        <pt x="1060" y="458" on="1"/>
        <pt x="1032" y="458" on="1"/>
        <pt x="1034" y="506" on="1"/>
        <pt x="1034" y="545" on="0"/>
        <pt x="1021" y="600" on="0"/>
        <pt x="987" y="636" on="0"/>
        <pt x="927" y="652" on="0"/>
        <pt x="880" y="652" on="1"/>
        <pt x="763" y="652" on="1"/>
        <pt x="747" y="652" on="0"/>
        <pt x="728" y="649" on="0"/>
        <pt x="716" y="641" on="0"/>
        <pt x="710" y="626" on="0"/>
        <pt x="708" y="613" on="1"/>
        <pt x="668" y="370" on="1"/>
        <pt x="778" y="370" on="1"/>
        <pt x="813" y="370" on="0"/>
        <pt x="860" y="380" on="0"/>
        <pt x="891" y="406" on="0"/>
        <pt x="909" y="452" on="0"/>
        <pt x="914" y="487" on="1"/>
        <pt x="942" y="487" on="1"/>
        <pt x="898" y="222" on="1"/>
        <pt x="870" y="222" on="1"/>
        <pt x="872" y="230" on="0"/>
        <pt x="876" y="263" on="0"/>
        <pt x="876" y="271" on="1"/>
        <pt x="876" y="312" on="0"/>
        <pt x="827" y="339" on="0"/>
        <pt x="773" y="339" on="1"/>
        <pt x="663" y="339" on="1"/>
        <pt x="617" y="68" on="1"/>
        <pt x="616" y="66" on="0"/>
        <pt x="616" y="54" on="0"/>
        <pt x="616" y="52" on="1"/>
        <pt x="616" y="38" on="0"/>
        <pt x="635" y="31" on="0"/>
        <pt x="660" y="31" on="1"/>
        <pt x="775" y="31" on="1"/>
        <pt x="839" y="31" on="0"/>
        <pt x="918" y="58" on="0"/>
        <pt x="970" y="113" on="0"/>
        <pt x="1006" y="199" on="0"/>
        <pt x="1027" y="258" on="1"/>
        <pt x="1055" y="258" on="1"/>
      </contour>
      <contour>
        <pt x="610" y="496" on="1"/>
        <pt x="614" y="517" on="0"/>
        <pt x="619" y="568" on="0"/>
        <pt x="619" y="591" on="1"/>
        <pt x="619" y="607" on="0"/>
        <pt x="616" y="639" on="0"/>
        <pt x="599" y="664" on="0"/>
        <pt x="562" y="680" on="0"/>
        <pt x="527" y="680" on="1"/>
        <pt x="473" y="680" on="0"/>
        <pt x="364" y="618" on="0"/>
        <pt x="277" y="509" on="0"/>
        <pt x="222" y="359" on="0"/>
        <pt x="222" y="271" on="1"/>
        <pt x="222" y="214" on="0"/>
        <pt x="250" y="116" on="0"/>
        <pt x="300" y="44" on="0"/>
        <pt x="372" y="3" on="0"/>
        <pt x="415" y="3" on="1"/>
        <pt x="445" y="3" on="0"/>
        <pt x="490" y="16" on="0"/>
        <pt x="524" y="55" on="0"/>
        <pt x="549" y="125" on="0"/>
        <pt x="558" y="182" on="1"/>
      </contour>
    </TTGlyph>
    <TTGlyph name="Oslash" xMin="108" yMin="-57" xMax="803" yMax="740">
      <contour>
        <pt x="717" y="624" on="1"/>
        <pt x="746" y="595" on="0"/>
        <pt x="780" y="531" on="0"/>
        <pt x="798" y="471" on="0"/>
        <pt x="803" y="420" on="0"/>
        <pt x="803" y="403" on="1"/>
        <pt x="803" y="319" on="0"/>
        <pt x="735" y="165" on="0"/>
        <pt x="622" y="48" on="0"/>
        <pt x="475" y="-22" on="0"/>
        <pt x="395" y="-22" on="1"/>
        <pt x="388" y="-22" on="0"/>
        <pt x="352" y="-20" on="0"/>
        <pt x="302" y="-8" on="0"/>
        <pt x="243" y="17" on="0"/>
        <pt x="212" y="40" on="1"/>
        <pt x="129" y="-57" on="1"/>
        <pt x="109" y="-41" on="1"/>
        <pt x="194" y="58" on="1"/>
        <pt x="187" y="66" on="0"/>
        <pt x="158" y="100" on="0"/>
        <pt x="129" y="154" on="0"/>
        <pt x="108" y="228" on="0"/>
        <pt x="108" y="276" on="1"/>
        <pt x="108" y="331" on="0"/>
        <pt x="139" y="438" on="0"/>
        <pt x="194" y="533" on="0"/>
        <pt x="270" y="614" on="0"/>
        <pt x="361" y="672" on="0"/>
        <pt x="463" y="705" on="0"/>
        <pt x="516" y="705" on="1"/>
        <pt x="549" y="705" on="0"/>
        <pt x="646" y="683" on="0"/>
        <pt x="699" y="642" on="1"/>
        <pt x="783" y="740" on="1"/>
        <pt x="803" y="724" on="1"/>
      </contour>
      <contour>
        <pt x="668" y="608" on="1"/>
        <pt x="658" y="621" on="0"/>
        <pt x="628" y="646" on="0"/>
        <pt x="589" y="667" on="0"/>
        <pt x="541" y="680" on="0"/>
        <pt x="512" y="680" on="1"/>
        <pt x="449" y="680" on="0"/>
        <pt x="333" y="617" on="0"/>
        <pt x="294" y="568" on="1"/>
        <pt x="258" y="522" on="0"/>
        <pt x="217" y="413" on="0"/>
        <pt x="198" y="316" on="0"/>
        <pt x="194" y="246" on="0"/>
        <pt x="194" y="238" on="1"/>
        <pt x="194" y="195" on="0"/>
        <pt x="210" y="129" on="0"/>
        <pt x="227" y="97" on="1"/>
      </contour>
      <contour>
        <pt x="243" y="74" on="1"/>
        <pt x="250" y="67" on="0"/>
        <pt x="274" y="42" on="0"/>
        <pt x="312" y="20" on="0"/>
        <pt x="365" y="3" on="0"/>
        <pt x="400" y="3" on="1"/>
        <pt x="424" y="3" on="0"/>
        <pt x="481" y="15" on="0"/>
        <pt x="539" y="42" on="0"/>
        <pt x="597" y="87" on="0"/>
        <pt x="623" y="120" on="1"/>
        <pt x="654" y="160" on="0"/>
        <pt x="691" y="258" on="0"/>
        <pt x="711" y="350" on="0"/>
        <pt x="717" y="425" on="0"/>
        <pt x="717" y="442" on="1"/>
        <pt x="717" y="451" on="0"/>
        <pt x="716" y="482" on="0"/>
        <pt x="710" y="520" on="0"/>
        <pt x="696" y="563" on="0"/>
        <pt x="684" y="585" on="1"/>
      </contour>
    </TTGlyph>
    <TTGlyph name="P" xMin="40" yMin="0" xMax="726" yMax="683">
      <contour>
        <pt x="246" y="83" on="1"/>
        <pt x="244" y="71" on="0"/>
        <pt x="243" y="64" on="0"/>
        <pt x="243" y="60" on="1"/>
        <pt x="243" y="53" on="0"/>
        <pt x="247" y="42" on="0"/>
        <pt x="262" y="34" on="0"/>
        <pt x="292" y="31" on="0"/>
        <pt x="317" y="31" on="1"/>
        <pt x="339" y="31" on="1"/>
        <pt x="338" y="25" on="0"/>
        <pt x="335" y="7" on="0"/>
        <pt x="334" y="0" on="1"/>
        <pt x="298" y="2" on="0"/>
        <pt x="223" y="3" on="0"/>
        <pt x="187" y="3" on="1"/>
        <pt x="152" y="3" on="0"/>
        <pt x="74" y="2" on="0"/>
        <pt x="40" y="0" on="1"/>
        <pt x="45" y="31" on="1"/>
        <pt x="68" y="31" on="1"/>
        <pt x="95" y="31" on="0"/>
        <pt x="127" y="35" on="0"/>
        <pt x="145" y="45" on="0"/>
        <pt x="152" y="61" on="0"/>
        <pt x="154" y="73" on="1"/>
        <pt x="242" y="601" on="1"/>
        <pt x="244" y="613" on="0"/>
        <pt x="245" y="620" on="0"/>
        <pt x="245" y="623" on="1"/>
        <pt x="245" y="631" on="0"/>
        <pt x="240" y="642" on="0"/>
        <pt x="225" y="649" on="0"/>
        <pt x="195" y="652" on="0"/>
        <pt x="171" y="652" on="1"/>
        <pt x="149" y="652" on="1"/>
        <pt x="150" y="659" on="0"/>
        <pt x="153" y="677" on="0"/>
        <pt x="154" y="683" on="1"/>
        <pt x="513" y="683" on="1"/>
        <pt x="561" y="683" on="0"/>
        <pt x="640" y="657" on="0"/>
        <pt x="695" y="612" on="0"/>
        <pt x="726" y="553" on="0"/>
        <pt x="726" y="520" on="1"/>
        <pt x="726" y="481" on="0"/>
        <pt x="683" y="406" on="0"/>
        <pt x="608" y="349" on="0"/>
        <pt x="508" y="314" on="0"/>
        <pt x="452" y="314" on="1"/>
        <pt x="284" y="314" on="1"/>
      </contour>
      <contour>
        <pt x="286" y="342" on="1"/>
        <pt x="431" y="342" on="1"/>
        <pt x="528" y="342" on="0"/>
        <pt x="626" y="444" on="0"/>
        <pt x="626" y="543" on="1"/>
        <pt x="626" y="557" on="0"/>
        <pt x="619" y="595" on="0"/>
        <pt x="590" y="629" on="0"/>
        <pt x="532" y="652" on="0"/>
        <pt x="482" y="652" on="1"/>
        <pt x="386" y="652" on="1"/>
        <pt x="370" y="652" on="0"/>
        <pt x="351" y="649" on="0"/>
        <pt x="339" y="641" on="0"/>
        <pt x="333" y="626" on="0"/>
        <pt x="331" y="613" on="1"/>
      </contour>
    </TTGlyph>
    <TTGlyph name="Phi" xMin="112" yMin="0" xMax="743" yMax="683">
      <contour>
        <pt x="421" y="62" on="1"/>
        <pt x="421" y="54" on="0"/>
        <pt x="427" y="42" on="0"/>
        <pt x="446" y="35" on="0"/>
        <pt x="481" y="31" on="0"/>
        <pt x="510" y="31" on="1"/>
        <pt x="542" y="31" on="1"/>
        <pt x="537" y="0" on="1"/>
        <pt x="524" y="1" on="0"/>
        <pt x="479" y="2" on="0"/>
        <pt x="431" y="3" on="0"/>
        <pt x="384" y="3" on="0"/>
        <pt x="369" y="3" on="1"/>
        <pt x="354" y="3" on="0"/>
        <pt x="307" y="3" on="0"/>
        <pt x="257" y="2" on="0"/>
        <pt x="212" y="1" on="0"/>
        <pt x="199" y="0" on="1"/>
        <pt x="204" y="31" on="1"/>
        <pt x="236" y="31" on="1"/>
        <pt x="272" y="31" on="0"/>
        <pt x="311" y="36" on="0"/>
        <pt x="331" y="49" on="0"/>
        <pt x="337" y="71" on="0"/>
        <pt x="340" y="88" on="1"/>
        <pt x="348" y="135" on="1"/>
        <pt x="294" y="140" on="0"/>
        <pt x="206" y="173" on="0"/>
        <pt x="145" y="223" on="0"/>
        <pt x="112" y="285" on="0"/>
        <pt x="112" y="319" on="1"/>
        <pt x="112" y="354" on="0"/>
        <pt x="150" y="427" on="0"/>
        <pt x="226" y="491" on="0"/>
        <pt x="340" y="540" on="0"/>
        <pt x="417" y="549" on="1"/>
        <pt x="422" y="576" on="0"/>
        <pt x="429" y="617" on="0"/>
        <pt x="429" y="621" on="1"/>
        <pt x="429" y="630" on="0"/>
        <pt x="422" y="642" on="0"/>
        <pt x="402" y="649" on="0"/>
        <pt x="367" y="652" on="0"/>
        <pt x="340" y="652" on="1"/>
        <pt x="307" y="652" on="1"/>
        <pt x="312" y="683" on="1"/>
        <pt x="326" y="682" on="0"/>
        <pt x="370" y="681" on="0"/>
        <pt x="420" y="680" on="0"/>
        <pt x="467" y="680" on="0"/>
        <pt x="482" y="680" on="1"/>
        <pt x="497" y="680" on="0"/>
        <pt x="544" y="680" on="0"/>
        <pt x="593" y="681" on="0"/>
        <pt x="638" y="682" on="0"/>
        <pt x="651" y="683" on="1"/>
        <pt x="646" y="652" on="1"/>
        <pt x="613" y="652" on="1"/>
        <pt x="578" y="652" on="0"/>
        <pt x="539" y="647" on="0"/>
        <pt x="519" y="634" on="0"/>
        <pt x="512" y="612" on="0"/>
        <pt x="509" y="595" on="1"/>
        <pt x="502" y="548" on="1"/>
        <pt x="558" y="544" on="0"/>
        <pt x="647" y="511" on="0"/>
        <pt x="709" y="461" on="0"/>
        <pt x="743" y="398" on="0"/>
        <pt x="743" y="364" on="1"/>
        <pt x="743" y="324" on="0"/>
        <pt x="696" y="246" on="0"/>
        <pt x="613" y="183" on="0"/>
        <pt x="499" y="140" on="0"/>
        <pt x="432" y="134" on="1"/>
      </contour>
      <contour>
        <pt x="413" y="522" on="1"/>
        <pt x="376" y="517" on="0"/>
        <pt x="322" y="497" on="0"/>
        <pt x="285" y="475" on="0"/>
        <pt x="264" y="454" on="0"/>
        <pt x="259" y="449" on="1"/>
        <pt x="242" y="427" on="0"/>
        <pt x="222" y="381" on="0"/>
        <pt x="212" y="341" on="0"/>
        <pt x="209" y="309" on="0"/>
        <pt x="209" y="301" on="1"/>
        <pt x="209" y="242" on="0"/>
        <pt x="280" y="171" on="0"/>
        <pt x="352" y="161" on="1"/>
      </contour>
      <contour>
        <pt x="437" y="160" on="1"/>
        <pt x="481" y="165" on="0"/>
        <pt x="556" y="196" on="0"/>
        <pt x="613" y="250" on="0"/>
        <pt x="645" y="329" on="0"/>
        <pt x="645" y="381" on="1"/>
        <pt x="645" y="404" on="0"/>
        <pt x="634" y="449" on="0"/>
        <pt x="601" y="488" on="0"/>
        <pt x="544" y="517" on="0"/>
        <pt x="497" y="523" on="1"/>
      </contour>
    </TTGlyph>
    <TTGlyph name="Pi" xMin="38" yMin="0" xMax="845" yMax="680">
      <contour>
        <pt x="644" y="83" on="1"/>
        <pt x="642" y="71" on="0"/>
        <pt x="641" y="64" on="0"/>
        <pt x="641" y="60" on="1"/>
        <pt x="641" y="53" on="0"/>
        <pt x="645" y="42" on="0"/>
        <pt x="660" y="34" on="0"/>
        <pt x="690" y="31" on="0"/>
        <pt x="715" y="31" on="1"/>
        <pt x="737" y="31" on="1"/>
        <pt x="736" y="25" on="0"/>
        <pt x="733" y="7" on="0"/>
        <pt x="732" y="0" on="1"/>
        <pt x="696" y="2" on="0"/>
        <pt x="621" y="3" on="0"/>
        <pt x="585" y="3" on="1"/>
        <pt x="550" y="3" on="0"/>
        <pt x="472" y="2" on="0"/>
        <pt x="438" y="0" on="1"/>
        <pt x="443" y="31" on="1"/>
        <pt x="466" y="31" on="1"/>
        <pt x="493" y="31" on="0"/>
        <pt x="525" y="35" on="0"/>
        <pt x="543" y="45" on="0"/>
        <pt x="550" y="61" on="0"/>
        <pt x="552" y="73" on="1"/>
        <pt x="648" y="649" on="1"/>
        <pt x="338" y="649" on="1"/>
        <pt x="244" y="83" on="1"/>
        <pt x="242" y="71" on="0"/>
        <pt x="241" y="64" on="0"/>
        <pt x="241" y="60" on="1"/>
        <pt x="241" y="53" on="0"/>
        <pt x="245" y="42" on="0"/>
        <pt x="260" y="34" on="0"/>
        <pt x="290" y="31" on="0"/>
        <pt x="315" y="31" on="1"/>
        <pt x="337" y="31" on="1"/>
        <pt x="336" y="25" on="0"/>
        <pt x="333" y="7" on="0"/>
        <pt x="332" y="0" on="1"/>
        <pt x="296" y="2" on="0"/>
        <pt x="221" y="3" on="0"/>
        <pt x="185" y="3" on="1"/>
        <pt x="150" y="3" on="0"/>
        <pt x="72" y="2" on="0"/>
        <pt x="38" y="0" on="1"/>
        <pt x="43" y="31" on="1"/>
        <pt x="66" y="31" on="1"/>
        <pt x="93" y="31" on="0"/>
        <pt x="125" y="35" on="0"/>
        <pt x="143" y="45" on="0"/>
        <pt x="150" y="61" on="0"/>
        <pt x="152" y="73" on="1"/>
        <pt x="240" y="601" on="1"/>
        <pt x="242" y="611" on="0"/>
        <pt x="243" y="618" on="0"/>
        <pt x="243" y="620" on="1"/>
        <pt x="243" y="637" on="0"/>
        <pt x="214" y="649" on="0"/>
        <pt x="169" y="649" on="1"/>
        <pt x="146" y="649" on="1"/>
        <pt x="151" y="680" on="1"/>
        <pt x="845" y="680" on="1"/>
        <pt x="844" y="673" on="0"/>
        <pt x="841" y="655" on="0"/>
        <pt x="840" y="649" on="1"/>
        <pt x="817" y="649" on="1"/>
        <pt x="790" y="649" on="0"/>
        <pt x="758" y="645" on="0"/>
        <pt x="740" y="635" on="0"/>
        <pt x="733" y="618" on="0"/>
        <pt x="731" y="605" on="1"/>
      </contour>
    </TTGlyph>
    <TTGlyph name="Psi" xMin="148" yMin="0" xMax="831" yMax="683">
      <contour>
        <pt x="465" y="163" on="1"/>
        <pt x="507" y="173" on="0"/>
        <pt x="570" y="218" on="0"/>
        <pt x="615" y="280" on="0"/>
        <pt x="644" y="356" on="0"/>
        <pt x="651" y="397" on="1"/>
        <pt x="656" y="425" on="0"/>
        <pt x="671" y="481" on="0"/>
        <pt x="696" y="526" on="0"/>
        <pt x="737" y="555" on="0"/>
        <pt x="769" y="555" on="1"/>
        <pt x="804" y="555" on="1"/>
        <pt x="816" y="555" on="0"/>
        <pt x="831" y="552" on="0"/>
        <pt x="831" y="542" on="1"/>
        <pt x="831" y="534" on="0"/>
        <pt x="820" y="531" on="0"/>
        <pt x="815" y="530" on="1"/>
        <pt x="794" y="527" on="0"/>
        <pt x="767" y="499" on="0"/>
        <pt x="749" y="461" on="0"/>
        <pt x="739" y="417" on="0"/>
        <pt x="735" y="397" on="1"/>
        <pt x="713" y="285" on="0"/>
        <pt x="579" y="150" on="0"/>
        <pt x="460" y="134" on="1"/>
        <pt x="449" y="62" on="1"/>
        <pt x="449" y="54" on="0"/>
        <pt x="455" y="42" on="0"/>
        <pt x="474" y="35" on="0"/>
        <pt x="509" y="31" on="0"/>
        <pt x="538" y="31" on="1"/>
        <pt x="570" y="31" on="1"/>
        <pt x="565" y="0" on="1"/>
        <pt x="552" y="1" on="0"/>
        <pt x="507" y="2" on="0"/>
        <pt x="459" y="3" on="0"/>
        <pt x="412" y="3" on="0"/>
        <pt x="397" y="3" on="1"/>
        <pt x="382" y="3" on="0"/>
        <pt x="335" y="3" on="0"/>
        <pt x="285" y="2" on="0"/>
        <pt x="240" y="1" on="0"/>
        <pt x="227" y="0" on="1"/>
        <pt x="232" y="31" on="1"/>
        <pt x="264" y="31" on="1"/>
        <pt x="300" y="31" on="0"/>
        <pt x="339" y="36" on="0"/>
        <pt x="359" y="49" on="0"/>
        <pt x="366" y="71" on="0"/>
        <pt x="369" y="89" on="1"/>
        <pt x="376" y="136" on="1"/>
        <pt x="335" y="141" on="0"/>
        <pt x="267" y="171" on="0"/>
        <pt x="219" y="223" on="0"/>
        <pt x="192" y="298" on="0"/>
        <pt x="192" y="347" on="1"/>
        <pt x="192" y="358" on="0"/>
        <pt x="193" y="389" on="0"/>
        <pt x="198" y="415" on="1"/>
        <pt x="199" y="419" on="0"/>
        <pt x="202" y="448" on="0"/>
        <pt x="202" y="459" on="1"/>
        <pt x="202" y="483" on="0"/>
        <pt x="194" y="511" on="0"/>
        <pt x="182" y="525" on="0"/>
        <pt x="168" y="529" on="0"/>
        <pt x="163" y="530" on="1"/>
        <pt x="159" y="531" on="0"/>
        <pt x="148" y="534" on="0"/>
        <pt x="148" y="542" on="1"/>
        <pt x="148" y="552" on="0"/>
        <pt x="162" y="555" on="0"/>
        <pt x="174" y="555" on="1"/>
        <pt x="210" y="555" on="1"/>
        <pt x="218" y="555" on="0"/>
        <pt x="244" y="552" on="0"/>
        <pt x="268" y="534" on="0"/>
        <pt x="286" y="495" on="0"/>
        <pt x="286" y="459" on="1"/>
        <pt x="286" y="458" on="0"/>
        <pt x="285" y="429" on="0"/>
        <pt x="281" y="407" on="1"/>
        <pt x="276" y="378" on="0"/>
        <pt x="274" y="340" on="0"/>
        <pt x="274" y="329" on="1"/>
        <pt x="274" y="300" on="0"/>
        <pt x="284" y="246" on="0"/>
        <pt x="309" y="202" on="0"/>
        <pt x="350" y="170" on="0"/>
        <pt x="381" y="163" on="1"/>
        <pt x="454" y="601" on="1"/>
        <pt x="456" y="612" on="0"/>
        <pt x="457" y="619" on="0"/>
        <pt x="457" y="621" on="1"/>
        <pt x="457" y="630" on="0"/>
        <pt x="450" y="642" on="0"/>
        <pt x="430" y="649" on="0"/>
        <pt x="395" y="652" on="0"/>
        <pt x="368" y="652" on="1"/>
        <pt x="335" y="652" on="1"/>
        <pt x="340" y="683" on="1"/>
        <pt x="354" y="682" on="0"/>
        <pt x="398" y="681" on="0"/>
        <pt x="448" y="680" on="0"/>
        <pt x="495" y="680" on="0"/>
        <pt x="510" y="680" on="1"/>
        <pt x="525" y="680" on="0"/>
        <pt x="572" y="680" on="0"/>
        <pt x="621" y="681" on="0"/>
        <pt x="666" y="682" on="0"/>
        <pt x="679" y="683" on="1"/>
        <pt x="674" y="652" on="1"/>
        <pt x="641" y="652" on="1"/>
        <pt x="608" y="652" on="0"/>
        <pt x="570" y="647" on="0"/>
        <pt x="549" y="637" on="0"/>
        <pt x="541" y="619" on="0"/>
        <pt x="539" y="606" on="1"/>
      </contour>
    </TTGlyph>
    <TTGlyph name="Q" xMin="108" yMin="-194" xMax="803" yMax="705">
      <contour>
        <pt x="532" y="6" on="1"/>
        <pt x="543" y="-38" on="0"/>
        <pt x="574" y="-92" on="0"/>
        <pt x="612" y="-92" on="1"/>
        <pt x="649" y="-92" on="0"/>
        <pt x="711" y="-43" on="0"/>
        <pt x="721" y="-4" on="1"/>
        <pt x="723" y="2" on="0"/>
        <pt x="727" y="12" on="0"/>
        <pt x="734" y="12" on="1"/>
        <pt x="737" y="12" on="0"/>
        <pt x="747" y="7" on="0"/>
        <pt x="747" y="-1" on="1"/>
        <pt x="747" y="-7" on="0"/>
        <pt x="732" y="-68" on="0"/>
        <pt x="697" y="-138" on="0"/>
        <pt x="637" y="-194" on="0"/>
        <pt x="592" y="-194" on="1"/>
        <pt x="543" y="-194" on="0"/>
        <pt x="499" y="-130" on="0"/>
        <pt x="496" y="-73" on="1"/>
        <pt x="494" y="-47" on="0"/>
        <pt x="495" y="-19" on="0"/>
        <pt x="494" y="-8" on="1"/>
        <pt x="476" y="-13" on="0"/>
        <pt x="424" y="-22" on="0"/>
        <pt x="395" y="-22" on="1"/>
        <pt x="333" y="-22" on="0"/>
        <pt x="228" y="22" on="0"/>
        <pt x="151" y="102" on="0"/>
        <pt x="108" y="211" on="0"/>
        <pt x="108" y="276" on="1"/>
        <pt x="108" y="331" on="0"/>
        <pt x="139" y="438" on="0"/>
        <pt x="194" y="533" on="0"/>
        <pt x="270" y="614" on="0"/>
        <pt x="361" y="672" on="0"/>
        <pt x="463" y="705" on="0"/>
        <pt x="516" y="705" on="1"/>
        <pt x="579" y="705" on="0"/>
        <pt x="684" y="660" on="0"/>
        <pt x="760" y="579" on="0"/>
        <pt x="803" y="468" on="0"/>
        <pt x="803" y="403" on="1"/>
        <pt x="803" y="343" on="0"/>
        <pt x="765" y="223" on="0"/>
        <pt x="695" y="117" on="0"/>
        <pt x="594" y="32" on="0"/>
      </contour>
      <contour>
        <pt x="332" y="19" on="1"/>
        <pt x="328" y="26" on="0"/>
        <pt x="325" y="36" on="0"/>
        <pt x="325" y="52" on="1"/>
        <pt x="325" y="72" on="0"/>
        <pt x="341" y="108" on="0"/>
        <pt x="368" y="134" on="0"/>
        <pt x="404" y="149" on="0"/>
        <pt x="423" y="149" on="1"/>
        <pt x="449" y="149" on="0"/>
        <pt x="484" y="127" on="0"/>
        <pt x="506" y="95" on="0"/>
        <pt x="519" y="58" on="0"/>
        <pt x="523" y="43" on="1"/>
        <pt x="566" y="69" on="0"/>
        <pt x="627" y="141" on="0"/>
        <pt x="668" y="219" on="0"/>
        <pt x="692" y="299" on="0"/>
        <pt x="704" y="368" on="0"/>
        <pt x="707" y="420" on="0"/>
        <pt x="707" y="431" on="1"/>
        <pt x="707" y="494" on="0"/>
        <pt x="674" y="587" on="0"/>
        <pt x="619" y="647" on="0"/>
        <pt x="549" y="677" on="0"/>
        <pt x="512" y="677" on="1"/>
        <pt x="448" y="677" on="0"/>
        <pt x="335" y="607" on="0"/>
        <pt x="252" y="489" on="0"/>
        <pt x="204" y="334" on="0"/>
        <pt x="204" y="248" on="1"/>
        <pt x="204" y="170" on="0"/>
        <pt x="266" y="45" on="0"/>
      </contour>
      <contour>
        <pt x="493" y="27" on="1"/>
        <pt x="490" y="83" on="0"/>
        <pt x="454" y="124" on="0"/>
        <pt x="423" y="124" on="1"/>
        <pt x="408" y="124" on="0"/>
        <pt x="382" y="112" on="0"/>
        <pt x="362" y="93" on="0"/>
        <pt x="350" y="67" on="0"/>
        <pt x="350" y="53" on="1"/>
        <pt x="350" y="37" on="0"/>
        <pt x="361" y="19" on="0"/>
        <pt x="376" y="9" on="0"/>
        <pt x="393" y="6" on="0"/>
        <pt x="400" y="6" on="1"/>
        <pt x="426" y="6" on="0"/>
        <pt x="473" y="18" on="0"/>
      </contour>
    </TTGlyph>
    <TTGlyph name="R" xMin="40" yMin="-22" xMax="767" yMax="683">
      <contour>
        <pt x="508" y="339" on="1"/>
        <pt x="525" y="334" on="0"/>
        <pt x="562" y="315" on="0"/>
        <pt x="592" y="284" on="0"/>
        <pt x="612" y="239" on="0"/>
        <pt x="612" y="209" on="1"/>
        <pt x="612" y="205" on="0"/>
        <pt x="611" y="177" on="0"/>
        <pt x="610" y="142" on="0"/>
        <pt x="609" y="107" on="0"/>
        <pt x="609" y="95" on="1"/>
        <pt x="609" y="77" on="0"/>
        <pt x="610" y="44" on="0"/>
        <pt x="619" y="19" on="0"/>
        <pt x="638" y="3" on="0"/>
        <pt x="656" y="3" on="1"/>
        <pt x="684" y="3" on="0"/>
        <pt x="729" y="51" on="0"/>
        <pt x="739" y="90" on="1"/>
        <pt x="741" y="98" on="0"/>
        <pt x="746" y="107" on="0"/>
        <pt x="754" y="107" on="1"/>
        <pt x="764" y="107" on="0"/>
        <pt x="767" y="95" on="0"/>
        <pt x="767" y="94" on="1"/>
        <pt x="767" y="88" on="0"/>
        <pt x="756" y="50" on="0"/>
        <pt x="729" y="10" on="0"/>
        <pt x="685" y="-22" on="0"/>
        <pt x="652" y="-22" on="1"/>
        <pt x="624" y="-22" on="0"/>
        <pt x="571" y="-8" on="0"/>
        <pt x="530" y="20" on="0"/>
        <pt x="505" y="66" on="0"/>
        <pt x="505" y="97" on="1"/>
        <pt x="505" y="108" on="0"/>
        <pt x="509" y="136" on="0"/>
        <pt x="513" y="157" on="1"/>
        <pt x="517" y="181" on="0"/>
        <pt x="522" y="208" on="0"/>
        <pt x="524" y="223" on="0"/>
        <pt x="524" y="228" on="0"/>
        <pt x="524" y="230" on="1"/>
        <pt x="524" y="243" on="0"/>
        <pt x="514" y="277" on="0"/>
        <pt x="487" y="308" on="0"/>
        <pt x="442" y="329" on="0"/>
        <pt x="406" y="329" on="1"/>
        <pt x="284" y="329" on="1"/>
        <pt x="243" y="83" on="1"/>
        <pt x="241" y="71" on="0"/>
        <pt x="240" y="64" on="0"/>
        <pt x="240" y="60" on="1"/>
        <pt x="240" y="53" on="0"/>
        <pt x="244" y="42" on="0"/>
        <pt x="259" y="34" on="0"/>
        <pt x="289" y="31" on="0"/>
        <pt x="314" y="31" on="1"/>
        <pt x="336" y="31" on="1"/>
        <pt x="335" y="25" on="0"/>
        <pt x="332" y="7" on="0"/>
        <pt x="331" y="0" on="1"/>
        <pt x="296" y="2" on="0"/>
        <pt x="222" y="3" on="0"/>
        <pt x="186" y="3" on="1"/>
        <pt x="151" y="3" on="0"/>
        <pt x="74" y="2" on="0"/>
        <pt x="40" y="0" on="1"/>
        <pt x="45" y="31" on="1"/>
        <pt x="68" y="31" on="1"/>
        <pt x="95" y="31" on="0"/>
        <pt x="127" y="35" on="0"/>
        <pt x="145" y="45" on="0"/>
        <pt x="152" y="61" on="0"/>
        <pt x="154" y="73" on="1"/>
        <pt x="242" y="601" on="1"/>
        <pt x="244" y="613" on="0"/>
        <pt x="245" y="620" on="0"/>
        <pt x="245" y="623" on="1"/>
        <pt x="245" y="631" on="0"/>
        <pt x="240" y="642" on="0"/>
        <pt x="225" y="649" on="0"/>
        <pt x="195" y="652" on="0"/>
        <pt x="171" y="652" on="1"/>
        <pt x="149" y="652" on="1"/>
        <pt x="150" y="659" on="0"/>
        <pt x="153" y="677" on="0"/>
        <pt x="154" y="683" on="1"/>
        <pt x="473" y="683" on="1"/>
        <pt x="521" y="683" on="0"/>
        <pt x="607" y="660" on="0"/>
        <pt x="673" y="618" on="0"/>
        <pt x="712" y="558" on="0"/>
        <pt x="712" y="522" on="1"/>
        <pt x="712" y="486" on="0"/>
        <pt x="675" y="427" on="0"/>
        <pt x="616" y="380" on="0"/>
        <pt x="544" y="348" on="0"/>
      </contour>
      <contour>
        <pt x="405" y="354" on="1"/>
        <pt x="449" y="354" on="0"/>
        <pt x="525" y="375" on="0"/>
        <pt x="580" y="419" on="0"/>
        <pt x="612" y="490" on="0"/>
        <pt x="612" y="539" on="1"/>
        <pt x="612" y="581" on="0"/>
        <pt x="574" y="627" on="0"/>
        <pt x="516" y="648" on="0"/>
        <pt x="450" y="652" on="0"/>
        <pt x="421" y="652" on="1"/>
        <pt x="405" y="652" on="0"/>
        <pt x="367" y="652" on="0"/>
        <pt x="359" y="650" on="1"/>
        <pt x="346" y="648" on="0"/>
        <pt x="335" y="634" on="0"/>
        <pt x="331" y="613" on="1"/>
        <pt x="288" y="354" on="1"/>
      </contour>
    </TTGlyph>
    <TTGlyph name="S" xMin="55" yMin="-22" xMax="599" yMax="705">
      <contour>
        <pt x="423" y="387" on="1"/>
        <pt x="446" y="381" on="0"/>
        <pt x="490" y="354" on="0"/>
        <pt x="525" y="311" on="0"/>
        <pt x="547" y="254" on="0"/>
        <pt x="547" y="219" on="1"/>
        <pt x="547" y="175" on="0"/>
        <pt x="511" y="88" on="0"/>
        <pt x="446" y="20" on="0"/>
        <pt x="359" y="-22" on="0"/>
        <pt x="308" y="-22" on="1"/>
        <pt x="291" y="-22" on="0"/>
        <pt x="245" y="-17" on="0"/>
        <pt x="196" y="-2" on="0"/>
        <pt x="149" y="26" on="0"/>
        <pt x="129" y="48" on="1"/>
        <pt x="125" y="43" on="0"/>
        <pt x="113" y="27" on="0"/>
        <pt x="100" y="11" on="0"/>
        <pt x="88" y="-5" on="0"/>
        <pt x="84" y="-9" on="1"/>
        <pt x="78" y="-17" on="0"/>
        <pt x="73" y="-22" on="0"/>
        <pt x="68" y="-22" on="1"/>
        <pt x="60" y="-22" on="0"/>
        <pt x="55" y="-13" on="0"/>
        <pt x="55" y="-10" on="1"/>
        <pt x="55" y="-8" on="0"/>
        <pt x="55" y="-4" on="0"/>
        <pt x="57" y="3" on="1"/>
        <pt x="91" y="206" on="1"/>
        <pt x="93" y="217" on="0"/>
        <pt x="97" y="227" on="0"/>
        <pt x="107" y="227" on="1"/>
        <pt x="110" y="227" on="0"/>
        <pt x="121" y="224" on="0"/>
        <pt x="121" y="214" on="1"/>
        <pt x="121" y="213" on="0"/>
        <pt x="117" y="183" on="0"/>
        <pt x="117" y="172" on="1"/>
        <pt x="117" y="128" on="0"/>
        <pt x="149" y="66" on="0"/>
        <pt x="203" y="27" on="0"/>
        <pt x="272" y="9" on="0"/>
        <pt x="309" y="9" on="1"/>
        <pt x="346" y="9" on="0"/>
        <pt x="407" y="39" on="0"/>
        <pt x="452" y="88" on="0"/>
        <pt x="477" y="149" on="0"/>
        <pt x="477" y="179" on="1"/>
        <pt x="477" y="203" on="0"/>
        <pt x="460" y="246" on="0"/>
        <pt x="449" y="259" on="1"/>
        <pt x="440" y="268" on="0"/>
        <pt x="424" y="280" on="0"/>
        <pt x="405" y="288" on="0"/>
        <pt x="379" y="295" on="0"/>
        <pt x="359" y="300" on="1"/>
        <pt x="314" y="311" on="0"/>
        <pt x="257" y="326" on="0"/>
        <pt x="221" y="339" on="0"/>
        <pt x="198" y="356" on="0"/>
        <pt x="185" y="369" on="1"/>
        <pt x="168" y="386" on="0"/>
        <pt x="140" y="442" on="0"/>
        <pt x="140" y="483" on="1"/>
        <pt x="140" y="526" on="0"/>
        <pt x="177" y="606" on="0"/>
        <pt x="241" y="668" on="0"/>
        <pt x="326" y="705" on="0"/>
        <pt x="374" y="705" on="1"/>
        <pt x="416" y="705" on="0"/>
        <pt x="498" y="674" on="0"/>
        <pt x="525" y="635" on="1"/>
        <pt x="569" y="690" on="1"/>
        <pt x="578" y="701" on="0"/>
        <pt x="583" y="705" on="0"/>
        <pt x="587" y="705" on="1"/>
        <pt x="595" y="705" on="0"/>
        <pt x="599" y="695" on="0"/>
        <pt x="599" y="693" on="1"/>
        <pt x="598" y="679" on="1"/>
        <pt x="564" y="477" on="1"/>
        <pt x="562" y="466" on="0"/>
        <pt x="557" y="456" on="0"/>
        <pt x="548" y="456" on="1"/>
        <pt x="537" y="456" on="0"/>
        <pt x="534" y="467" on="0"/>
        <pt x="534" y="473" on="1"/>
        <pt x="534" y="478" on="0"/>
        <pt x="535" y="489" on="0"/>
        <pt x="535" y="495" on="1"/>
        <pt x="535" y="533" on="0"/>
        <pt x="517" y="600" on="0"/>
        <pt x="478" y="649" on="0"/>
        <pt x="417" y="677" on="0"/>
        <pt x="373" y="677" on="1"/>
        <pt x="339" y="677" on="0"/>
        <pt x="279" y="650" on="0"/>
        <pt x="235" y="607" on="0"/>
        <pt x="210" y="552" on="0"/>
        <pt x="210" y="524" on="1"/>
        <pt x="210" y="489" on="0"/>
        <pt x="251" y="430" on="0"/>
        <pt x="293" y="419" on="1"/>
      </contour>
    </TTGlyph>
    <TTGlyph name="Sigma" xMin="59" yMin="0" xMax="770" yMax="683">
      <contour>
        <pt x="131" y="43" on="1"/>
        <pt x="414" y="43" on="1"/>
        <pt x="469" y="43" on="0"/>
        <pt x="558" y="54" on="0"/>
        <pt x="627" y="94" on="0"/>
        <pt x="678" y="171" on="0"/>
        <pt x="695" y="237" on="1"/>
        <pt x="724" y="237" on="1"/>
        <pt x="656" y="0" on="1"/>
        <pt x="86" y="0" on="1"/>
        <pt x="74" y="0" on="0"/>
        <pt x="59" y="3" on="0"/>
        <pt x="59" y="13" on="1"/>
        <pt x="59" y="15" on="0"/>
        <pt x="63" y="20" on="0"/>
        <pt x="71" y="28" on="1"/>
        <pt x="363" y="300" on="1"/>
        <pt x="168" y="661" on="1"/>
        <pt x="168" y="678" on="0"/>
        <pt x="180" y="683" on="0"/>
        <pt x="196" y="683" on="1"/>
        <pt x="770" y="683" on="1"/>
        <pt x="760" y="458" on="1"/>
        <pt x="732" y="458" on="1"/>
        <pt x="733" y="463" on="0"/>
        <pt x="733" y="471" on="0"/>
        <pt x="733" y="483" on="1"/>
        <pt x="733" y="536" on="0"/>
        <pt x="710" y="602" on="0"/>
        <pt x="659" y="639" on="0"/>
        <pt x="578" y="652" on="0"/>
        <pt x="519" y="652" on="1"/>
        <pt x="281" y="652" on="1"/>
        <pt x="440" y="358" on="1"/>
        <pt x="442" y="355" on="0"/>
        <pt x="446" y="347" on="0"/>
        <pt x="446" y="342" on="1"/>
        <pt x="446" y="340" on="0"/>
        <pt x="444" y="333" on="0"/>
        <pt x="436" y="326" on="1"/>
      </contour>
    </TTGlyph>
    <TTGlyph name="T" xMin="112" yMin="0" xMax="797" yMax="677">
      <contour>
        <pt x="429" y="76" on="1"/>
        <pt x="427" y="66" on="0"/>
        <pt x="427" y="63" on="1"/>
        <pt x="427" y="39" on="0"/>
        <pt x="484" y="31" on="0"/>
        <pt x="526" y="31" on="1"/>
        <pt x="565" y="31" on="1"/>
        <pt x="564" y="24" on="0"/>
        <pt x="561" y="6" on="0"/>
        <pt x="560" y="0" on="1"/>
        <pt x="547" y="1" on="0"/>
        <pt x="496" y="2" on="0"/>
        <pt x="440" y="3" on="0"/>
        <pt x="387" y="3" on="0"/>
        <pt x="371" y="3" on="1"/>
        <pt x="355" y="3" on="0"/>
        <pt x="302" y="3" on="0"/>
        <pt x="246" y="2" on="0"/>
        <pt x="196" y="1" on="0"/>
        <pt x="182" y="0" on="1"/>
        <pt x="187" y="31" on="1"/>
        <pt x="226" y="31" on="1"/>
        <pt x="261" y="31" on="0"/>
        <pt x="303" y="35" on="0"/>
        <pt x="327" y="45" on="0"/>
        <pt x="337" y="63" on="0"/>
        <pt x="339" y="76" on="1"/>
        <pt x="426" y="601" on="1"/>
        <pt x="428" y="614" on="0"/>
        <pt x="429" y="621" on="0"/>
        <pt x="429" y="624" on="1"/>
        <pt x="429" y="636" on="0"/>
        <pt x="418" y="643" on="0"/>
        <pt x="404" y="645" on="1"/>
        <pt x="399" y="646" on="0"/>
        <pt x="369" y="646" on="0"/>
        <pt x="357" y="646" on="1"/>
        <pt x="299" y="646" on="0"/>
        <pt x="228" y="631" on="0"/>
        <pt x="184" y="588" on="0"/>
        <pt x="156" y="512" on="0"/>
        <pt x="140" y="452" on="1"/>
        <pt x="112" y="452" on="1"/>
        <pt x="170" y="677" on="1"/>
        <pt x="797" y="677" on="1"/>
        <pt x="779" y="452" on="1"/>
        <pt x="751" y="452" on="1"/>
        <pt x="753" y="468" on="0"/>
        <pt x="755" y="502" on="0"/>
        <pt x="755" y="525" on="1"/>
        <pt x="755" y="563" on="0"/>
        <pt x="742" y="610" on="0"/>
        <pt x="708" y="636" on="0"/>
        <pt x="647" y="646" on="0"/>
        <pt x="599" y="646" on="1"/>
        <pt x="584" y="646" on="0"/>
        <pt x="549" y="645" on="0"/>
        <pt x="541" y="643" on="1"/>
        <pt x="531" y="641" on="0"/>
        <pt x="520" y="627" on="0"/>
        <pt x="517" y="607" on="1"/>
      </contour>
    </TTGlyph>
    <TTGlyph name="Theta" xMin="108" yMin="-22" xMax="803" yMax="705">
      <contour>
        <pt x="803" y="403" on="1"/>
        <pt x="803" y="319" on="0"/>
        <pt x="735" y="165" on="0"/>
        <pt x="622" y="48" on="0"/>
        <pt x="475" y="-22" on="0"/>
        <pt x="395" y="-22" on="1"/>
        <pt x="333" y="-22" on="0"/>
        <pt x="228" y="22" on="0"/>
        <pt x="151" y="102" on="0"/>
        <pt x="108" y="211" on="0"/>
        <pt x="108" y="276" on="1"/>
        <pt x="108" y="331" on="0"/>
        <pt x="139" y="438" on="0"/>
        <pt x="194" y="533" on="0"/>
        <pt x="270" y="614" on="0"/>
        <pt x="361" y="672" on="0"/>
        <pt x="463" y="705" on="0"/>
        <pt x="516" y="705" on="1"/>
        <pt x="579" y="705" on="0"/>
        <pt x="684" y="660" on="0"/>
        <pt x="760" y="579" on="0"/>
        <pt x="803" y="468" on="0"/>
      </contour>
      <contour>
        <pt x="400" y="5" on="1"/>
        <pt x="463" y="5" on="0"/>
        <pt x="575" y="71" on="0"/>
        <pt x="660" y="186" on="0"/>
        <pt x="710" y="342" on="0"/>
        <pt x="710" y="431" on="1"/>
        <pt x="710" y="493" on="0"/>
        <pt x="678" y="586" on="0"/>
        <pt x="623" y="648" on="0"/>
        <pt x="551" y="680" on="0"/>
        <pt x="512" y="680" on="1"/>
        <pt x="448" y="680" on="0"/>
        <pt x="335" y="610" on="0"/>
        <pt x="250" y="492" on="0"/>
        <pt x="201" y="336" on="0"/>
        <pt x="201" y="249" on="1"/>
        <pt x="201" y="189" on="0"/>
        <pt x="233" y="98" on="0"/>
        <pt x="288" y="37" on="0"/>
        <pt x="360" y="5" on="0"/>
      </contour>
      <contour>
        <pt x="632" y="270" on="1"/>
        <pt x="604" y="270" on="1"/>
        <pt x="610" y="304" on="1"/>
        <pt x="290" y="304" on="1"/>
        <pt x="284" y="270" on="1"/>
        <pt x="256" y="270" on="1"/>
        <pt x="280" y="415" on="1"/>
        <pt x="308" y="415" on="1"/>
        <pt x="303" y="381" on="1"/>
        <pt x="623" y="381" on="1"/>
        <pt x="628" y="415" on="1"/>
        <pt x="656" y="415" on="1"/>
      </contour>
    </TTGlyph>
    <TTGlyph name="U" xMin="147" yMin="-22" xMax="846" yMax="683">
      <contour>
        <pt x="668" y="224" on="1"/>
        <pt x="661" y="178" on="0"/>
        <pt x="613" y="89" on="0"/>
        <pt x="541" y="20" on="0"/>
        <pt x="449" y="-22" on="0"/>
        <pt x="397" y="-22" on="1"/>
        <pt x="352" y="-22" on="0"/>
        <pt x="271" y="8" on="0"/>
        <pt x="211" y="64" on="0"/>
        <pt x="175" y="142" on="0"/>
        <pt x="175" y="191" on="1"/>
        <pt x="175" y="202" on="0"/>
        <pt x="176" y="215" on="0"/>
        <pt x="178" y="228" on="1"/>
        <pt x="240" y="601" on="1"/>
        <pt x="242" y="613" on="0"/>
        <pt x="243" y="620" on="0"/>
        <pt x="243" y="623" on="1"/>
        <pt x="243" y="631" on="0"/>
        <pt x="238" y="642" on="0"/>
        <pt x="223" y="649" on="0"/>
        <pt x="193" y="652" on="0"/>
        <pt x="169" y="652" on="1"/>
        <pt x="147" y="652" on="1"/>
        <pt x="148" y="659" on="0"/>
        <pt x="151" y="677" on="0"/>
        <pt x="152" y="683" on="1"/>
        <pt x="188" y="681" on="0"/>
        <pt x="262" y="680" on="0"/>
        <pt x="298" y="680" on="1"/>
        <pt x="333" y="680" on="0"/>
        <pt x="412" y="681" on="0"/>
        <pt x="446" y="683" on="1"/>
        <pt x="441" y="652" on="1"/>
        <pt x="418" y="652" on="1"/>
        <pt x="391" y="652" on="0"/>
        <pt x="359" y="648" on="0"/>
        <pt x="341" y="638" on="0"/>
        <pt x="333" y="621" on="0"/>
        <pt x="331" y="607" on="1"/>
        <pt x="267" y="220" on="1"/>
        <pt x="263" y="197" on="0"/>
        <pt x="262" y="166" on="0"/>
        <pt x="262" y="163" on="1"/>
        <pt x="262" y="116" on="0"/>
        <pt x="291" y="56" on="0"/>
        <pt x="333" y="22" on="0"/>
        <pt x="381" y="9" on="0"/>
        <pt x="400" y="9" on="1"/>
        <pt x="441" y="9" on="0"/>
        <pt x="519" y="42" on="0"/>
        <pt x="583" y="101" on="0"/>
        <pt x="629" y="182" on="0"/>
        <pt x="637" y="229" on="1"/>
        <pt x="696" y="583" on="1"/>
        <pt x="697" y="589" on="0"/>
        <pt x="698" y="595" on="0"/>
        <pt x="698" y="597" on="1"/>
        <pt x="698" y="618" on="0"/>
        <pt x="676" y="640" on="0"/>
        <pt x="646" y="650" on="0"/>
        <pt x="615" y="652" on="0"/>
        <pt x="606" y="652" on="1"/>
        <pt x="612" y="683" on="1"/>
        <pt x="630" y="682" on="0"/>
        <pt x="657" y="681" on="0"/>
        <pt x="682" y="680" on="0"/>
        <pt x="709" y="680" on="0"/>
        <pt x="728" y="680" on="1"/>
        <pt x="743" y="680" on="0"/>
        <pt x="766" y="680" on="0"/>
        <pt x="791" y="681" on="0"/>
        <pt x="822" y="682" on="0"/>
        <pt x="846" y="683" on="1"/>
        <pt x="841" y="652" on="1"/>
        <pt x="795" y="652" on="0"/>
        <pt x="734" y="624" on="0"/>
        <pt x="727" y="582" on="1"/>
      </contour>
    </TTGlyph>
    <TTGlyph name="Upsilon" xMin="148" yMin="0" xMax="835" yMax="705">
      <contour>
        <pt x="458" y="83" on="1"/>
        <pt x="456" y="71" on="0"/>
        <pt x="455" y="65" on="0"/>
        <pt x="455" y="62" on="1"/>
        <pt x="455" y="54" on="0"/>
        <pt x="461" y="42" on="0"/>
        <pt x="480" y="35" on="0"/>
        <pt x="515" y="31" on="0"/>
        <pt x="544" y="31" on="1"/>
        <pt x="576" y="31" on="1"/>
        <pt x="571" y="0" on="1"/>
        <pt x="558" y="1" on="0"/>
        <pt x="512" y="2" on="0"/>
        <pt x="462" y="3" on="0"/>
        <pt x="414" y="3" on="0"/>
        <pt x="399" y="3" on="1"/>
        <pt x="384" y="3" on="0"/>
        <pt x="336" y="3" on="0"/>
        <pt x="286" y="2" on="0"/>
        <pt x="240" y="1" on="0"/>
        <pt x="227" y="0" on="1"/>
        <pt x="232" y="31" on="1"/>
        <pt x="264" y="31" on="1"/>
        <pt x="296" y="31" on="0"/>
        <pt x="335" y="35" on="0"/>
        <pt x="356" y="46" on="0"/>
        <pt x="365" y="64" on="0"/>
        <pt x="367" y="77" on="1"/>
        <pt x="414" y="358" on="1"/>
        <pt x="418" y="378" on="0"/>
        <pt x="420" y="420" on="0"/>
        <pt x="420" y="440" on="1"/>
        <pt x="420" y="466" on="0"/>
        <pt x="412" y="532" on="0"/>
        <pt x="385" y="589" on="0"/>
        <pt x="336" y="628" on="0"/>
        <pt x="295" y="628" on="1"/>
        <pt x="257" y="628" on="0"/>
        <pt x="190" y="589" on="0"/>
        <pt x="180" y="552" on="1"/>
        <pt x="178" y="544" on="0"/>
        <pt x="172" y="534" on="0"/>
        <pt x="162" y="534" on="1"/>
        <pt x="159" y="534" on="0"/>
        <pt x="148" y="537" on="0"/>
        <pt x="148" y="546" on="1"/>
        <pt x="148" y="558" on="0"/>
        <pt x="167" y="611" on="0"/>
        <pt x="207" y="664" on="0"/>
        <pt x="267" y="705" on="0"/>
        <pt x="309" y="705" on="1"/>
        <pt x="360" y="705" on="0"/>
        <pt x="425" y="657" on="0"/>
        <pt x="461" y="583" on="0"/>
        <pt x="475" y="498" on="0"/>
        <pt x="475" y="460" on="1"/>
        <pt x="476" y="460" on="1"/>
        <pt x="495" y="517" on="0"/>
        <pt x="547" y="607" on="0"/>
        <pt x="610" y="671" on="0"/>
        <pt x="684" y="705" on="0"/>
        <pt x="724" y="705" on="1"/>
        <pt x="754" y="705" on="0"/>
        <pt x="797" y="681" on="0"/>
        <pt x="823" y="644" on="0"/>
        <pt x="835" y="599" on="0"/>
        <pt x="835" y="577" on="1"/>
        <pt x="835" y="547" on="0"/>
        <pt x="823" y="534" on="0"/>
        <pt x="815" y="534" on="1"/>
        <pt x="807" y="534" on="0"/>
        <pt x="801" y="541" on="0"/>
        <pt x="800" y="549" on="0"/>
        <pt x="802" y="557" on="0"/>
        <pt x="802" y="558" on="1"/>
        <pt x="801" y="581" on="0"/>
        <pt x="780" y="608" on="0"/>
        <pt x="752" y="623" on="0"/>
        <pt x="723" y="628" on="0"/>
        <pt x="713" y="628" on="1"/>
        <pt x="675" y="628" on="0"/>
        <pt x="616" y="595" on="0"/>
        <pt x="571" y="542" on="0"/>
        <pt x="539" y="479" on="0"/>
        <pt x="518" y="419" on="0"/>
        <pt x="506" y="370" on="0"/>
        <pt x="504" y="358" on="1"/>
      </contour>
    </TTGlyph>
    <TTGlyph name="V" xMin="129" yMin="-22" xMax="864" yMax="683">
      <contour>
        <pt x="409" y="-3" on="1"/>
        <pt x="403" y="-14" on="0"/>
        <pt x="391" y="-22" on="0"/>
        <pt x="382" y="-22" on="1"/>
        <pt x="371" y="-22" on="0"/>
        <pt x="362" y="-13" on="0"/>
        <pt x="359" y="1" on="1"/>
        <pt x="221" y="612" on="1"/>
        <pt x="218" y="627" on="0"/>
        <pt x="206" y="643" on="0"/>
        <pt x="185" y="651" on="0"/>
        <pt x="153" y="652" on="0"/>
        <pt x="129" y="652" on="1"/>
        <pt x="135" y="683" on="1"/>
        <pt x="155" y="682" on="0"/>
        <pt x="185" y="681" on="0"/>
        <pt x="213" y="680" on="0"/>
        <pt x="242" y="680" on="0"/>
        <pt x="261" y="680" on="1"/>
        <pt x="296" y="680" on="0"/>
        <pt x="370" y="681" on="0"/>
        <pt x="404" y="683" on="1"/>
        <pt x="402" y="675" on="0"/>
        <pt x="401" y="660" on="0"/>
        <pt x="399" y="652" on="1"/>
        <pt x="389" y="652" on="0"/>
        <pt x="360" y="651" on="0"/>
        <pt x="333" y="645" on="0"/>
        <pt x="313" y="631" on="0"/>
        <pt x="313" y="619" on="1"/>
        <pt x="313" y="618" on="0"/>
        <pt x="314" y="612" on="0"/>
        <pt x="317" y="600" on="1"/>
        <pt x="431" y="97" on="1"/>
        <pt x="703" y="582" on="1"/>
        <pt x="707" y="589" on="0"/>
        <pt x="712" y="601" on="0"/>
        <pt x="712" y="609" on="1"/>
        <pt x="712" y="624" on="0"/>
        <pt x="694" y="642" on="0"/>
        <pt x="672" y="651" on="0"/>
        <pt x="652" y="653" on="0"/>
        <pt x="649" y="653" on="1"/>
        <pt x="655" y="683" on="1"/>
        <pt x="673" y="682" on="0"/>
        <pt x="699" y="681" on="0"/>
        <pt x="723" y="680" on="0"/>
        <pt x="749" y="680" on="0"/>
        <pt x="765" y="680" on="1"/>
        <pt x="766" y="680" on="0"/>
        <pt x="786" y="680" on="0"/>
        <pt x="815" y="681" on="0"/>
        <pt x="849" y="682" on="0"/>
        <pt x="864" y="683" on="1"/>
        <pt x="859" y="652" on="1"/>
        <pt x="851" y="652" on="0"/>
        <pt x="821" y="650" on="0"/>
        <pt x="787" y="637" on="0"/>
        <pt x="751" y="609" on="0"/>
        <pt x="737" y="584" on="1"/>
      </contour>
    </TTGlyph>
    <TTGlyph name="W" xMin="128" yMin="-22" xMax="1150" yMax="683">
      <contour>
        <pt x="740" y="-2" on="1"/>
        <pt x="735" y="-10" on="0"/>
        <pt x="727" y="-22" on="0"/>
        <pt x="716" y="-22" on="1"/>
        <pt x="705" y="-22" on="0"/>
        <pt x="699" y="-10" on="0"/>
        <pt x="697" y="1" on="1"/>
        <pt x="612" y="508" on="1"/>
        <pt x="357" y="-3" on="1"/>
        <pt x="348" y="-22" on="0"/>
        <pt x="332" y="-22" on="1"/>
        <pt x="321" y="-22" on="0"/>
        <pt x="315" y="-8" on="0"/>
        <pt x="313" y="3" on="1"/>
        <pt x="212" y="610" on="1"/>
        <pt x="209" y="626" on="0"/>
        <pt x="199" y="643" on="0"/>
        <pt x="180" y="651" on="0"/>
        <pt x="151" y="652" on="0"/>
        <pt x="128" y="652" on="1"/>
        <pt x="134" y="683" on="1"/>
        <pt x="156" y="682" on="0"/>
        <pt x="184" y="681" on="0"/>
        <pt x="208" y="680" on="0"/>
        <pt x="235" y="680" on="0"/>
        <pt x="256" y="680" on="1"/>
        <pt x="291" y="680" on="0"/>
        <pt x="361" y="681" on="0"/>
        <pt x="396" y="683" on="1"/>
        <pt x="394" y="675" on="0"/>
        <pt x="393" y="660" on="0"/>
        <pt x="391" y="652" on="1"/>
        <pt x="382" y="652" on="0"/>
        <pt x="352" y="651" on="0"/>
        <pt x="323" y="645" on="0"/>
        <pt x="302" y="631" on="0"/>
        <pt x="302" y="618" on="1"/>
        <pt x="302" y="616" on="0"/>
        <pt x="302" y="611" on="0"/>
        <pt x="304" y="604" on="1"/>
        <pt x="386" y="115" on="1"/>
        <pt x="599" y="540" on="1"/>
        <pt x="603" y="547" on="0"/>
        <pt x="604" y="551" on="0"/>
        <pt x="604" y="553" on="1"/>
        <pt x="604" y="556" on="0"/>
        <pt x="600" y="580" on="0"/>
        <pt x="595" y="607" on="0"/>
        <pt x="590" y="631" on="0"/>
        <pt x="588" y="634" on="1"/>
        <pt x="586" y="638" on="0"/>
        <pt x="580" y="645" on="0"/>
        <pt x="565" y="649" on="0"/>
        <pt x="536" y="652" on="0"/>
        <pt x="511" y="652" on="1"/>
        <pt x="517" y="683" on="1"/>
        <pt x="538" y="682" on="0"/>
        <pt x="565" y="681" on="0"/>
        <pt x="590" y="680" on="0"/>
        <pt x="618" y="680" on="0"/>
        <pt x="639" y="680" on="1"/>
        <pt x="673" y="680" on="0"/>
        <pt x="746" y="681" on="0"/>
        <pt x="780" y="683" on="1"/>
        <pt x="775" y="652" on="1"/>
        <pt x="774" y="652" on="1"/>
        <pt x="764" y="652" on="0"/>
        <pt x="733" y="651" on="0"/>
        <pt x="706" y="644" on="0"/>
        <pt x="686" y="630" on="0"/>
        <pt x="686" y="617" on="1"/>
        <pt x="686" y="614" on="0"/>
        <pt x="687" y="608" on="0"/>
        <pt x="689" y="596" on="1"/>
        <pt x="769" y="115" on="1"/>
        <pt x="1004" y="583" on="1"/>
        <pt x="1006" y="587" on="0"/>
        <pt x="1010" y="599" on="0"/>
        <pt x="1010" y="604" on="1"/>
        <pt x="1010" y="618" on="0"/>
        <pt x="994" y="637" on="0"/>
        <pt x="970" y="648" on="0"/>
        <pt x="943" y="653" on="0"/>
        <pt x="933" y="653" on="1"/>
        <pt x="939" y="683" on="1"/>
        <pt x="980" y="681" on="0"/>
        <pt x="1032" y="680" on="0"/>
        <pt x="1055" y="680" on="1"/>
        <pt x="1079" y="680" on="0"/>
        <pt x="1126" y="681" on="0"/>
        <pt x="1150" y="683" on="1"/>
        <pt x="1145" y="652" on="1"/>
        <pt x="1103" y="651" on="0"/>
        <pt x="1051" y="618" on="0"/>
        <pt x="1035" y="586" on="1"/>
      </contour>
    </TTGlyph>
    <TTGlyph name="X" xMin="26" yMin="0" xMax="815" yMax="683">
      <contour>
        <pt x="644" y="66" on="1"/>
        <pt x="656" y="43" on="0"/>
        <pt x="697" y="31" on="0"/>
        <pt x="732" y="31" on="1"/>
        <pt x="749" y="31" on="1"/>
        <pt x="744" y="0" on="1"/>
        <pt x="713" y="1" on="0"/>
        <pt x="676" y="2" on="0"/>
        <pt x="652" y="3" on="0"/>
        <pt x="631" y="3" on="0"/>
        <pt x="614" y="3" on="1"/>
        <pt x="579" y="3" on="0"/>
        <pt x="504" y="2" on="0"/>
        <pt x="470" y="0" on="1"/>
        <pt x="472" y="8" on="0"/>
        <pt x="473" y="23" on="0"/>
        <pt x="475" y="31" on="1"/>
        <pt x="510" y="32" on="0"/>
        <pt x="542" y="55" on="0"/>
        <pt x="542" y="63" on="1"/>
        <pt x="542" y="65" on="0"/>
        <pt x="541" y="69" on="0"/>
        <pt x="537" y="77" on="1"/>
        <pt x="414" y="312" on="1"/>
        <pt x="229" y="100" on="1"/>
        <pt x="224" y="94" on="0"/>
        <pt x="216" y="82" on="0"/>
        <pt x="216" y="71" on="1"/>
        <pt x="216" y="58" on="0"/>
        <pt x="230" y="41" on="0"/>
        <pt x="248" y="33" on="0"/>
        <pt x="265" y="30" on="0"/>
        <pt x="268" y="30" on="1"/>
        <pt x="262" y="0" on="1"/>
        <pt x="237" y="1" on="0"/>
        <pt x="201" y="2" on="0"/>
        <pt x="173" y="3" on="0"/>
        <pt x="150" y="3" on="0"/>
        <pt x="138" y="3" on="1"/>
        <pt x="121" y="3" on="0"/>
        <pt x="64" y="2" on="0"/>
        <pt x="26" y="0" on="1"/>
        <pt x="27" y="7" on="0"/>
        <pt x="30" y="25" on="0"/>
        <pt x="31" y="31" on="1"/>
        <pt x="69" y="31" on="0"/>
        <pt x="125" y="48" on="0"/>
        <pt x="162" y="69" on="0"/>
        <pt x="182" y="89" on="0"/>
        <pt x="184" y="91" on="1"/>
        <pt x="399" y="339" on="1"/>
        <pt x="256" y="613" on="1"/>
        <pt x="250" y="625" on="0"/>
        <pt x="236" y="640" on="0"/>
        <pt x="217" y="649" on="0"/>
        <pt x="188" y="652" on="0"/>
        <pt x="166" y="652" on="1"/>
        <pt x="149" y="652" on="1"/>
        <pt x="154" y="683" on="1"/>
        <pt x="186" y="682" on="0"/>
        <pt x="222" y="681" on="0"/>
        <pt x="246" y="680" on="0"/>
        <pt x="268" y="680" on="0"/>
        <pt x="284" y="680" on="1"/>
        <pt x="319" y="680" on="0"/>
        <pt x="394" y="681" on="0"/>
        <pt x="428" y="683" on="1"/>
        <pt x="423" y="652" on="1"/>
        <pt x="389" y="651" on="0"/>
        <pt x="356" y="628" on="0"/>
        <pt x="356" y="620" on="1"/>
        <pt x="356" y="618" on="0"/>
        <pt x="357" y="613" on="0"/>
        <pt x="362" y="604" on="1"/>
        <pt x="463" y="412" on="1"/>
        <pt x="612" y="582" on="1"/>
        <pt x="622" y="593" on="0"/>
        <pt x="625" y="610" on="0"/>
        <pt x="625" y="612" on="1"/>
        <pt x="625" y="624" on="0"/>
        <pt x="613" y="640" on="0"/>
        <pt x="596" y="649" on="0"/>
        <pt x="579" y="653" on="0"/>
        <pt x="573" y="653" on="1"/>
        <pt x="579" y="683" on="1"/>
        <pt x="604" y="682" on="0"/>
        <pt x="640" y="681" on="0"/>
        <pt x="668" y="680" on="0"/>
        <pt x="691" y="680" on="0"/>
        <pt x="703" y="680" on="1"/>
        <pt x="720" y="680" on="0"/>
        <pt x="777" y="681" on="0"/>
        <pt x="815" y="683" on="1"/>
        <pt x="814" y="676" on="0"/>
        <pt x="811" y="658" on="0"/>
        <pt x="810" y="652" on="1"/>
        <pt x="802" y="652" on="0"/>
        <pt x="768" y="650" on="0"/>
        <pt x="724" y="639" on="0"/>
        <pt x="678" y="614" on="0"/>
        <pt x="658" y="591" on="1"/>
        <pt x="477" y="385" on="1"/>
      </contour>
    </TTGlyph>
    <TTGlyph name="Xi" xMin="52" yMin="0" xMax="739" yMax="677">
      <contour>
        <pt x="722" y="520" on="1"/>
        <pt x="694" y="520" on="1"/>
        <pt x="696" y="531" on="0"/>
        <pt x="697" y="544" on="0"/>
        <pt x="698" y="554" on="0"/>
        <pt x="698" y="564" on="0"/>
        <pt x="698" y="572" on="1"/>
        <pt x="698" y="595" on="0"/>
        <pt x="687" y="602" on="0"/>
        <pt x="673" y="604" on="1"/>
        <pt x="661" y="605" on="0"/>
        <pt x="631" y="606" on="0"/>
        <pt x="619" y="606" on="1"/>
        <pt x="267" y="606" on="1"/>
        <pt x="256" y="606" on="0"/>
        <pt x="230" y="606" on="0"/>
        <pt x="207" y="604" on="0"/>
        <pt x="190" y="599" on="0"/>
        <pt x="187" y="595" on="1"/>
        <pt x="179" y="581" on="0"/>
        <pt x="167" y="536" on="0"/>
        <pt x="164" y="520" on="1"/>
        <pt x="136" y="520" on="1"/>
        <pt x="171" y="677" on="1"/>
        <pt x="739" y="677" on="1"/>
      </contour>
      <contour>
        <pt x="71" y="168" on="1"/>
        <pt x="99" y="168" on="1"/>
        <pt x="98" y="161" on="0"/>
        <pt x="94" y="121" on="0"/>
        <pt x="94" y="107" on="1"/>
        <pt x="94" y="84" on="0"/>
        <pt x="102" y="75" on="0"/>
        <pt x="119" y="73" on="1"/>
        <pt x="130" y="72" on="0"/>
        <pt x="166" y="71" on="0"/>
        <pt x="177" y="71" on="1"/>
        <pt x="531" y="71" on="1"/>
        <pt x="540" y="71" on="0"/>
        <pt x="566" y="71" on="0"/>
        <pt x="592" y="73" on="0"/>
        <pt x="612" y="78" on="0"/>
        <pt x="615" y="82" on="1"/>
        <pt x="622" y="93" on="0"/>
        <pt x="633" y="133" on="0"/>
        <pt x="641" y="168" on="1"/>
        <pt x="669" y="168" on="1"/>
        <pt x="632" y="0" on="1"/>
        <pt x="52" y="0" on="1"/>
      </contour>
      <contour>
        <pt x="585" y="266" on="1"/>
        <pt x="557" y="266" on="1"/>
        <pt x="566" y="317" on="1"/>
        <pt x="224" y="317" on="1"/>
        <pt x="215" y="266" on="1"/>
        <pt x="187" y="266" on="1"/>
        <pt x="216" y="439" on="1"/>
        <pt x="244" y="439" on="1"/>
        <pt x="236" y="388" on="1"/>
        <pt x="578" y="388" on="1"/>
        <pt x="586" y="439" on="1"/>
        <pt x="614" y="439" on="1"/>
      </contour>
    </TTGlyph>
    <TTGlyph name="Y" xMin="122" yMin="0" xMax="871" yMax="683">
      <contour>
        <pt x="482" y="282" on="1"/>
        <pt x="476" y="275" on="0"/>
        <pt x="474" y="268" on="0"/>
        <pt x="472" y="257" on="1"/>
        <pt x="467" y="226" on="0"/>
        <pt x="458" y="179" on="0"/>
        <pt x="453" y="146" on="1"/>
        <pt x="451" y="136" on="0"/>
        <pt x="447" y="108" on="0"/>
        <pt x="443" y="83" on="0"/>
        <pt x="440" y="63" on="0"/>
        <pt x="440" y="61" on="1"/>
        <pt x="440" y="54" on="0"/>
        <pt x="443" y="42" on="0"/>
        <pt x="458" y="35" on="0"/>
        <pt x="488" y="31" on="0"/>
        <pt x="514" y="31" on="1"/>
        <pt x="536" y="31" on="1"/>
        <pt x="535" y="25" on="0"/>
        <pt x="532" y="7" on="0"/>
        <pt x="531" y="0" on="1"/>
        <pt x="496" y="2" on="0"/>
        <pt x="422" y="3" on="0"/>
        <pt x="386" y="3" on="1"/>
        <pt x="351" y="3" on="0"/>
        <pt x="274" y="2" on="0"/>
        <pt x="240" y="0" on="1"/>
        <pt x="245" y="31" on="1"/>
        <pt x="268" y="31" on="1"/>
        <pt x="295" y="31" on="0"/>
        <pt x="327" y="35" on="0"/>
        <pt x="345" y="45" on="0"/>
        <pt x="353" y="63" on="0"/>
        <pt x="355" y="76" on="1"/>
        <pt x="388" y="273" on="1"/>
        <pt x="228" y="610" on="1"/>
        <pt x="222" y="622" on="0"/>
        <pt x="211" y="639" on="0"/>
        <pt x="192" y="648" on="0"/>
        <pt x="163" y="652" on="0"/>
        <pt x="139" y="652" on="1"/>
        <pt x="122" y="652" on="1"/>
        <pt x="123" y="659" on="0"/>
        <pt x="126" y="677" on="0"/>
        <pt x="127" y="683" on="1"/>
        <pt x="156" y="682" on="0"/>
        <pt x="190" y="681" on="0"/>
        <pt x="215" y="680" on="0"/>
        <pt x="239" y="680" on="0"/>
        <pt x="258" y="680" on="1"/>
        <pt x="274" y="680" on="0"/>
        <pt x="312" y="680" on="0"/>
        <pt x="351" y="681" on="0"/>
        <pt x="389" y="682" on="0"/>
        <pt x="404" y="683" on="1"/>
        <pt x="402" y="675" on="0"/>
        <pt x="401" y="660" on="0"/>
        <pt x="399" y="652" on="1"/>
        <pt x="367" y="652" on="0"/>
        <pt x="327" y="642" on="0"/>
        <pt x="327" y="624" on="1"/>
        <pt x="327" y="620" on="0"/>
        <pt x="328" y="614" on="0"/>
        <pt x="333" y="606" on="1"/>
        <pt x="471" y="315" on="1"/>
        <pt x="689" y="586" on="1"/>
        <pt x="694" y="592" on="0"/>
        <pt x="704" y="608" on="0"/>
        <pt x="704" y="619" on="1"/>
        <pt x="704" y="631" on="0"/>
        <pt x="689" y="645" on="0"/>
        <pt x="671" y="652" on="0"/>
        <pt x="656" y="653" on="0"/>
        <pt x="655" y="653" on="1"/>
        <pt x="661" y="683" on="1"/>
        <pt x="679" y="682" on="0"/>
        <pt x="706" y="681" on="0"/>
        <pt x="730" y="680" on="0"/>
        <pt x="755" y="680" on="0"/>
        <pt x="772" y="680" on="1"/>
        <pt x="773" y="680" on="0"/>
        <pt x="793" y="680" on="0"/>
        <pt x="822" y="681" on="0"/>
        <pt x="856" y="682" on="0"/>
        <pt x="871" y="683" on="1"/>
        <pt x="866" y="652" on="1"/>
        <pt x="817" y="651" on="0"/>
        <pt x="752" y="617" on="0"/>
        <pt x="726" y="585" on="1"/>
      </contour>
    </TTGlyph>
    <TTGlyph name="Z" xMin="59" yMin="0" xMax="682" yMax="683">
      <contour>
        <pt x="167" y="34" on="1"/>
        <pt x="339" y="34" on="1"/>
        <pt x="408" y="34" on="0"/>
        <pt x="496" y="68" on="0"/>
        <pt x="551" y="129" on="0"/>
        <pt x="581" y="215" on="0"/>
        <pt x="592" y="267" on="1"/>
        <pt x="620" y="267" on="1"/>
        <pt x="559" y="0" on="1"/>
        <pt x="84" y="0" on="1"/>
        <pt x="70" y="0" on="0"/>
        <pt x="59" y="3" on="0"/>
        <pt x="59" y="12" on="1"/>
        <pt x="59" y="13" on="0"/>
        <pt x="60" y="22" on="0"/>
        <pt x="62" y="27" on="1"/>
        <pt x="575" y="652" on="1"/>
        <pt x="412" y="652" on="1"/>
        <pt x="363" y="652" on="0"/>
        <pt x="286" y="633" on="0"/>
        <pt x="228" y="588" on="0"/>
        <pt x="187" y="514" on="0"/>
        <pt x="175" y="458" on="1"/>
        <pt x="147" y="458" on="1"/>
        <pt x="196" y="683" on="1"/>
        <pt x="657" y="683" on="1"/>
        <pt x="668" y="683" on="0"/>
        <pt x="682" y="680" on="0"/>
        <pt x="682" y="672" on="1"/>
        <pt x="682" y="670" on="0"/>
        <pt x="681" y="669" on="1"/>
        <pt x="680" y="662" on="0"/>
        <pt x="678" y="656" on="0"/>
        <pt x="672" y="650" on="1"/>
      </contour>
    </TTGlyph>
    <TTGlyph name="a" xMin="58" yMin="-11" xMax="531" yMax="448">
      <contour>
        <pt x="531" y="145" on="1"/>
        <pt x="529" y="130" on="0"/>
        <pt x="523" y="93" on="0"/>
        <pt x="521" y="85" on="1"/>
        <pt x="517" y="59" on="0"/>
        <pt x="492" y="24" on="0"/>
        <pt x="462" y="3" on="0"/>
        <pt x="430" y="-6" on="0"/>
        <pt x="418" y="-6" on="1"/>
        <pt x="410" y="-6" on="0"/>
        <pt x="388" y="-1" on="0"/>
        <pt x="368" y="16" on="0"/>
        <pt x="354" y="46" on="0"/>
        <pt x="354" y="71" on="1"/>
        <pt x="348" y="62" on="0"/>
        <pt x="324" y="34" on="0"/>
        <pt x="288" y="8" on="0"/>
        <pt x="239" y="-11" on="0"/>
        <pt x="207" y="-11" on="1"/>
        <pt x="182" y="-11" on="0"/>
        <pt x="129" y="0" on="0"/>
        <pt x="85" y="22" on="0"/>
        <pt x="58" y="59" on="0"/>
        <pt x="58" y="84" on="1"/>
        <pt x="58" y="95" on="0"/>
        <pt x="66" y="129" on="0"/>
        <pt x="92" y="169" on="0"/>
        <pt x="138" y="209" on="0"/>
        <pt x="175" y="226" on="1"/>
        <pt x="230" y="250" on="0"/>
        <pt x="339" y="263" on="0"/>
        <pt x="377" y="264" on="1"/>
        <pt x="380" y="285" on="0"/>
        <pt x="384" y="309" on="0"/>
        <pt x="386" y="321" on="0"/>
        <pt x="386" y="326" on="0"/>
        <pt x="386" y="328" on="1"/>
        <pt x="386" y="343" on="0"/>
        <pt x="377" y="376" on="0"/>
        <pt x="356" y="405" on="0"/>
        <pt x="322" y="423" on="0"/>
        <pt x="297" y="423" on="1"/>
        <pt x="293" y="423" on="0"/>
        <pt x="269" y="421" on="0"/>
        <pt x="238" y="414" on="0"/>
        <pt x="202" y="400" on="0"/>
        <pt x="187" y="387" on="1"/>
        <pt x="189" y="387" on="0"/>
        <pt x="201" y="383" on="0"/>
        <pt x="213" y="375" on="0"/>
        <pt x="223" y="359" on="0"/>
        <pt x="223" y="347" on="1"/>
        <pt x="223" y="324" on="0"/>
        <pt x="191" y="294" on="0"/>
        <pt x="171" y="294" on="1"/>
        <pt x="151" y="294" on="0"/>
        <pt x="129" y="316" on="0"/>
        <pt x="129" y="334" on="1"/>
        <pt x="129" y="354" on="0"/>
        <pt x="153" y="395" on="0"/>
        <pt x="197" y="428" on="0"/>
        <pt x="261" y="448" on="0"/>
        <pt x="300" y="448" on="1"/>
        <pt x="336" y="448" on="0"/>
        <pt x="394" y="428" on="0"/>
        <pt x="436" y="394" on="0"/>
        <pt x="459" y="348" on="0"/>
        <pt x="459" y="322" on="1"/>
        <pt x="459" y="311" on="0"/>
        <pt x="452" y="260" on="0"/>
        <pt x="442" y="203" on="0"/>
        <pt x="433" y="150" on="0"/>
        <pt x="430" y="136" on="1"/>
        <pt x="429" y="129" on="0"/>
        <pt x="425" y="108" on="0"/>
        <pt x="421" y="87" on="0"/>
        <pt x="419" y="71" on="0"/>
        <pt x="419" y="68" on="1"/>
        <pt x="419" y="66" on="0"/>
        <pt x="420" y="53" on="0"/>
        <pt x="426" y="40" on="0"/>
        <pt x="438" y="29" on="0"/>
        <pt x="448" y="29" on="1"/>
        <pt x="465" y="29" on="0"/>
        <pt x="487" y="59" on="0"/>
        <pt x="491" y="73" on="1"/>
        <pt x="493" y="78" on="0"/>
        <pt x="498" y="116" on="0"/>
        <pt x="503" y="145" on="1"/>
      </contour>
      <contour>
        <pt x="373" y="240" on="1"/>
        <pt x="314" y="237" on="0"/>
        <pt x="234" y="212" on="0"/>
        <pt x="182" y="177" on="0"/>
        <pt x="153" y="139" on="0"/>
        <pt x="140" y="106" on="0"/>
        <pt x="138" y="84" on="0"/>
        <pt x="138" y="83" on="1"/>
        <pt x="138" y="52" on="0"/>
        <pt x="182" y="14" on="0"/>
        <pt x="215" y="14" on="1"/>
        <pt x="236" y="14" on="0"/>
        <pt x="279" y="29" on="0"/>
        <pt x="317" y="57" on="0"/>
        <pt x="345" y="96" on="0"/>
        <pt x="352" y="120" on="1"/>
        <pt x="360" y="147" on="0"/>
        <pt x="368" y="210" on="0"/>
      </contour>
    </TTGlyph>
    <TTGlyph name="acute" xMin="300" yMin="509" xMax="514" yMax="698">
      <contour>
        <pt x="316" y="509" on="1"/>
        <pt x="300" y="529" on="1"/>
        <pt x="449" y="683" on="1"/>
        <pt x="449" y="684" on="0"/>
        <pt x="467" y="698" on="0"/>
        <pt x="480" y="698" on="1"/>
        <pt x="500" y="698" on="0"/>
        <pt x="514" y="673" on="0"/>
        <pt x="514" y="665" on="1"/>
        <pt x="514" y="651" on="0"/>
        <pt x="495" y="631" on="0"/>
        <pt x="489" y="627" on="1"/>
      </contour>
    </TTGlyph>
    <TTGlyph name="ae" xMin="60" yMin="-11" xMax="757" yMax="448">
      <contour>
        <pt x="446" y="229" on="1"/>
        <pt x="444" y="217" on="0"/>
        <pt x="439" y="174" on="0"/>
        <pt x="439" y="162" on="1"/>
        <pt x="439" y="125" on="0"/>
        <pt x="459" y="71" on="0"/>
        <pt x="492" y="35" on="0"/>
        <pt x="536" y="17" on="0"/>
        <pt x="559" y="17" on="1"/>
        <pt x="567" y="17" on="0"/>
        <pt x="600" y="22" on="0"/>
        <pt x="641" y="42" on="0"/>
        <pt x="684" y="83" on="0"/>
        <pt x="702" y="118" on="1"/>
        <pt x="706" y="126" on="0"/>
        <pt x="711" y="132" on="0"/>
        <pt x="718" y="132" on="1"/>
        <pt x="725" y="132" on="0"/>
        <pt x="732" y="124" on="0"/>
        <pt x="732" y="119" on="1"/>
        <pt x="732" y="113" on="0"/>
        <pt x="709" y="71" on="0"/>
        <pt x="664" y="25" on="0"/>
        <pt x="598" y="-11" on="0"/>
        <pt x="554" y="-11" on="1"/>
        <pt x="511" y="-11" on="0"/>
        <pt x="424" y="29" on="0"/>
        <pt x="395" y="76" on="1"/>
        <pt x="367" y="34" on="0"/>
        <pt x="265" y="-11" on="0"/>
        <pt x="209" y="-11" on="1"/>
        <pt x="182" y="-11" on="0"/>
        <pt x="128" y="-1" on="0"/>
        <pt x="86" y="22" on="0"/>
        <pt x="60" y="57" on="0"/>
        <pt x="60" y="81" on="1"/>
        <pt x="60" y="113" on="0"/>
        <pt x="101" y="174" on="0"/>
        <pt x="181" y="222" on="0"/>
        <pt x="299" y="251" on="0"/>
        <pt x="375" y="251" on="1"/>
        <pt x="380" y="277" on="0"/>
        <pt x="387" y="318" on="0"/>
        <pt x="387" y="328" on="1"/>
        <pt x="387" y="345" on="0"/>
        <pt x="377" y="379" on="0"/>
        <pt x="355" y="406" on="0"/>
        <pt x="321" y="423" on="0"/>
        <pt x="298" y="423" on="1"/>
        <pt x="295" y="423" on="0"/>
        <pt x="272" y="422" on="0"/>
        <pt x="239" y="415" on="0"/>
        <pt x="203" y="400" on="0"/>
        <pt x="187" y="387" on="1"/>
        <pt x="189" y="387" on="0"/>
        <pt x="201" y="383" on="0"/>
        <pt x="213" y="375" on="0"/>
        <pt x="223" y="359" on="0"/>
        <pt x="223" y="347" on="1"/>
        <pt x="223" y="324" on="0"/>
        <pt x="191" y="294" on="0"/>
        <pt x="171" y="294" on="1"/>
        <pt x="151" y="294" on="0"/>
        <pt x="129" y="316" on="0"/>
        <pt x="129" y="334" on="1"/>
        <pt x="129" y="354" on="0"/>
        <pt x="152" y="394" on="0"/>
        <pt x="197" y="427" on="0"/>
        <pt x="261" y="448" on="0"/>
        <pt x="301" y="448" on="1"/>
        <pt x="338" y="448" on="0"/>
        <pt x="390" y="430" on="0"/>
        <pt x="425" y="405" on="0"/>
        <pt x="444" y="380" on="0"/>
        <pt x="448" y="373" on="1"/>
        <pt x="455" y="381" on="0"/>
        <pt x="485" y="406" on="0"/>
        <pt x="527" y="430" on="0"/>
        <pt x="582" y="448" on="0"/>
        <pt x="613" y="448" on="1"/>
        <pt x="637" y="448" on="0"/>
        <pt x="688" y="435" on="0"/>
        <pt x="730" y="400" on="0"/>
        <pt x="757" y="341" on="0"/>
        <pt x="757" y="295" on="1"/>
        <pt x="757" y="270" on="0"/>
        <pt x="754" y="243" on="0"/>
        <pt x="747" y="231" on="0"/>
        <pt x="734" y="229" on="0"/>
        <pt x="725" y="229" on="1"/>
      </contour>
      <contour>
        <pt x="687" y="253" on="1"/>
        <pt x="687" y="254" on="0"/>
        <pt x="689" y="266" on="0"/>
        <pt x="690" y="283" on="0"/>
        <pt x="692" y="302" on="0"/>
        <pt x="692" y="310" on="1"/>
        <pt x="692" y="316" on="0"/>
        <pt x="690" y="353" on="0"/>
        <pt x="675" y="392" on="0"/>
        <pt x="642" y="423" on="0"/>
        <pt x="612" y="423" on="1"/>
        <pt x="594" y="423" on="0"/>
        <pt x="548" y="406" on="0"/>
        <pt x="502" y="367" on="0"/>
        <pt x="463" y="301" on="0"/>
        <pt x="452" y="253" on="1"/>
      </contour>
      <contour>
        <pt x="371" y="227" on="1"/>
        <pt x="313" y="224" on="0"/>
        <pt x="234" y="200" on="0"/>
        <pt x="183" y="168" on="0"/>
        <pt x="155" y="132" on="0"/>
        <pt x="142" y="101" on="0"/>
        <pt x="140" y="81" on="0"/>
        <pt x="140" y="80" on="1"/>
        <pt x="140" y="51" on="0"/>
        <pt x="182" y="14" on="0"/>
        <pt x="216" y="14" on="1"/>
        <pt x="248" y="14" on="0"/>
        <pt x="304" y="38" on="0"/>
        <pt x="346" y="77" on="0"/>
        <pt x="370" y="124" on="0"/>
        <pt x="370" y="147" on="1"/>
        <pt x="370" y="148" on="0"/>
        <pt x="367" y="175" on="0"/>
        <pt x="367" y="182" on="1"/>
        <pt x="367" y="188" on="0"/>
        <pt x="367" y="197" on="0"/>
        <pt x="368" y="206" on="0"/>
        <pt x="370" y="217" on="0"/>
      </contour>
    </TTGlyph>
    <TTGlyph name="ampersand" xMin="63" yMin="-22" xMax="819" yMax="716">
      <contour>
        <pt x="599" y="431" on="1"/>
        <pt x="642" y="429" on="0"/>
        <pt x="693" y="428" on="0"/>
        <pt x="719" y="428" on="1"/>
        <pt x="745" y="428" on="0"/>
        <pt x="793" y="429" on="0"/>
        <pt x="819" y="431" on="1"/>
        <pt x="817" y="423" on="0"/>
        <pt x="816" y="408" on="0"/>
        <pt x="814" y="400" on="1"/>
        <pt x="772" y="400" on="0"/>
        <pt x="725" y="378" on="0"/>
        <pt x="711" y="369" on="1"/>
        <pt x="695" y="358" on="0"/>
        <pt x="663" y="316" on="0"/>
        <pt x="613" y="250" on="0"/>
        <pt x="536" y="157" on="0"/>
        <pt x="475" y="95" on="1"/>
        <pt x="488" y="79" on="0"/>
        <pt x="515" y="48" on="0"/>
        <pt x="545" y="24" on="0"/>
        <pt x="580" y="9" on="0"/>
        <pt x="600" y="9" on="1"/>
        <pt x="622" y="9" on="0"/>
        <pt x="666" y="25" on="0"/>
        <pt x="703" y="55" on="0"/>
        <pt x="729" y="96" on="0"/>
        <pt x="733" y="121" on="1"/>
        <pt x="761" y="121" on="1"/>
        <pt x="755" y="89" on="0"/>
        <pt x="723" y="36" on="0"/>
        <pt x="677" y="-1" on="0"/>
        <pt x="622" y="-22" on="0"/>
        <pt x="593" y="-22" on="1"/>
        <pt x="549" y="-22" on="0"/>
        <pt x="462" y="15" on="0"/>
        <pt x="425" y="53" on="1"/>
        <pt x="382" y="20" on="0"/>
        <pt x="282" y="-22" on="0"/>
        <pt x="228" y="-22" on="1"/>
        <pt x="193" y="-22" on="0"/>
        <pt x="132" y="-3" on="0"/>
        <pt x="88" y="32" on="0"/>
        <pt x="63" y="81" on="0"/>
        <pt x="63" y="110" on="1"/>
        <pt x="63" y="134" on="0"/>
        <pt x="76" y="173" on="0"/>
        <pt x="101" y="207" on="0"/>
        <pt x="136" y="239" on="0"/>
        <pt x="157" y="258" on="1"/>
        <pt x="266" y="352" on="1"/>
        <pt x="256" y="394" on="0"/>
        <pt x="252" y="455" on="0"/>
        <pt x="252" y="473" on="1"/>
        <pt x="252" y="508" on="0"/>
        <pt x="258" y="559" on="0"/>
        <pt x="269" y="596" on="0"/>
        <pt x="282" y="624" on="0"/>
        <pt x="289" y="635" on="1"/>
        <pt x="312" y="670" on="0"/>
        <pt x="385" y="716" on="0"/>
        <pt x="425" y="716" on="1"/>
        <pt x="463" y="716" on="0"/>
        <pt x="498" y="661" on="0"/>
        <pt x="498" y="618" on="1"/>
        <pt x="498" y="603" on="0"/>
        <pt x="493" y="564" on="0"/>
        <pt x="463" y="510" on="0"/>
        <pt x="397" y="435" on="0"/>
        <pt x="337" y="383" on="1"/>
        <pt x="346" y="340" on="0"/>
        <pt x="384" y="250" on="0"/>
        <pt x="424" y="175" on="0"/>
        <pt x="456" y="123" on="0"/>
        <pt x="459" y="119" on="1"/>
        <pt x="469" y="127" on="0"/>
        <pt x="495" y="154" on="0"/>
        <pt x="519" y="181" on="0"/>
        <pt x="537" y="202" on="0"/>
        <pt x="538" y="203" on="1"/>
        <pt x="567" y="237" on="0"/>
        <pt x="622" y="306" on="0"/>
        <pt x="648" y="341" on="1"/>
        <pt x="655" y="352" on="0"/>
        <pt x="655" y="362" on="1"/>
        <pt x="655" y="376" on="0"/>
        <pt x="637" y="392" on="0"/>
        <pt x="614" y="400" on="0"/>
        <pt x="595" y="401" on="0"/>
        <pt x="593" y="401" on="1"/>
      </contour>
      <contour>
        <pt x="331" y="411" on="1"/>
        <pt x="383" y="458" on="0"/>
        <pt x="440" y="523" on="0"/>
        <pt x="466" y="570" on="0"/>
        <pt x="470" y="604" on="0"/>
        <pt x="470" y="620" on="1"/>
        <pt x="470" y="648" on="0"/>
        <pt x="453" y="691" on="0"/>
        <pt x="426" y="691" on="1"/>
        <pt x="417" y="691" on="0"/>
        <pt x="383" y="680" on="0"/>
        <pt x="348" y="640" on="0"/>
        <pt x="323" y="563" on="0"/>
        <pt x="323" y="497" on="1"/>
        <pt x="323" y="466" on="0"/>
        <pt x="331" y="412" on="0"/>
      </contour>
      <contour>
        <pt x="272" y="325" on="1"/>
        <pt x="246" y="302" on="0"/>
        <pt x="217" y="276" on="0"/>
        <pt x="202" y="261" on="0"/>
        <pt x="195" y="252" on="0"/>
        <pt x="191" y="246" on="1"/>
        <pt x="171" y="219" on="0"/>
        <pt x="152" y="150" on="0"/>
        <pt x="152" y="120" on="1"/>
        <pt x="152" y="113" on="0"/>
        <pt x="155" y="77" on="0"/>
        <pt x="171" y="39" on="0"/>
        <pt x="204" y="9" on="0"/>
        <pt x="235" y="9" on="1"/>
        <pt x="262" y="9" on="0"/>
        <pt x="313" y="23" on="0"/>
        <pt x="358" y="42" on="0"/>
        <pt x="394" y="64" on="0"/>
        <pt x="406" y="73" on="1"/>
        <pt x="396" y="85" on="0"/>
        <pt x="363" y="130" on="0"/>
        <pt x="326" y="194" on="0"/>
        <pt x="287" y="276" on="0"/>
      </contour>
    </TTGlyph>
    <TTGlyph name="asterisk" xMin="140" yMin="319" xMax="551" yMax="750">
      <contour>
        <pt x="344" y="359" on="1"/>
        <pt x="344" y="355" on="0"/>
        <pt x="342" y="341" on="0"/>
        <pt x="335" y="328" on="0"/>
        <pt x="322" y="319" on="0"/>
        <pt x="310" y="319" on="1"/>
        <pt x="301" y="319" on="0"/>
        <pt x="285" y="330" on="0"/>
        <pt x="285" y="342" on="1"/>
        <pt x="285" y="344" on="0"/>
        <pt x="286" y="351" on="0"/>
        <pt x="289" y="362" on="1"/>
        <pt x="328" y="511" on="1"/>
        <pt x="172" y="412" on="1"/>
        <pt x="165" y="412" on="0"/>
        <pt x="140" y="419" on="0"/>
        <pt x="140" y="438" on="1"/>
        <pt x="140" y="453" on="0"/>
        <pt x="158" y="465" on="0"/>
        <pt x="169" y="470" on="1"/>
        <pt x="319" y="534" on="1"/>
        <pt x="190" y="599" on="1"/>
        <pt x="181" y="604" on="0"/>
        <pt x="171" y="611" on="0"/>
        <pt x="171" y="622" on="1"/>
        <pt x="171" y="635" on="0"/>
        <pt x="191" y="657" on="0"/>
        <pt x="205" y="657" on="1"/>
        <pt x="210" y="657" on="0"/>
        <pt x="218" y="655" on="0"/>
        <pt x="227" y="647" on="1"/>
        <pt x="336" y="558" on="1"/>
        <pt x="347" y="709" on="1"/>
        <pt x="347" y="713" on="0"/>
        <pt x="349" y="727" on="0"/>
        <pt x="356" y="740" on="0"/>
        <pt x="369" y="750" on="0"/>
        <pt x="381" y="750" on="1"/>
        <pt x="392" y="750" on="0"/>
        <pt x="406" y="737" on="0"/>
        <pt x="406" y="727" on="1"/>
        <pt x="406" y="726" on="0"/>
        <pt x="403" y="715" on="0"/>
        <pt x="403" y="713" on="1"/>
        <pt x="363" y="558" on="1"/>
        <pt x="519" y="657" on="1"/>
        <pt x="522" y="657" on="0"/>
        <pt x="533" y="656" on="0"/>
        <pt x="544" y="651" on="0"/>
        <pt x="551" y="641" on="0"/>
        <pt x="551" y="631" on="1"/>
        <pt x="551" y="619" on="0"/>
        <pt x="536" y="604" on="0"/>
        <pt x="525" y="599" on="1"/>
        <pt x="372" y="534" on="1"/>
        <pt x="500" y="471" on="1"/>
        <pt x="509" y="466" on="0"/>
        <pt x="520" y="458" on="0"/>
        <pt x="520" y="447" on="1"/>
        <pt x="520" y="433" on="0"/>
        <pt x="499" y="412" on="0"/>
        <pt x="486" y="412" on="1"/>
        <pt x="481" y="412" on="0"/>
        <pt x="473" y="414" on="0"/>
        <pt x="464" y="422" on="1"/>
        <pt x="355" y="511" on="1"/>
      </contour>
    </TTGlyph>
    <TTGlyph name="at" xMin="110" yMin="-11" xMax="804" yMax="705">
      <contour>
        <pt x="655" y="483" on="1"/>
        <pt x="666" y="483" on="0"/>
        <pt x="682" y="480" on="0"/>
        <pt x="682" y="471" on="1"/>
        <pt x="682" y="470" on="0"/>
        <pt x="678" y="441" on="0"/>
        <pt x="672" y="406" on="0"/>
        <pt x="667" y="375" on="0"/>
        <pt x="666" y="370" on="1"/>
        <pt x="662" y="344" on="0"/>
        <pt x="651" y="283" on="0"/>
        <pt x="643" y="231" on="0"/>
        <pt x="637" y="193" on="0"/>
        <pt x="637" y="190" on="1"/>
        <pt x="637" y="180" on="0"/>
        <pt x="646" y="152" on="0"/>
        <pt x="662" y="152" on="1"/>
        <pt x="680" y="152" on="0"/>
        <pt x="708" y="169" on="0"/>
        <pt x="729" y="196" on="0"/>
        <pt x="743" y="228" on="0"/>
        <pt x="748" y="244" on="1"/>
        <pt x="753" y="259" on="0"/>
        <pt x="762" y="301" on="0"/>
        <pt x="771" y="346" on="0"/>
        <pt x="776" y="390" on="0"/>
        <pt x="776" y="407" on="1"/>
        <pt x="776" y="466" on="0"/>
        <pt x="737" y="565" on="0"/>
        <pt x="668" y="639" on="0"/>
        <pt x="571" y="680" on="0"/>
        <pt x="514" y="680" on="1"/>
        <pt x="442" y="680" on="0"/>
        <pt x="307" y="616" on="0"/>
        <pt x="202" y="508" on="0"/>
        <pt x="138" y="365" on="0"/>
        <pt x="138" y="287" on="1"/>
        <pt x="138" y="231" on="0"/>
        <pt x="174" y="132" on="0"/>
        <pt x="243" y="57" on="0"/>
        <pt x="341" y="14" on="0"/>
        <pt x="404" y="14" on="1"/>
        <pt x="476" y="14" on="0"/>
        <pt x="616" y="45" on="0"/>
        <pt x="682" y="72" on="1"/>
        <pt x="697" y="79" on="0"/>
        <pt x="708" y="81" on="0"/>
        <pt x="719" y="81" on="1"/>
        <pt x="727" y="81" on="1"/>
        <pt x="739" y="81" on="0"/>
        <pt x="752" y="78" on="0"/>
        <pt x="752" y="70" on="1"/>
        <pt x="752" y="65" on="0"/>
        <pt x="746" y="60" on="0"/>
        <pt x="743" y="58" on="1"/>
        <pt x="712" y="45" on="0"/>
        <pt x="635" y="21" on="0"/>
        <pt x="548" y="1" on="0"/>
        <pt x="453" y="-11" on="0"/>
        <pt x="405" y="-11" on="1"/>
        <pt x="335" y="-11" on="0"/>
        <pt x="226" y="37" on="0"/>
        <pt x="150" y="118" on="0"/>
        <pt x="110" y="227" on="0"/>
        <pt x="110" y="287" on="1"/>
        <pt x="110" y="371" on="0"/>
        <pt x="178" y="522" on="0"/>
        <pt x="291" y="637" on="0"/>
        <pt x="437" y="705" on="0"/>
        <pt x="514" y="705" on="1"/>
        <pt x="578" y="705" on="0"/>
        <pt x="684" y="659" on="0"/>
        <pt x="761" y="579" on="0"/>
        <pt x="804" y="470" on="0"/>
        <pt x="804" y="407" on="1"/>
        <pt x="804" y="386" on="0"/>
        <pt x="798" y="336" on="0"/>
        <pt x="788" y="286" on="0"/>
        <pt x="775" y="241" on="0"/>
        <pt x="769" y="224" on="1"/>
        <pt x="752" y="181" on="0"/>
        <pt x="700" y="127" on="0"/>
        <pt x="657" y="127" on="1"/>
        <pt x="653" y="127" on="0"/>
        <pt x="625" y="130" on="0"/>
        <pt x="594" y="143" on="0"/>
        <pt x="567" y="170" on="0"/>
        <pt x="564" y="194" on="1"/>
        <pt x="557" y="187" on="0"/>
        <pt x="531" y="164" on="0"/>
        <pt x="494" y="143" on="0"/>
        <pt x="448" y="127" on="0"/>
        <pt x="421" y="127" on="1"/>
        <pt x="387" y="127" on="0"/>
        <pt x="325" y="152" on="0"/>
        <pt x="277" y="199" on="0"/>
        <pt x="249" y="267" on="0"/>
        <pt x="249" y="310" on="1"/>
        <pt x="249" y="363" on="0"/>
        <pt x="291" y="456" on="0"/>
        <pt x="359" y="526" on="0"/>
        <pt x="445" y="567" on="0"/>
        <pt x="490" y="567" on="1"/>
        <pt x="536" y="567" on="0"/>
        <pt x="604" y="520" on="0"/>
        <pt x="621" y="483" on="1"/>
      </contour>
      <contour>
        <pt x="603" y="437" on="1"/>
        <pt x="604" y="451" on="1"/>
        <pt x="604" y="454" on="0"/>
        <pt x="592" y="484" on="0"/>
        <pt x="565" y="516" on="0"/>
        <pt x="522" y="542" on="0"/>
        <pt x="492" y="542" on="1"/>
        <pt x="461" y="542" on="0"/>
        <pt x="400" y="502" on="0"/>
        <pt x="352" y="435" on="0"/>
        <pt x="322" y="347" on="0"/>
        <pt x="322" y="298" on="1"/>
        <pt x="322" y="232" on="0"/>
        <pt x="378" y="152" on="0"/>
        <pt x="424" y="152" on="1"/>
        <pt x="434" y="152" on="0"/>
        <pt x="466" y="158" on="0"/>
        <pt x="505" y="177" on="0"/>
        <pt x="549" y="214" on="0"/>
        <pt x="571" y="245" on="1"/>
      </contour>
    </TTGlyph>
    <TTGlyph name="b" xMin="107" yMin="-11" xMax="575" yMax="694">
      <contour>
        <pt x="242" y="381" on="1"/>
        <pt x="247" y="386" on="0"/>
        <pt x="272" y="406" on="0"/>
        <pt x="309" y="426" on="0"/>
        <pt x="359" y="442" on="0"/>
        <pt x="389" y="442" on="1"/>
        <pt x="428" y="442" on="0"/>
        <pt x="496" y="414" on="0"/>
        <pt x="546" y="364" on="0"/>
        <pt x="575" y="294" on="0"/>
        <pt x="575" y="252" on="1"/>
        <pt x="575" y="198" on="0"/>
        <pt x="528" y="102" on="0"/>
        <pt x="453" y="30" on="0"/>
        <pt x="357" y="-11" on="0"/>
        <pt x="307" y="-11" on="1"/>
        <pt x="262" y="-11" on="0"/>
        <pt x="201" y="29" on="0"/>
        <pt x="183" y="61" on="1"/>
        <pt x="165" y="39" on="0"/>
        <pt x="147" y="16" on="0"/>
        <pt x="140" y="7" on="0"/>
        <pt x="139" y="5" on="0"/>
        <pt x="136" y="3" on="1"/>
        <pt x="134" y="1" on="0"/>
        <pt x="127" y="0" on="0"/>
        <pt x="107" y="0" on="1"/>
        <pt x="206" y="595" on="1"/>
        <pt x="208" y="608" on="0"/>
        <pt x="209" y="615" on="0"/>
        <pt x="209" y="619" on="1"/>
        <pt x="209" y="639" on="0"/>
        <pt x="183" y="652" on="0"/>
        <pt x="139" y="652" on="1"/>
        <pt x="144" y="683" on="1"/>
        <pt x="294" y="694" on="1"/>
      </contour>
      <contour>
        <pt x="219" y="227" on="1"/>
        <pt x="218" y="221" on="0"/>
        <pt x="212" y="182" on="0"/>
        <pt x="204" y="138" on="0"/>
        <pt x="198" y="102" on="0"/>
        <pt x="198" y="100" on="1"/>
        <pt x="198" y="95" on="0"/>
        <pt x="209" y="67" on="0"/>
        <pt x="233" y="37" on="0"/>
        <pt x="273" y="14" on="0"/>
        <pt x="303" y="14" on="1"/>
        <pt x="340" y="14" on="0"/>
        <pt x="420" y="58" on="0"/>
        <pt x="448" y="103" on="1"/>
        <pt x="464" y="129" on="0"/>
        <pt x="482" y="192" on="0"/>
        <pt x="491" y="246" on="0"/>
        <pt x="493" y="284" on="0"/>
        <pt x="493" y="285" on="1"/>
        <pt x="493" y="321" on="0"/>
        <pt x="473" y="372" on="0"/>
        <pt x="442" y="403" on="0"/>
        <pt x="403" y="417" on="0"/>
        <pt x="384" y="417" on="1"/>
        <pt x="375" y="417" on="0"/>
        <pt x="342" y="413" on="0"/>
        <pt x="302" y="396" on="0"/>
        <pt x="258" y="364" on="0"/>
        <pt x="237" y="336" on="1"/>
      </contour>
    </TTGlyph>
    <TTGlyph name="bracketleft" xMin="78" yMin="-250" xMax="387" yMax="750">
      <contour>
        <pt x="129" y="-207" on="1"/>
        <pt x="227" y="-207" on="1"/>
        <pt x="220" y="-250" on="1"/>
        <pt x="78" y="-250" on="1"/>
        <pt x="245" y="750" on="1"/>
        <pt x="387" y="750" on="1"/>
        <pt x="380" y="707" on="1"/>
        <pt x="281" y="707" on="1"/>
      </contour>
    </TTGlyph>
    <TTGlyph name="bracketright" xMin="-20" yMin="-250" xMax="289" yMax="750">
      <contour>
        <pt x="122" y="-250" on="1"/>
        <pt x="-20" y="-250" on="1"/>
        <pt x="-13" y="-207" on="1"/>
        <pt x="87" y="-207" on="1"/>
        <pt x="239" y="707" on="1"/>
        <pt x="140" y="707" on="1"/>
        <pt x="147" y="750" on="1"/>
        <pt x="289" y="750" on="1"/>
      </contour>
    </TTGlyph>
    <TTGlyph name="breve" xMin="215" yMin="520" xMax="527" yMax="694">
      <contour>
        <pt x="527" y="694" on="1"/>
        <pt x="520" y="656" on="0"/>
        <pt x="484" y="592" on="0"/>
        <pt x="434" y="546" on="0"/>
        <pt x="374" y="520" on="0"/>
        <pt x="343" y="520" on="1"/>
        <pt x="314" y="520" on="0"/>
        <pt x="267" y="542" on="0"/>
        <pt x="233" y="580" on="0"/>
        <pt x="215" y="632" on="0"/>
        <pt x="215" y="662" on="1"/>
        <pt x="215" y="663" on="0"/>
        <pt x="215" y="682" on="0"/>
        <pt x="217" y="690" on="1"/>
        <pt x="218" y="692" on="0"/>
        <pt x="225" y="694" on="0"/>
        <pt x="243" y="694" on="1"/>
        <pt x="241" y="687" on="0"/>
        <pt x="241" y="677" on="0"/>
        <pt x="241" y="672" on="1"/>
        <pt x="241" y="647" on="0"/>
        <pt x="258" y="606" on="0"/>
        <pt x="288" y="577" on="0"/>
        <pt x="328" y="561" on="0"/>
        <pt x="350" y="561" on="1"/>
        <pt x="376" y="561" on="0"/>
        <pt x="425" y="580" on="0"/>
        <pt x="467" y="615" on="0"/>
        <pt x="496" y="664" on="0"/>
        <pt x="502" y="694" on="1"/>
      </contour>
    </TTGlyph>
    <TTGlyph name="c" xMin="67" yMin="-11" xMax="475" yMax="448">
      <contour>
        <pt x="430" y="393" on="1"/>
        <pt x="418" y="403" on="0"/>
        <pt x="387" y="414" on="0"/>
        <pt x="358" y="419" on="0"/>
        <pt x="335" y="420" on="0"/>
        <pt x="332" y="420" on="1"/>
        <pt x="289" y="420" on="0"/>
        <pt x="222" y="373" on="0"/>
        <pt x="175" y="298" on="0"/>
        <pt x="151" y="205" on="0"/>
        <pt x="151" y="160" on="1"/>
        <pt x="151" y="123" on="0"/>
        <pt x="170" y="69" on="0"/>
        <pt x="202" y="34" on="0"/>
        <pt x="244" y="17" on="0"/>
        <pt x="267" y="17" on="1"/>
        <pt x="278" y="17" on="0"/>
        <pt x="314" y="22" on="0"/>
        <pt x="356" y="43" on="0"/>
        <pt x="399" y="83" on="0"/>
        <pt x="417" y="117" on="1"/>
        <pt x="421" y="125" on="0"/>
        <pt x="426" y="131" on="0"/>
        <pt x="433" y="131" on="1"/>
        <pt x="435" y="131" on="0"/>
        <pt x="446" y="128" on="0"/>
        <pt x="446" y="120" on="1"/>
        <pt x="446" y="116" on="0"/>
        <pt x="425" y="74" on="0"/>
        <pt x="380" y="27" on="0"/>
        <pt x="308" y="-11" on="0"/>
        <pt x="257" y="-11" on="1"/>
        <pt x="217" y="-11" on="0"/>
        <pt x="147" y="17" on="0"/>
        <pt x="96" y="67" on="0"/>
        <pt x="67" y="138" on="0"/>
        <pt x="67" y="180" on="1"/>
        <pt x="67" y="230" on="0"/>
        <pt x="109" y="327" on="0"/>
        <pt x="181" y="402" on="0"/>
        <pt x="277" y="448" on="0"/>
        <pt x="331" y="448" on="1"/>
        <pt x="361" y="448" on="0"/>
        <pt x="413" y="437" on="0"/>
        <pt x="452" y="414" on="0"/>
        <pt x="475" y="381" on="0"/>
        <pt x="475" y="359" on="1"/>
        <pt x="475" y="329" on="0"/>
        <pt x="441" y="300" on="0"/>
        <pt x="422" y="300" on="1"/>
        <pt x="402" y="300" on="0"/>
        <pt x="380" y="322" on="0"/>
        <pt x="380" y="340" on="1"/>
        <pt x="380" y="346" on="0"/>
        <pt x="384" y="363" on="0"/>
        <pt x="396" y="379" on="0"/>
        <pt x="415" y="391" on="0"/>
      </contour>
    </TTGlyph>
    <TTGlyph name="caron" xMin="223" yMin="516" xMax="495" yMax="640">
      <contour>
        <pt x="484" y="640" on="1"/>
        <pt x="495" y="616" on="1"/>
        <pt x="342" y="516" on="1"/>
        <pt x="223" y="616" on="1"/>
        <pt x="242" y="640" on="1"/>
        <pt x="352" y="571" on="1"/>
      </contour>
    </TTGlyph>
    <TTGlyph name="cedilla" xMin="100" yMin="-205" xMax="359" yMax="-22">
      <contour>
        <pt x="285" y="-52" on="1"/>
        <pt x="317" y="-58" on="0"/>
        <pt x="359" y="-86" on="0"/>
        <pt x="359" y="-114" on="1"/>
        <pt x="359" y="-149" on="0"/>
        <pt x="305" y="-188" on="0"/>
        <pt x="258" y="-196" on="1"/>
        <pt x="210" y="-204" on="0"/>
        <pt x="132" y="-203" on="0"/>
        <pt x="100" y="-205" on="1"/>
        <pt x="104" y="-180" on="1"/>
        <pt x="121" y="-179" on="0"/>
        <pt x="152" y="-180" on="0"/>
        <pt x="169" y="-178" on="1"/>
        <pt x="183" y="-177" on="0"/>
        <pt x="222" y="-173" on="0"/>
        <pt x="259" y="-161" on="0"/>
        <pt x="285" y="-138" on="0"/>
        <pt x="285" y="-118" on="1"/>
        <pt x="285" y="-103" on="0"/>
        <pt x="268" y="-85" on="0"/>
        <pt x="243" y="-75" on="0"/>
        <pt x="217" y="-70" on="0"/>
        <pt x="208" y="-70" on="1"/>
        <pt x="216" y="-22" on="1"/>
        <pt x="290" y="-22" on="1"/>
      </contour>
    </TTGlyph>
    <TTGlyph name="circumflex" xMin="212" yMin="538" xMax="488" yMax="694">
      <contour>
        <pt x="488" y="559" on="1"/>
        <pt x="465" y="538" on="1"/>
        <pt x="363" y="638" on="1"/>
        <pt x="227" y="538" on="1"/>
        <pt x="212" y="559" on="1"/>
        <pt x="372" y="694" on="1"/>
      </contour>
    </TTGlyph>
    <TTGlyph name="colon" xMin="96" yMin="0" xMax="259" yMax="431">
      <contour>
        <pt x="259" y="384" on="1"/>
        <pt x="259" y="356" on="0"/>
        <pt x="219" y="323" on="0"/>
        <pt x="198" y="323" on="1"/>
        <pt x="176" y="323" on="0"/>
        <pt x="150" y="352" on="0"/>
        <pt x="150" y="370" on="1"/>
        <pt x="150" y="393" on="0"/>
        <pt x="186" y="431" on="0"/>
        <pt x="212" y="431" on="1"/>
        <pt x="229" y="431" on="0"/>
        <pt x="259" y="408" on="0"/>
      </contour>
      <contour>
        <pt x="206" y="61" on="1"/>
        <pt x="206" y="38" on="0"/>
        <pt x="170" y="0" on="0"/>
        <pt x="144" y="0" on="1"/>
        <pt x="120" y="0" on="0"/>
        <pt x="96" y="31" on="0"/>
        <pt x="96" y="47" on="1"/>
        <pt x="96" y="70" on="0"/>
        <pt x="132" y="108" on="0"/>
        <pt x="158" y="108" on="1"/>
        <pt x="182" y="108" on="0"/>
        <pt x="206" y="77" on="0"/>
      </contour>
    </TTGlyph>
    <TTGlyph name="comma" xMin="72" yMin="-194" xMax="210" yMax="108">
      <contour>
        <pt x="184" y="14" on="1"/>
        <pt x="179" y="9" on="0"/>
        <pt x="163" y="0" on="0"/>
        <pt x="144" y="0" on="1"/>
        <pt x="118" y="0" on="0"/>
        <pt x="96" y="31" on="0"/>
        <pt x="96" y="46" on="1"/>
        <pt x="96" y="56" on="0"/>
        <pt x="104" y="78" on="0"/>
        <pt x="120" y="96" on="0"/>
        <pt x="143" y="108" on="0"/>
        <pt x="158" y="108" on="1"/>
        <pt x="178" y="108" on="0"/>
        <pt x="199" y="89" on="0"/>
        <pt x="208" y="64" on="0"/>
        <pt x="210" y="39" on="0"/>
        <pt x="210" y="34" on="1"/>
        <pt x="210" y="-13" on="0"/>
        <pt x="175" y="-96" on="0"/>
        <pt x="130" y="-158" on="0"/>
        <pt x="90" y="-194" on="0"/>
        <pt x="84" y="-194" on="1"/>
        <pt x="79" y="-194" on="0"/>
        <pt x="72" y="-186" on="0"/>
        <pt x="72" y="-181" on="1"/>
        <pt x="72" y="-175" on="0"/>
        <pt x="79" y="-170" on="1"/>
        <pt x="121" y="-134" on="0"/>
        <pt x="176" y="-40" on="0"/>
      </contour>
    </TTGlyph>
    <TTGlyph name="d" xMin="67" yMin="-11" xMax="579" yMax="694">
      <contour>
        <pt x="478" y="89" on="1"/>
        <pt x="476" y="76" on="0"/>
        <pt x="475" y="69" on="0"/>
        <pt x="475" y="64" on="1"/>
        <pt x="475" y="54" on="0"/>
        <pt x="480" y="42" on="0"/>
        <pt x="495" y="34" on="0"/>
        <pt x="522" y="31" on="0"/>
        <pt x="545" y="31" on="1"/>
        <pt x="543" y="23" on="0"/>
        <pt x="542" y="8" on="0"/>
        <pt x="540" y="0" on="1"/>
        <pt x="387" y="-11" on="1"/>
        <pt x="397" y="51" on="1"/>
        <pt x="374" y="29" on="0"/>
        <pt x="301" y="-11" on="0"/>
        <pt x="253" y="-11" on="1"/>
        <pt x="216" y="-11" on="0"/>
        <pt x="148" y="16" on="0"/>
        <pt x="97" y="65" on="0"/>
        <pt x="67" y="136" on="0"/>
        <pt x="67" y="179" on="1"/>
        <pt x="67" y="233" on="0"/>
        <pt x="113" y="329" on="0"/>
        <pt x="189" y="401" on="0"/>
        <pt x="285" y="442" on="0"/>
        <pt x="335" y="442" on="1"/>
        <pt x="361" y="442" on="0"/>
        <pt x="400" y="429" on="0"/>
        <pt x="429" y="411" on="0"/>
        <pt x="449" y="390" on="0"/>
        <pt x="455" y="382" on="1"/>
        <pt x="491" y="595" on="1"/>
        <pt x="493" y="607" on="0"/>
        <pt x="494" y="614" on="0"/>
        <pt x="494" y="619" on="1"/>
        <pt x="494" y="639" on="0"/>
        <pt x="468" y="652" on="0"/>
        <pt x="424" y="652" on="1"/>
        <pt x="429" y="683" on="1"/>
        <pt x="579" y="694" on="1"/>
      </contour>
      <contour>
        <pt x="445" y="340" on="1"/>
        <pt x="445" y="342" on="0"/>
        <pt x="435" y="367" on="0"/>
        <pt x="410" y="395" on="0"/>
        <pt x="369" y="417" on="0"/>
        <pt x="339" y="417" on="1"/>
        <pt x="301" y="417" on="0"/>
        <pt x="224" y="375" on="0"/>
        <pt x="198" y="335" on="1"/>
        <pt x="180" y="308" on="0"/>
        <pt x="161" y="244" on="0"/>
        <pt x="151" y="187" on="0"/>
        <pt x="149" y="147" on="0"/>
        <pt x="149" y="146" on="1"/>
        <pt x="149" y="110" on="0"/>
        <pt x="168" y="60" on="0"/>
        <pt x="199" y="29" on="0"/>
        <pt x="238" y="14" on="0"/>
        <pt x="258" y="14" on="1"/>
        <pt x="278" y="14" on="0"/>
        <pt x="327" y="31" on="0"/>
        <pt x="372" y="59" on="0"/>
        <pt x="405" y="98" on="0"/>
        <pt x="409" y="119" on="1"/>
      </contour>
    </TTGlyph>
    <TTGlyph name="dieresis" xMin="209" yMin="568" xMax="511" yMax="670">
      <contour>
        <pt x="312" y="625" on="1"/>
        <pt x="312" y="604" on="0"/>
        <pt x="278" y="568" on="0"/>
        <pt x="254" y="568" on="1"/>
        <pt x="238" y="568" on="0"/>
        <pt x="209" y="590" on="0"/>
        <pt x="209" y="613" on="1"/>
        <pt x="209" y="639" on="0"/>
        <pt x="246" y="670" on="0"/>
        <pt x="266" y="670" on="1"/>
        <pt x="287" y="670" on="0"/>
        <pt x="312" y="642" on="0"/>
      </contour>
      <contour>
        <pt x="511" y="625" on="1"/>
        <pt x="511" y="605" on="0"/>
        <pt x="478" y="568" on="0"/>
        <pt x="453" y="568" on="1"/>
        <pt x="436" y="568" on="0"/>
        <pt x="408" y="590" on="0"/>
        <pt x="408" y="613" on="1"/>
        <pt x="408" y="639" on="0"/>
        <pt x="445" y="670" on="0"/>
        <pt x="465" y="670" on="1"/>
        <pt x="486" y="670" on="0"/>
        <pt x="511" y="643" on="0"/>
      </contour>
    </TTGlyph>
    <TTGlyph name="dollar" xMin="84" yMin="-56" xMax="546" yMax="750">
      <contour>
        <pt x="339" y="403" on="1"/>
        <pt x="353" y="400" on="0"/>
        <pt x="404" y="383" on="0"/>
        <pt x="454" y="346" on="0"/>
        <pt x="491" y="281" on="0"/>
        <pt x="491" y="228" on="1"/>
        <pt x="491" y="194" on="0"/>
        <pt x="466" y="118" on="0"/>
        <pt x="413" y="49" on="0"/>
        <pt x="331" y="-2" on="0"/>
        <pt x="274" y="-10" on="1"/>
        <pt x="272" y="-11" on="0"/>
        <pt x="270" y="-15" on="0"/>
        <pt x="268" y="-26" on="1"/>
        <pt x="263" y="-56" on="1"/>
        <pt x="232" y="-56" on="1"/>
        <pt x="239" y="-10" on="1"/>
        <pt x="167" y="-6" on="0"/>
        <pt x="84" y="76" on="0"/>
        <pt x="84" y="145" on="1"/>
        <pt x="84" y="153" on="0"/>
        <pt x="86" y="182" on="0"/>
        <pt x="96" y="209" on="0"/>
        <pt x="119" y="229" on="0"/>
        <pt x="140" y="229" on="1"/>
        <pt x="156" y="229" on="0"/>
        <pt x="181" y="209" on="0"/>
        <pt x="181" y="189" on="1"/>
        <pt x="181" y="166" on="0"/>
        <pt x="149" y="136" on="0"/>
        <pt x="128" y="136" on="1"/>
        <pt x="122" y="136" on="0"/>
        <pt x="116" y="137" on="0"/>
        <pt x="113" y="138" on="1"/>
        <pt x="113" y="132" on="0"/>
        <pt x="116" y="112" on="0"/>
        <pt x="124" y="88" on="0"/>
        <pt x="140" y="62" on="0"/>
        <pt x="153" y="51" on="1"/>
        <pt x="167" y="40" on="0"/>
        <pt x="197" y="28" on="0"/>
        <pt x="223" y="22" on="0"/>
        <pt x="242" y="20" on="0"/>
        <pt x="244" y="20" on="1"/>
        <pt x="294" y="319" on="1"/>
        <pt x="263" y="327" on="0"/>
        <pt x="210" y="345" on="0"/>
        <pt x="183" y="373" on="1"/>
        <pt x="169" y="388" on="0"/>
        <pt x="140" y="443" on="0"/>
        <pt x="140" y="484" on="1"/>
        <pt x="140" y="524" on="0"/>
        <pt x="174" y="601" on="0"/>
        <pt x="233" y="662" on="0"/>
        <pt x="313" y="702" on="0"/>
        <pt x="359" y="705" on="1"/>
        <pt x="366" y="750" on="1"/>
        <pt x="397" y="750" on="1"/>
        <pt x="390" y="704" on="1"/>
        <pt x="419" y="703" on="0"/>
        <pt x="475" y="686" on="0"/>
        <pt x="519" y="651" on="0"/>
        <pt x="546" y="597" on="0"/>
        <pt x="546" y="558" on="1"/>
        <pt x="546" y="550" on="0"/>
        <pt x="544" y="523" on="0"/>
        <pt x="534" y="498" on="0"/>
        <pt x="512" y="479" on="0"/>
        <pt x="491" y="479" on="1"/>
        <pt x="474" y="479" on="0"/>
        <pt x="450" y="500" on="0"/>
        <pt x="450" y="519" on="1"/>
        <pt x="450" y="542" on="0"/>
        <pt x="483" y="572" on="0"/>
        <pt x="503" y="572" on="1"/>
        <pt x="507" y="572" on="0"/>
        <pt x="513" y="571" on="0"/>
        <pt x="517" y="570" on="1"/>
        <pt x="516" y="577" on="0"/>
        <pt x="509" y="609" on="0"/>
        <pt x="483" y="644" on="0"/>
        <pt x="430" y="672" on="0"/>
        <pt x="384" y="674" on="1"/>
      </contour>
      <contour>
        <pt x="353" y="673" on="1"/>
        <pt x="320" y="669" on="0"/>
        <pt x="263" y="641" on="0"/>
        <pt x="222" y="600" on="0"/>
        <pt x="198" y="549" on="0"/>
        <pt x="198" y="522" on="1"/>
        <pt x="198" y="489" on="0"/>
        <pt x="226" y="447" on="0"/>
        <pt x="263" y="423" on="0"/>
        <pt x="300" y="413" on="0"/>
        <pt x="309" y="411" on="1"/>
      </contour>
      <contour>
        <pt x="276" y="21" on="1"/>
        <pt x="311" y="26" on="0"/>
        <pt x="369" y="58" on="0"/>
        <pt x="411" y="105" on="0"/>
        <pt x="434" y="162" on="0"/>
        <pt x="434" y="190" on="1"/>
        <pt x="434" y="226" on="0"/>
        <pt x="407" y="271" on="0"/>
        <pt x="371" y="297" on="0"/>
        <pt x="334" y="309" on="0"/>
        <pt x="324" y="311" on="1"/>
      </contour>
    </TTGlyph>
    <TTGlyph name="dotaccent" xMin="190" yMin="562" xMax="299" yMax="670">
      <contour>
        <pt x="299" y="622" on="1"/>
        <pt x="299" y="597" on="0"/>
        <pt x="261" y="562" on="0"/>
        <pt x="238" y="562" on="1"/>
        <pt x="216" y="562" on="0"/>
        <pt x="190" y="591" on="0"/>
        <pt x="190" y="609" on="1"/>
        <pt x="190" y="633" on="0"/>
        <pt x="227" y="670" on="0"/>
        <pt x="251" y="670" on="1"/>
        <pt x="271" y="670" on="0"/>
        <pt x="299" y="645" on="0"/>
      </contour>
    </TTGlyph>
    <TTGlyph name="dotlessi" xMin="36" yMin="0" xMax="259" yMax="442">
      <contour>
        <pt x="197" y="77" on="1"/>
        <pt x="195" y="65" on="0"/>
        <pt x="194" y="59" on="0"/>
        <pt x="194" y="56" on="1"/>
        <pt x="194" y="37" on="0"/>
        <pt x="225" y="31" on="0"/>
        <pt x="259" y="31" on="1"/>
        <pt x="253" y="0" on="1"/>
        <pt x="216" y="2" on="0"/>
        <pt x="162" y="3" on="0"/>
        <pt x="147" y="3" on="1"/>
        <pt x="130" y="3" on="0"/>
        <pt x="104" y="3" on="0"/>
        <pt x="79" y="2" on="0"/>
        <pt x="53" y="1" on="0"/>
        <pt x="36" y="0" on="1"/>
        <pt x="37" y="7" on="0"/>
        <pt x="40" y="25" on="0"/>
        <pt x="41" y="31" on="1"/>
        <pt x="64" y="31" on="0"/>
        <pt x="94" y="32" on="0"/>
        <pt x="113" y="40" on="0"/>
        <pt x="122" y="57" on="0"/>
        <pt x="125" y="72" on="1"/>
        <pt x="170" y="343" on="1"/>
        <pt x="172" y="356" on="0"/>
        <pt x="173" y="363" on="0"/>
        <pt x="173" y="368" on="1"/>
        <pt x="173" y="388" on="0"/>
        <pt x="147" y="400" on="0"/>
        <pt x="106" y="400" on="1"/>
        <pt x="106" y="405" on="0"/>
        <pt x="108" y="417" on="0"/>
        <pt x="110" y="423" on="1"/>
        <pt x="112" y="428" on="0"/>
        <pt x="117" y="431" on="0"/>
        <pt x="129" y="432" on="1"/>
        <pt x="258" y="442" on="1"/>
      </contour>
    </TTGlyph>
    <TTGlyph name="e" xMin="62" yMin="-11" xMax="472" yMax="448">
      <contour>
        <pt x="153" y="229" on="1"/>
        <pt x="150" y="214" on="0"/>
        <pt x="145" y="169" on="0"/>
        <pt x="145" y="154" on="1"/>
        <pt x="145" y="117" on="0"/>
        <pt x="166" y="64" on="0"/>
        <pt x="200" y="32" on="0"/>
        <pt x="241" y="17" on="0"/>
        <pt x="262" y="17" on="1"/>
        <pt x="279" y="17" on="0"/>
        <pt x="321" y="27" on="0"/>
        <pt x="364" y="51" on="0"/>
        <pt x="403" y="91" on="0"/>
        <pt x="418" y="120" on="1"/>
        <pt x="421" y="125" on="0"/>
        <pt x="426" y="132" on="0"/>
        <pt x="433" y="132" on="1"/>
        <pt x="447" y="132" on="0"/>
        <pt x="447" y="119" on="1"/>
        <pt x="447" y="113" on="0"/>
        <pt x="423" y="70" on="0"/>
        <pt x="375" y="25" on="0"/>
        <pt x="303" y="-11" on="0"/>
        <pt x="256" y="-11" on="1"/>
        <pt x="215" y="-11" on="0"/>
        <pt x="144" y="18" on="0"/>
        <pt x="92" y="69" on="0"/>
        <pt x="62" y="141" on="0"/>
        <pt x="62" y="183" on="1"/>
        <pt x="62" y="233" on="0"/>
        <pt x="103" y="328" on="0"/>
        <pt x="172" y="403" on="0"/>
        <pt x="265" y="448" on="0"/>
        <pt x="316" y="448" on="1"/>
        <pt x="346" y="448" on="0"/>
        <pt x="402" y="431" on="0"/>
        <pt x="446" y="394" on="0"/>
        <pt x="472" y="335" on="0"/>
        <pt x="472" y="292" on="1"/>
        <pt x="472" y="268" on="0"/>
        <pt x="469" y="243" on="0"/>
        <pt x="461" y="231" on="0"/>
        <pt x="449" y="229" on="0"/>
        <pt x="440" y="229" on="1"/>
      </contour>
      <contour>
        <pt x="401" y="253" on="1"/>
        <pt x="401" y="254" on="0"/>
        <pt x="406" y="286" on="0"/>
        <pt x="406" y="306" on="1"/>
        <pt x="406" y="325" on="0"/>
        <pt x="398" y="366" on="0"/>
        <pt x="378" y="401" on="0"/>
        <pt x="343" y="423" on="0"/>
        <pt x="315" y="423" on="1"/>
        <pt x="300" y="423" on="0"/>
        <pt x="256" y="409" on="0"/>
        <pt x="211" y="372" on="0"/>
        <pt x="170" y="306" on="0"/>
        <pt x="158" y="253" on="1"/>
      </contour>
    </TTGlyph>
    <TTGlyph name="eight" xMin="66" yMin="-22" xMax="530" yMax="666">
      <contour>
        <pt x="423" y="330" on="1"/>
        <pt x="432" y="323" on="0"/>
        <pt x="459" y="302" on="0"/>
        <pt x="483" y="269" on="0"/>
        <pt x="500" y="224" on="0"/>
        <pt x="500" y="194" on="1"/>
        <pt x="500" y="150" on="0"/>
        <pt x="459" y="72" on="0"/>
        <pt x="391" y="13" on="0"/>
        <pt x="302" y="-22" on="0"/>
        <pt x="254" y="-22" on="1"/>
        <pt x="217" y="-22" on="0"/>
        <pt x="148" y="-1" on="0"/>
        <pt x="97" y="38" on="0"/>
        <pt x="66" y="94" on="0"/>
        <pt x="66" y="128" on="1"/>
        <pt x="66" y="184" on="0"/>
        <pt x="151" y="295" on="0"/>
        <pt x="247" y="337" on="1"/>
        <pt x="229" y="349" on="0"/>
        <pt x="194" y="375" on="0"/>
        <pt x="168" y="407" on="0"/>
        <pt x="152" y="448" on="0"/>
        <pt x="152" y="476" on="1"/>
        <pt x="152" y="513" on="0"/>
        <pt x="187" y="582" on="0"/>
        <pt x="245" y="634" on="0"/>
        <pt x="323" y="666" on="0"/>
        <pt x="366" y="666" on="1"/>
        <pt x="400" y="666" on="0"/>
        <pt x="459" y="648" on="0"/>
        <pt x="504" y="614" on="0"/>
        <pt x="530" y="566" on="0"/>
        <pt x="530" y="537" on="1"/>
        <pt x="530" y="498" on="0"/>
        <pt x="492" y="437" on="0"/>
        <pt x="442" y="393" on="0"/>
        <pt x="392" y="366" on="0"/>
        <pt x="379" y="361" on="1"/>
      </contour>
      <contour>
        <pt x="354" y="378" on="1"/>
        <pt x="423" y="412" on="0"/>
        <pt x="482" y="498" on="0"/>
        <pt x="482" y="538" on="1"/>
        <pt x="482" y="583" on="0"/>
        <pt x="416" y="641" on="0"/>
        <pt x="364" y="641" on="1"/>
        <pt x="334" y="641" on="0"/>
        <pt x="278" y="622" on="0"/>
        <pt x="234" y="590" on="0"/>
        <pt x="207" y="547" on="0"/>
        <pt x="207" y="522" on="1"/>
        <pt x="207" y="492" on="0"/>
        <pt x="240" y="459" on="0"/>
        <pt x="264" y="442" on="1"/>
      </contour>
      <contour>
        <pt x="273" y="319" on="1"/>
        <pt x="239" y="304" on="0"/>
        <pt x="183" y="262" on="0"/>
        <pt x="143" y="211" on="0"/>
        <pt x="120" y="155" on="0"/>
        <pt x="120" y="127" on="1"/>
        <pt x="120" y="101" on="0"/>
        <pt x="141" y="56" on="0"/>
        <pt x="177" y="24" on="0"/>
        <pt x="227" y="6" on="0"/>
        <pt x="256" y="6" on="1"/>
        <pt x="292" y="6" on="0"/>
        <pt x="359" y="29" on="0"/>
        <pt x="410" y="69" on="0"/>
        <pt x="440" y="122" on="0"/>
        <pt x="440" y="151" on="1"/>
        <pt x="440" y="170" on="0"/>
        <pt x="429" y="198" on="0"/>
        <pt x="411" y="220" on="0"/>
        <pt x="389" y="237" on="0"/>
        <pt x="379" y="244" on="1"/>
      </contour>
    </TTGlyph>
    <TTGlyph name="emdash" xMin="42" yMin="254" xMax="1073" yMax="279">
      <contour>
        <pt x="42" y="254" on="1"/>
        <pt x="44" y="260" on="0"/>
        <pt x="44" y="268" on="0"/>
        <pt x="46" y="279" on="1"/>
        <pt x="1073" y="279" on="1"/>
        <pt x="1071" y="268" on="0"/>
        <pt x="1071" y="260" on="0"/>
        <pt x="1069" y="254" on="1"/>
      </contour>
    </TTGlyph>
    <TTGlyph name="endash" xMin="42" yMin="254" xMax="559" yMax="279">
      <contour>
        <pt x="42" y="254" on="1"/>
        <pt x="44" y="260" on="0"/>
        <pt x="44" y="268" on="0"/>
        <pt x="46" y="279" on="1"/>
        <pt x="559" y="279" on="1"/>
        <pt x="557" y="268" on="0"/>
        <pt x="557" y="260" on="0"/>
        <pt x="555" y="254" on="1"/>
      </contour>
    </TTGlyph>
    <TTGlyph name="equal" xMin="82" yMin="127" xMax="800" yMax="374">
      <contour>
        <pt x="149" y="331" on="1"/>
        <pt x="138" y="331" on="0"/>
        <pt x="116" y="336" on="0"/>
        <pt x="116" y="352" on="1"/>
        <pt x="116" y="369" on="0"/>
        <pt x="141" y="374" on="0"/>
        <pt x="153" y="374" on="1"/>
        <pt x="762" y="374" on="1"/>
        <pt x="773" y="374" on="0"/>
        <pt x="800" y="369" on="0"/>
        <pt x="800" y="352" on="1"/>
        <pt x="800" y="336" on="0"/>
        <pt x="777" y="331" on="0"/>
        <pt x="767" y="331" on="1"/>
      </contour>
      <contour>
        <pt x="119" y="127" on="1"/>
        <pt x="108" y="127" on="0"/>
        <pt x="82" y="132" on="0"/>
        <pt x="82" y="149" on="1"/>
        <pt x="82" y="165" on="0"/>
        <pt x="104" y="170" on="0"/>
        <pt x="115" y="170" on="1"/>
        <pt x="733" y="170" on="1"/>
        <pt x="743" y="170" on="0"/>
        <pt x="766" y="165" on="0"/>
        <pt x="766" y="149" on="1"/>
        <pt x="766" y="132" on="0"/>
        <pt x="739" y="127" on="0"/>
        <pt x="728" y="127" on="1"/>
      </contour>
    </TTGlyph>
    <TTGlyph name="exclam" xMin="96" yMin="0" xMax="308" yMax="716">
      <contour>
        <pt x="192" y="208" on="1"/>
        <pt x="189" y="195" on="0"/>
        <pt x="183" y="189" on="0"/>
        <pt x="175" y="189" on="1"/>
        <pt x="164" y="189" on="0"/>
        <pt x="161" y="200" on="0"/>
        <pt x="162" y="202" on="1"/>
        <pt x="163" y="203" on="0"/>
        <pt x="162" y="207" on="0"/>
        <pt x="162" y="208" on="1"/>
        <pt x="162" y="215" on="1"/>
        <pt x="198" y="654" on="1"/>
        <pt x="200" y="677" on="0"/>
        <pt x="218" y="702" on="0"/>
        <pt x="239" y="714" on="0"/>
        <pt x="258" y="716" on="0"/>
        <pt x="259" y="716" on="1"/>
        <pt x="282" y="716" on="0"/>
        <pt x="308" y="688" on="0"/>
        <pt x="308" y="671" on="1"/>
        <pt x="308" y="667" on="0"/>
        <pt x="305" y="654" on="0"/>
        <pt x="304" y="651" on="1"/>
      </contour>
      <contour>
        <pt x="206" y="60" on="1"/>
        <pt x="206" y="39" on="0"/>
        <pt x="171" y="0" on="0"/>
        <pt x="145" y="0" on="1"/>
        <pt x="121" y="0" on="0"/>
        <pt x="96" y="29" on="0"/>
        <pt x="96" y="48" on="1"/>
        <pt x="96" y="69" on="0"/>
        <pt x="131" y="108" on="0"/>
        <pt x="157" y="108" on="1"/>
        <pt x="181" y="108" on="0"/>
        <pt x="206" y="79" on="0"/>
      </contour>
    </TTGlyph>
    <TTGlyph name="exclamdown" xMin="60" yMin="-216" xMax="271" yMax="500">
      <contour>
        <pt x="271" y="453" on="1"/>
        <pt x="271" y="429" on="0"/>
        <pt x="234" y="392" on="0"/>
        <pt x="210" y="392" on="1"/>
        <pt x="190" y="392" on="0"/>
        <pt x="162" y="417" on="0"/>
        <pt x="162" y="440" on="1"/>
        <pt x="162" y="465" on="0"/>
        <pt x="200" y="500" on="0"/>
        <pt x="223" y="500" on="1"/>
        <pt x="245" y="500" on="0"/>
        <pt x="271" y="471" on="0"/>
      </contour>
      <contour>
        <pt x="175" y="291" on="1"/>
        <pt x="178" y="304" on="0"/>
        <pt x="184" y="311" on="0"/>
        <pt x="192" y="311" on="1"/>
        <pt x="201" y="311" on="0"/>
        <pt x="207" y="301" on="0"/>
        <pt x="205" y="286" on="1"/>
        <pt x="170" y="-156" on="1"/>
        <pt x="169" y="-174" on="0"/>
        <pt x="154" y="-197" on="0"/>
        <pt x="135" y="-211" on="0"/>
        <pt x="115" y="-216" on="0"/>
        <pt x="108" y="-216" on="1"/>
        <pt x="89" y="-216" on="0"/>
        <pt x="60" y="-193" on="0"/>
        <pt x="60" y="-171" on="1"/>
        <pt x="60" y="-166" on="0"/>
        <pt x="61" y="-159" on="0"/>
        <pt x="64" y="-148" on="1"/>
      </contour>
    </TTGlyph>
    <TTGlyph name="f" xMin="36" yMin="0" xMax="472" yMax="705">
      <contour>
        <pt x="198" y="83" on="1"/>
        <pt x="196" y="70" on="0"/>
        <pt x="195" y="63" on="0"/>
        <pt x="195" y="60" on="1"/>
        <pt x="195" y="53" on="0"/>
        <pt x="198" y="42" on="0"/>
        <pt x="212" y="35" on="0"/>
        <pt x="240" y="31" on="0"/>
        <pt x="265" y="31" on="1"/>
        <pt x="286" y="31" on="1"/>
        <pt x="281" y="0" on="1"/>
        <pt x="259" y="1" on="0"/>
        <pt x="227" y="2" on="0"/>
        <pt x="198" y="3" on="0"/>
        <pt x="171" y="3" on="0"/>
        <pt x="153" y="3" on="1"/>
        <pt x="134" y="3" on="0"/>
        <pt x="107" y="3" on="0"/>
        <pt x="82" y="2" on="0"/>
        <pt x="55" y="1" on="0"/>
        <pt x="36" y="0" on="1"/>
        <pt x="37" y="7" on="0"/>
        <pt x="40" y="25" on="0"/>
        <pt x="41" y="31" on="1"/>
        <pt x="64" y="31" on="0"/>
        <pt x="94" y="32" on="0"/>
        <pt x="113" y="40" on="0"/>
        <pt x="122" y="57" on="0"/>
        <pt x="125" y="72" on="1"/>
        <pt x="179" y="400" on="1"/>
        <pt x="101" y="400" on="1"/>
        <pt x="103" y="408" on="0"/>
        <pt x="104" y="423" on="0"/>
        <pt x="106" y="431" on="1"/>
        <pt x="185" y="431" on="1"/>
        <pt x="204" y="549" on="1"/>
        <pt x="210" y="583" on="0"/>
        <pt x="245" y="640" on="0"/>
        <pt x="296" y="682" on="0"/>
        <pt x="357" y="705" on="0"/>
        <pt x="388" y="705" on="1"/>
        <pt x="424" y="705" on="0"/>
        <pt x="472" y="670" on="0"/>
        <pt x="472" y="641" on="1"/>
        <pt x="472" y="617" on="0"/>
        <pt x="442" y="589" on="0"/>
        <pt x="422" y="589" on="1"/>
        <pt x="400" y="589" on="0"/>
        <pt x="382" y="613" on="0"/>
        <pt x="382" y="627" on="1"/>
        <pt x="382" y="649" on="0"/>
        <pt x="407" y="671" on="0"/>
        <pt x="415" y="675" on="1"/>
        <pt x="412" y="677" on="0"/>
        <pt x="399" y="680" on="0"/>
        <pt x="388" y="680" on="1"/>
        <pt x="368" y="680" on="0"/>
        <pt x="330" y="658" on="0"/>
        <pt x="298" y="621" on="0"/>
        <pt x="276" y="573" on="0"/>
        <pt x="272" y="547" on="1"/>
        <pt x="253" y="431" on="1"/>
        <pt x="372" y="431" on="1"/>
        <pt x="370" y="423" on="0"/>
        <pt x="369" y="408" on="0"/>
        <pt x="367" y="400" on="1"/>
        <pt x="251" y="400" on="1"/>
      </contour>
    </TTGlyph>
    <TTGlyph name="f_f" xMin="30" yMin="0" xMax="752" yMax="705">
      <contour>
        <pt x="477" y="83" on="1"/>
        <pt x="475" y="70" on="0"/>
        <pt x="474" y="63" on="0"/>
        <pt x="474" y="60" on="1"/>
        <pt x="474" y="53" on="0"/>
        <pt x="477" y="42" on="0"/>
        <pt x="491" y="35" on="0"/>
        <pt x="519" y="31" on="0"/>
        <pt x="544" y="31" on="1"/>
        <pt x="565" y="31" on="1"/>
        <pt x="560" y="0" on="1"/>
        <pt x="538" y="1" on="0"/>
        <pt x="506" y="2" on="0"/>
        <pt x="477" y="3" on="0"/>
        <pt x="450" y="3" on="0"/>
        <pt x="432" y="3" on="1"/>
        <pt x="413" y="3" on="0"/>
        <pt x="386" y="3" on="0"/>
        <pt x="361" y="2" on="0"/>
        <pt x="334" y="1" on="0"/>
        <pt x="315" y="0" on="1"/>
        <pt x="316" y="7" on="0"/>
        <pt x="319" y="25" on="0"/>
        <pt x="320" y="31" on="1"/>
        <pt x="343" y="31" on="0"/>
        <pt x="373" y="32" on="0"/>
        <pt x="392" y="40" on="0"/>
        <pt x="401" y="57" on="0"/>
        <pt x="404" y="72" on="1"/>
        <pt x="458" y="400" on="1"/>
        <pt x="245" y="400" on="1"/>
        <pt x="191" y="77" on="1"/>
        <pt x="189" y="66" on="0"/>
        <pt x="188" y="59" on="0"/>
        <pt x="188" y="57" on="1"/>
        <pt x="188" y="37" on="0"/>
        <pt x="222" y="31" on="0"/>
        <pt x="260" y="31" on="1"/>
        <pt x="255" y="0" on="1"/>
        <pt x="226" y="2" on="0"/>
        <pt x="179" y="3" on="0"/>
        <pt x="143" y="3" on="1"/>
        <pt x="125" y="3" on="0"/>
        <pt x="99" y="3" on="0"/>
        <pt x="74" y="2" on="0"/>
        <pt x="47" y="1" on="0"/>
        <pt x="30" y="0" on="1"/>
        <pt x="31" y="7" on="0"/>
        <pt x="34" y="25" on="0"/>
        <pt x="35" y="31" on="1"/>
        <pt x="58" y="31" on="0"/>
        <pt x="88" y="32" on="0"/>
        <pt x="107" y="40" on="0"/>
        <pt x="116" y="57" on="0"/>
        <pt x="119" y="72" on="1"/>
        <pt x="173" y="400" on="1"/>
        <pt x="95" y="400" on="1"/>
        <pt x="97" y="408" on="0"/>
        <pt x="98" y="423" on="0"/>
        <pt x="100" y="431" on="1"/>
        <pt x="179" y="431" on="1"/>
        <pt x="199" y="552" on="1"/>
        <pt x="204" y="584" on="0"/>
        <pt x="248" y="640" on="0"/>
        <pt x="314" y="681" on="0"/>
        <pt x="397" y="705" on="0"/>
        <pt x="442" y="705" on="1"/>
        <pt x="451" y="705" on="0"/>
        <pt x="481" y="703" on="0"/>
        <pt x="512" y="694" on="0"/>
        <pt x="542" y="678" on="0"/>
        <pt x="552" y="663" on="1"/>
        <pt x="583" y="687" on="0"/>
        <pt x="644" y="705" on="0"/>
        <pt x="668" y="705" on="1"/>
        <pt x="703" y="705" on="0"/>
        <pt x="752" y="671" on="0"/>
        <pt x="752" y="641" on="1"/>
        <pt x="752" y="617" on="0"/>
        <pt x="722" y="589" on="0"/>
        <pt x="702" y="589" on="1"/>
        <pt x="680" y="589" on="0"/>
        <pt x="662" y="613" on="0"/>
        <pt x="662" y="627" on="1"/>
        <pt x="662" y="649" on="0"/>
        <pt x="687" y="671" on="0"/>
        <pt x="695" y="675" on="1"/>
        <pt x="687" y="678" on="0"/>
        <pt x="673" y="680" on="0"/>
        <pt x="668" y="680" on="1"/>
        <pt x="647" y="680" on="0"/>
        <pt x="609" y="658" on="0"/>
        <pt x="577" y="621" on="0"/>
        <pt x="555" y="573" on="0"/>
        <pt x="551" y="547" on="1"/>
        <pt x="532" y="431" on="1"/>
        <pt x="652" y="431" on="1"/>
        <pt x="650" y="423" on="0"/>
        <pt x="649" y="408" on="0"/>
        <pt x="647" y="400" on="1"/>
        <pt x="530" y="400" on="1"/>
      </contour>
      <contour>
        <pt x="247" y="431" on="1"/>
        <pt x="464" y="431" on="1"/>
        <pt x="483" y="550" on="1"/>
        <pt x="485" y="559" on="0"/>
        <pt x="486" y="568" on="0"/>
        <pt x="491" y="579" on="1"/>
        <pt x="490" y="580" on="0"/>
        <pt x="472" y="595" on="0"/>
        <pt x="472" y="613" on="1"/>
        <pt x="472" y="630" on="0"/>
        <pt x="493" y="658" on="0"/>
        <pt x="513" y="663" on="1"/>
        <pt x="491" y="676" on="0"/>
        <pt x="449" y="680" on="0"/>
        <pt x="441" y="680" on="1"/>
        <pt x="410" y="680" on="0"/>
        <pt x="352" y="660" on="0"/>
        <pt x="304" y="624" on="0"/>
        <pt x="271" y="575" on="0"/>
        <pt x="266" y="545" on="1"/>
      </contour>
    </TTGlyph>
    <TTGlyph name="f_f_i" xMin="30" yMin="0" xMax="848" yMax="705">
      <contour>
        <pt x="761" y="77" on="1"/>
        <pt x="759" y="66" on="0"/>
        <pt x="758" y="59" on="0"/>
        <pt x="758" y="57" on="1"/>
        <pt x="758" y="37" on="0"/>
        <pt x="792" y="31" on="0"/>
        <pt x="830" y="31" on="1"/>
        <pt x="825" y="0" on="1"/>
        <pt x="796" y="2" on="0"/>
        <pt x="749" y="3" on="0"/>
        <pt x="713" y="3" on="1"/>
        <pt x="695" y="3" on="0"/>
        <pt x="669" y="3" on="0"/>
        <pt x="644" y="2" on="0"/>
        <pt x="617" y="1" on="0"/>
        <pt x="600" y="0" on="1"/>
        <pt x="601" y="7" on="0"/>
        <pt x="604" y="25" on="0"/>
        <pt x="605" y="31" on="1"/>
        <pt x="628" y="31" on="0"/>
        <pt x="658" y="32" on="0"/>
        <pt x="677" y="40" on="0"/>
        <pt x="686" y="57" on="0"/>
        <pt x="689" y="72" on="1"/>
        <pt x="734" y="343" on="1"/>
        <pt x="736" y="356" on="0"/>
        <pt x="737" y="364" on="0"/>
        <pt x="737" y="369" on="1"/>
        <pt x="737" y="385" on="0"/>
        <pt x="721" y="400" on="0"/>
        <pt x="691" y="400" on="1"/>
        <pt x="530" y="400" on="1"/>
        <pt x="476" y="77" on="1"/>
        <pt x="474" y="66" on="0"/>
        <pt x="473" y="59" on="0"/>
        <pt x="473" y="57" on="1"/>
        <pt x="473" y="37" on="0"/>
        <pt x="507" y="31" on="0"/>
        <pt x="545" y="31" on="1"/>
        <pt x="540" y="0" on="1"/>
        <pt x="511" y="2" on="0"/>
        <pt x="464" y="3" on="0"/>
        <pt x="428" y="3" on="1"/>
        <pt x="410" y="3" on="0"/>
        <pt x="384" y="3" on="0"/>
        <pt x="359" y="2" on="0"/>
        <pt x="332" y="1" on="0"/>
        <pt x="315" y="0" on="1"/>
        <pt x="316" y="7" on="0"/>
        <pt x="319" y="25" on="0"/>
        <pt x="320" y="31" on="1"/>
        <pt x="343" y="31" on="0"/>
        <pt x="373" y="32" on="0"/>
        <pt x="392" y="40" on="0"/>
        <pt x="401" y="57" on="0"/>
        <pt x="404" y="72" on="1"/>
        <pt x="458" y="400" on="1"/>
        <pt x="245" y="400" on="1"/>
        <pt x="191" y="77" on="1"/>
        <pt x="189" y="66" on="0"/>
        <pt x="188" y="59" on="0"/>
        <pt x="188" y="57" on="1"/>
        <pt x="188" y="37" on="0"/>
        <pt x="222" y="31" on="0"/>
        <pt x="260" y="31" on="1"/>
        <pt x="255" y="0" on="1"/>
        <pt x="226" y="2" on="0"/>
        <pt x="179" y="3" on="0"/>
        <pt x="143" y="3" on="1"/>
        <pt x="125" y="3" on="0"/>
        <pt x="99" y="3" on="0"/>
        <pt x="74" y="2" on="0"/>
        <pt x="47" y="1" on="0"/>
        <pt x="30" y="0" on="1"/>
        <pt x="31" y="7" on="0"/>
        <pt x="34" y="25" on="0"/>
        <pt x="35" y="31" on="1"/>
        <pt x="58" y="31" on="0"/>
        <pt x="88" y="32" on="0"/>
        <pt x="107" y="40" on="0"/>
        <pt x="116" y="57" on="0"/>
        <pt x="119" y="72" on="1"/>
        <pt x="173" y="400" on="1"/>
        <pt x="95" y="400" on="1"/>
        <pt x="97" y="408" on="0"/>
        <pt x="98" y="423" on="0"/>
        <pt x="100" y="431" on="1"/>
        <pt x="179" y="431" on="1"/>
        <pt x="199" y="552" on="1"/>
        <pt x="205" y="584" on="0"/>
        <pt x="249" y="640" on="0"/>
        <pt x="315" y="681" on="0"/>
        <pt x="398" y="705" on="0"/>
        <pt x="441" y="705" on="1"/>
        <pt x="487" y="705" on="0"/>
        <pt x="541" y="672" on="0"/>
        <pt x="552" y="651" on="1"/>
        <pt x="598" y="683" on="0"/>
        <pt x="690" y="705" on="0"/>
        <pt x="728" y="705" on="1"/>
        <pt x="784" y="705" on="0"/>
        <pt x="848" y="654" on="0"/>
        <pt x="848" y="616" on="1"/>
        <pt x="848" y="597" on="0"/>
        <pt x="835" y="574" on="0"/>
        <pt x="818" y="561" on="0"/>
        <pt x="800" y="556" on="0"/>
        <pt x="794" y="556" on="1"/>
        <pt x="776" y="556" on="0"/>
        <pt x="752" y="578" on="0"/>
        <pt x="752" y="597" on="1"/>
        <pt x="752" y="619" on="0"/>
        <pt x="784" y="649" on="0"/>
        <pt x="807" y="650" on="1"/>
        <pt x="790" y="669" on="0"/>
        <pt x="743" y="680" on="0"/>
        <pt x="726" y="680" on="1"/>
        <pt x="695" y="680" on="0"/>
        <pt x="636" y="660" on="0"/>
        <pt x="588" y="624" on="0"/>
        <pt x="556" y="575" on="0"/>
        <pt x="551" y="546" on="1"/>
        <pt x="532" y="431" on="1"/>
        <pt x="654" y="431" on="1"/>
        <pt x="665" y="431" on="0"/>
        <pt x="670" y="431" on="0"/>
        <pt x="672" y="432" on="1"/>
        <pt x="674" y="433" on="0"/>
        <pt x="685" y="434" on="0"/>
        <pt x="690" y="434" on="1"/>
        <pt x="822" y="443" on="1"/>
      </contour>
      <contour>
        <pt x="247" y="431" on="1"/>
        <pt x="464" y="431" on="1"/>
        <pt x="485" y="561" on="1"/>
        <pt x="464" y="572" on="0"/>
        <pt x="464" y="597" on="1"/>
        <pt x="464" y="597" on="0"/>
        <pt x="466" y="613" on="0"/>
        <pt x="477" y="632" on="0"/>
        <pt x="499" y="649" on="0"/>
        <pt x="519" y="650" on="1"/>
        <pt x="502" y="669" on="0"/>
        <pt x="455" y="680" on="0"/>
        <pt x="439" y="680" on="1"/>
        <pt x="409" y="680" on="0"/>
        <pt x="351" y="660" on="0"/>
        <pt x="304" y="624" on="0"/>
        <pt x="271" y="575" on="0"/>
        <pt x="266" y="546" on="1"/>
      </contour>
    </TTGlyph>
    <TTGlyph name="f_f_l" xMin="30" yMin="0" xMax="864" yMax="705">
      <contour>
        <pt x="761" y="77" on="1"/>
        <pt x="759" y="66" on="0"/>
        <pt x="758" y="59" on="0"/>
        <pt x="758" y="57" on="1"/>
        <pt x="758" y="37" on="0"/>
        <pt x="792" y="31" on="0"/>
        <pt x="830" y="31" on="1"/>
        <pt x="825" y="0" on="1"/>
        <pt x="796" y="2" on="0"/>
        <pt x="749" y="3" on="0"/>
        <pt x="713" y="3" on="1"/>
        <pt x="695" y="3" on="0"/>
        <pt x="669" y="3" on="0"/>
        <pt x="644" y="2" on="0"/>
        <pt x="617" y="1" on="0"/>
        <pt x="600" y="0" on="1"/>
        <pt x="601" y="7" on="0"/>
        <pt x="604" y="25" on="0"/>
        <pt x="605" y="31" on="1"/>
        <pt x="628" y="31" on="0"/>
        <pt x="658" y="32" on="0"/>
        <pt x="677" y="40" on="0"/>
        <pt x="686" y="57" on="0"/>
        <pt x="689" y="72" on="1"/>
        <pt x="743" y="400" on="1"/>
        <pt x="530" y="400" on="1"/>
        <pt x="476" y="77" on="1"/>
        <pt x="474" y="66" on="0"/>
        <pt x="473" y="59" on="0"/>
        <pt x="473" y="57" on="1"/>
        <pt x="473" y="37" on="0"/>
        <pt x="507" y="31" on="0"/>
        <pt x="545" y="31" on="1"/>
        <pt x="540" y="0" on="1"/>
        <pt x="511" y="2" on="0"/>
        <pt x="464" y="3" on="0"/>
        <pt x="428" y="3" on="1"/>
        <pt x="410" y="3" on="0"/>
        <pt x="384" y="3" on="0"/>
        <pt x="359" y="2" on="0"/>
        <pt x="332" y="1" on="0"/>
        <pt x="315" y="0" on="1"/>
        <pt x="316" y="7" on="0"/>
        <pt x="319" y="25" on="0"/>
        <pt x="320" y="31" on="1"/>
        <pt x="343" y="31" on="0"/>
        <pt x="373" y="32" on="0"/>
        <pt x="392" y="40" on="0"/>
        <pt x="401" y="57" on="0"/>
        <pt x="404" y="72" on="1"/>
        <pt x="458" y="400" on="1"/>
        <pt x="245" y="400" on="1"/>
        <pt x="191" y="77" on="1"/>
        <pt x="189" y="66" on="0"/>
        <pt x="188" y="59" on="0"/>
        <pt x="188" y="57" on="1"/>
        <pt x="188" y="37" on="0"/>
        <pt x="222" y="31" on="0"/>
        <pt x="260" y="31" on="1"/>
        <pt x="255" y="0" on="1"/>
        <pt x="226" y="2" on="0"/>
        <pt x="179" y="3" on="0"/>
        <pt x="143" y="3" on="1"/>
        <pt x="125" y="3" on="0"/>
        <pt x="99" y="3" on="0"/>
        <pt x="74" y="2" on="0"/>
        <pt x="47" y="1" on="0"/>
        <pt x="30" y="0" on="1"/>
        <pt x="31" y="7" on="0"/>
        <pt x="34" y="25" on="0"/>
        <pt x="35" y="31" on="1"/>
        <pt x="58" y="31" on="0"/>
        <pt x="88" y="32" on="0"/>
        <pt x="107" y="40" on="0"/>
        <pt x="116" y="57" on="0"/>
        <pt x="119" y="72" on="1"/>
        <pt x="173" y="400" on="1"/>
        <pt x="95" y="400" on="1"/>
        <pt x="97" y="408" on="0"/>
        <pt x="98" y="423" on="0"/>
        <pt x="100" y="431" on="1"/>
        <pt x="179" y="431" on="1"/>
        <pt x="199" y="552" on="1"/>
        <pt x="204" y="584" on="0"/>
        <pt x="248" y="640" on="0"/>
        <pt x="314" y="681" on="0"/>
        <pt x="397" y="705" on="0"/>
        <pt x="442" y="705" on="1"/>
        <pt x="480" y="705" on="0"/>
        <pt x="544" y="682" on="0"/>
        <pt x="557" y="655" on="1"/>
        <pt x="589" y="676" on="0"/>
        <pt x="675" y="705" on="0"/>
        <pt x="730" y="705" on="1"/>
        <pt x="743" y="705" on="0"/>
        <pt x="789" y="702" on="0"/>
        <pt x="815" y="691" on="1"/>
        <pt x="819" y="689" on="0"/>
        <pt x="822" y="688" on="0"/>
        <pt x="824" y="688" on="1"/>
        <pt x="826" y="688" on="0"/>
        <pt x="837" y="690" on="0"/>
        <pt x="850" y="692" on="0"/>
        <pt x="861" y="694" on="0"/>
        <pt x="864" y="694" on="1"/>
      </contour>
      <contour>
        <pt x="247" y="431" on="1"/>
        <pt x="464" y="431" on="1"/>
        <pt x="483" y="549" on="1"/>
        <pt x="485" y="556" on="0"/>
        <pt x="489" y="572" on="0"/>
        <pt x="492" y="579" on="1"/>
        <pt x="489" y="581" on="0"/>
        <pt x="472" y="596" on="0"/>
        <pt x="472" y="613" on="1"/>
        <pt x="472" y="616" on="0"/>
        <pt x="474" y="630" on="0"/>
        <pt x="482" y="646" on="0"/>
        <pt x="499" y="660" on="0"/>
        <pt x="513" y="663" on="1"/>
        <pt x="492" y="676" on="0"/>
        <pt x="449" y="680" on="0"/>
        <pt x="441" y="680" on="1"/>
        <pt x="408" y="680" on="0"/>
        <pt x="349" y="659" on="0"/>
        <pt x="302" y="622" on="0"/>
        <pt x="271" y="573" on="0"/>
        <pt x="266" y="546" on="1"/>
      </contour>
      <contour>
        <pt x="532" y="431" on="1"/>
        <pt x="749" y="431" on="1"/>
        <pt x="776" y="595" on="1"/>
        <pt x="768" y="600" on="0"/>
        <pt x="759" y="618" on="0"/>
        <pt x="759" y="627" on="1"/>
        <pt x="759" y="641" on="0"/>
        <pt x="776" y="667" on="0"/>
        <pt x="788" y="673" on="1"/>
        <pt x="773" y="677" on="0"/>
        <pt x="742" y="680" on="0"/>
        <pt x="728" y="680" on="1"/>
        <pt x="693" y="680" on="0"/>
        <pt x="632" y="658" on="0"/>
        <pt x="585" y="621" on="0"/>
        <pt x="555" y="572" on="0"/>
        <pt x="551" y="546" on="1"/>
      </contour>
    </TTGlyph>
    <TTGlyph name="fi" xMin="30" yMin="0" xMax="563" yMax="705">
      <contour>
        <pt x="476" y="77" on="1"/>
        <pt x="474" y="66" on="0"/>
        <pt x="473" y="59" on="0"/>
        <pt x="473" y="57" on="1"/>
        <pt x="473" y="37" on="0"/>
        <pt x="507" y="31" on="0"/>
        <pt x="545" y="31" on="1"/>
        <pt x="540" y="0" on="1"/>
        <pt x="511" y="2" on="0"/>
        <pt x="464" y="3" on="0"/>
        <pt x="428" y="3" on="1"/>
        <pt x="410" y="3" on="0"/>
        <pt x="384" y="3" on="0"/>
        <pt x="359" y="2" on="0"/>
        <pt x="332" y="1" on="0"/>
        <pt x="315" y="0" on="1"/>
        <pt x="316" y="7" on="0"/>
        <pt x="319" y="25" on="0"/>
        <pt x="320" y="31" on="1"/>
        <pt x="343" y="31" on="0"/>
        <pt x="373" y="32" on="0"/>
        <pt x="392" y="40" on="0"/>
        <pt x="401" y="57" on="0"/>
        <pt x="404" y="72" on="1"/>
        <pt x="449" y="343" on="1"/>
        <pt x="451" y="356" on="0"/>
        <pt x="452" y="364" on="0"/>
        <pt x="452" y="369" on="1"/>
        <pt x="452" y="385" on="0"/>
        <pt x="436" y="400" on="0"/>
        <pt x="406" y="400" on="1"/>
        <pt x="245" y="400" on="1"/>
        <pt x="191" y="77" on="1"/>
        <pt x="189" y="66" on="0"/>
        <pt x="188" y="59" on="0"/>
        <pt x="188" y="57" on="1"/>
        <pt x="188" y="37" on="0"/>
        <pt x="222" y="31" on="0"/>
        <pt x="260" y="31" on="1"/>
        <pt x="255" y="0" on="1"/>
        <pt x="226" y="2" on="0"/>
        <pt x="179" y="3" on="0"/>
        <pt x="143" y="3" on="1"/>
        <pt x="125" y="3" on="0"/>
        <pt x="99" y="3" on="0"/>
        <pt x="74" y="2" on="0"/>
        <pt x="47" y="1" on="0"/>
        <pt x="30" y="0" on="1"/>
        <pt x="31" y="7" on="0"/>
        <pt x="34" y="25" on="0"/>
        <pt x="35" y="31" on="1"/>
        <pt x="58" y="31" on="0"/>
        <pt x="88" y="32" on="0"/>
        <pt x="107" y="40" on="0"/>
        <pt x="116" y="57" on="0"/>
        <pt x="119" y="72" on="1"/>
        <pt x="173" y="400" on="1"/>
        <pt x="95" y="400" on="1"/>
        <pt x="97" y="408" on="0"/>
        <pt x="98" y="423" on="0"/>
        <pt x="100" y="431" on="1"/>
        <pt x="179" y="431" on="1"/>
        <pt x="198" y="549" on="1"/>
        <pt x="204" y="584" on="0"/>
        <pt x="250" y="641" on="0"/>
        <pt x="317" y="682" on="0"/>
        <pt x="400" y="705" on="0"/>
        <pt x="443" y="705" on="1"/>
        <pt x="499" y="705" on="0"/>
        <pt x="563" y="654" on="0"/>
        <pt x="563" y="616" on="1"/>
        <pt x="563" y="597" on="0"/>
        <pt x="550" y="574" on="0"/>
        <pt x="533" y="561" on="0"/>
        <pt x="515" y="556" on="0"/>
        <pt x="509" y="556" on="1"/>
        <pt x="491" y="556" on="0"/>
        <pt x="467" y="578" on="0"/>
        <pt x="467" y="597" on="1"/>
        <pt x="467" y="619" on="0"/>
        <pt x="499" y="649" on="0"/>
        <pt x="522" y="650" on="1"/>
        <pt x="505" y="669" on="0"/>
        <pt x="458" y="680" on="0"/>
        <pt x="441" y="680" on="1"/>
        <pt x="410" y="680" on="0"/>
        <pt x="351" y="660" on="0"/>
        <pt x="303" y="624" on="0"/>
        <pt x="271" y="575" on="0"/>
        <pt x="266" y="546" on="1"/>
        <pt x="247" y="431" on="1"/>
        <pt x="369" y="431" on="1"/>
        <pt x="380" y="431" on="0"/>
        <pt x="385" y="431" on="0"/>
        <pt x="387" y="432" on="1"/>
        <pt x="389" y="433" on="0"/>
        <pt x="400" y="434" on="0"/>
        <pt x="405" y="434" on="1"/>
        <pt x="537" y="443" on="1"/>
      </contour>
    </TTGlyph>
    <TTGlyph name="five" xMin="76" yMin="-22" xMax="531" yMax="666">
      <contour>
        <pt x="197" y="370" on="1"/>
        <pt x="258" y="420" on="0"/>
        <pt x="335" y="420" on="1"/>
        <pt x="373" y="420" on="0"/>
        <pt x="434" y="391" on="0"/>
        <pt x="476" y="342" on="0"/>
        <pt x="499" y="276" on="0"/>
        <pt x="499" y="239" on="1"/>
        <pt x="499" y="185" on="0"/>
        <pt x="454" y="90" on="0"/>
        <pt x="381" y="19" on="0"/>
        <pt x="286" y="-22" on="0"/>
        <pt x="236" y="-22" on="1"/>
        <pt x="200" y="-22" on="0"/>
        <pt x="141" y="2" on="0"/>
        <pt x="99" y="45" on="0"/>
        <pt x="76" y="102" on="0"/>
        <pt x="76" y="135" on="1"/>
        <pt x="76" y="141" on="0"/>
        <pt x="78" y="167" on="0"/>
        <pt x="89" y="193" on="0"/>
        <pt x="112" y="213" on="0"/>
        <pt x="134" y="213" on="1"/>
        <pt x="151" y="213" on="0"/>
        <pt x="177" y="192" on="0"/>
        <pt x="177" y="171" on="1"/>
        <pt x="177" y="146" on="0"/>
        <pt x="143" y="115" on="0"/>
        <pt x="121" y="115" on="1"/>
        <pt x="114" y="115" on="0"/>
        <pt x="109" y="116" on="0"/>
        <pt x="106" y="117" on="1"/>
        <pt x="110" y="85" on="0"/>
        <pt x="138" y="42" on="0"/>
        <pt x="176" y="17" on="0"/>
        <pt x="217" y="6" on="0"/>
        <pt x="235" y="6" on="1"/>
        <pt x="258" y="6" on="0"/>
        <pt x="298" y="20" on="0"/>
        <pt x="331" y="43" on="0"/>
        <pt x="358" y="71" on="0"/>
        <pt x="367" y="86" on="1"/>
        <pt x="382" y="111" on="0"/>
        <pt x="401" y="173" on="0"/>
        <pt x="411" y="232" on="0"/>
        <pt x="414" y="276" on="0"/>
        <pt x="414" y="283" on="1"/>
        <pt x="414" y="341" on="0"/>
        <pt x="367" y="395" on="0"/>
        <pt x="333" y="395" on="1"/>
        <pt x="305" y="395" on="0"/>
        <pt x="226" y="369" on="0"/>
        <pt x="191" y="329" on="1"/>
        <pt x="184" y="321" on="0"/>
        <pt x="178" y="316" on="0"/>
        <pt x="173" y="316" on="1"/>
        <pt x="159" y="316" on="0"/>
        <pt x="159" y="330" on="1"/>
        <pt x="159" y="332" on="0"/>
        <pt x="159" y="337" on="0"/>
        <pt x="161" y="343" on="1"/>
        <pt x="211" y="644" on="1"/>
        <pt x="214" y="666" on="0"/>
        <pt x="225" y="666" on="1"/>
        <pt x="226" y="666" on="0"/>
        <pt x="231" y="665" on="0"/>
        <pt x="239" y="660" on="1"/>
        <pt x="302" y="634" on="0"/>
        <pt x="367" y="634" on="1"/>
        <pt x="402" y="634" on="0"/>
        <pt x="473" y="648" on="0"/>
        <pt x="507" y="661" on="1"/>
        <pt x="514" y="665" on="0"/>
        <pt x="518" y="666" on="0"/>
        <pt x="520" y="666" on="1"/>
        <pt x="531" y="666" on="0"/>
        <pt x="531" y="654" on="1"/>
        <pt x="531" y="648" on="0"/>
        <pt x="499" y="614" on="0"/>
        <pt x="442" y="579" on="0"/>
        <pt x="366" y="551" on="0"/>
        <pt x="321" y="551" on="1"/>
        <pt x="313" y="551" on="0"/>
        <pt x="264" y="555" on="0"/>
        <pt x="230" y="566" on="1"/>
      </contour>
    </TTGlyph>
    <TTGlyph name="fl" xMin="30" yMin="0" xMax="579" yMax="705">
      <contour>
        <pt x="476" y="77" on="1"/>
        <pt x="474" y="66" on="0"/>
        <pt x="473" y="59" on="0"/>
        <pt x="473" y="57" on="1"/>
        <pt x="473" y="37" on="0"/>
        <pt x="507" y="31" on="0"/>
        <pt x="545" y="31" on="1"/>
        <pt x="540" y="0" on="1"/>
        <pt x="511" y="2" on="0"/>
        <pt x="464" y="3" on="0"/>
        <pt x="428" y="3" on="1"/>
        <pt x="410" y="3" on="0"/>
        <pt x="384" y="3" on="0"/>
        <pt x="359" y="2" on="0"/>
        <pt x="332" y="1" on="0"/>
        <pt x="315" y="0" on="1"/>
        <pt x="316" y="7" on="0"/>
        <pt x="319" y="25" on="0"/>
        <pt x="320" y="31" on="1"/>
        <pt x="343" y="31" on="0"/>
        <pt x="373" y="32" on="0"/>
        <pt x="392" y="40" on="0"/>
        <pt x="401" y="57" on="0"/>
        <pt x="404" y="72" on="1"/>
        <pt x="458" y="400" on="1"/>
        <pt x="245" y="400" on="1"/>
        <pt x="191" y="77" on="1"/>
        <pt x="189" y="66" on="0"/>
        <pt x="188" y="59" on="0"/>
        <pt x="188" y="57" on="1"/>
        <pt x="188" y="37" on="0"/>
        <pt x="222" y="31" on="0"/>
        <pt x="260" y="31" on="1"/>
        <pt x="255" y="0" on="1"/>
        <pt x="226" y="2" on="0"/>
        <pt x="179" y="3" on="0"/>
        <pt x="143" y="3" on="1"/>
        <pt x="125" y="3" on="0"/>
        <pt x="99" y="3" on="0"/>
        <pt x="74" y="2" on="0"/>
        <pt x="47" y="1" on="0"/>
        <pt x="30" y="0" on="1"/>
        <pt x="31" y="7" on="0"/>
        <pt x="34" y="25" on="0"/>
        <pt x="35" y="31" on="1"/>
        <pt x="58" y="31" on="0"/>
        <pt x="88" y="32" on="0"/>
        <pt x="107" y="40" on="0"/>
        <pt x="116" y="57" on="0"/>
        <pt x="119" y="72" on="1"/>
        <pt x="173" y="400" on="1"/>
        <pt x="95" y="400" on="1"/>
        <pt x="97" y="408" on="0"/>
        <pt x="98" y="423" on="0"/>
        <pt x="100" y="431" on="1"/>
        <pt x="179" y="431" on="1"/>
        <pt x="198" y="549" on="1"/>
        <pt x="203" y="581" on="0"/>
        <pt x="246" y="638" on="0"/>
        <pt x="312" y="680" on="0"/>
        <pt x="397" y="705" on="0"/>
        <pt x="445" y="705" on="1"/>
        <pt x="458" y="705" on="0"/>
        <pt x="504" y="702" on="0"/>
        <pt x="530" y="691" on="1"/>
        <pt x="534" y="689" on="0"/>
        <pt x="537" y="688" on="0"/>
        <pt x="539" y="688" on="1"/>
        <pt x="541" y="688" on="0"/>
        <pt x="552" y="690" on="0"/>
        <pt x="565" y="692" on="0"/>
        <pt x="576" y="694" on="0"/>
        <pt x="579" y="694" on="1"/>
      </contour>
      <contour>
        <pt x="247" y="431" on="1"/>
        <pt x="464" y="431" on="1"/>
        <pt x="491" y="595" on="1"/>
        <pt x="483" y="600" on="0"/>
        <pt x="474" y="618" on="0"/>
        <pt x="474" y="627" on="1"/>
        <pt x="474" y="641" on="0"/>
        <pt x="491" y="667" on="0"/>
        <pt x="503" y="673" on="1"/>
        <pt x="488" y="677" on="0"/>
        <pt x="457" y="680" on="0"/>
        <pt x="443" y="680" on="1"/>
        <pt x="408" y="680" on="0"/>
        <pt x="347" y="658" on="0"/>
        <pt x="300" y="621" on="0"/>
        <pt x="270" y="572" on="0"/>
        <pt x="266" y="546" on="1"/>
      </contour>
    </TTGlyph>
    <TTGlyph name="four" xMin="57" yMin="0" xMax="517" yMax="677">
      <contour>
        <pt x="415" y="196" on="1"/>
        <pt x="517" y="196" on="1"/>
        <pt x="512" y="165" on="1"/>
        <pt x="410" y="165" on="1"/>
        <pt x="408" y="155" on="0"/>
        <pt x="402" y="122" on="0"/>
        <pt x="397" y="90" on="0"/>
        <pt x="393" y="64" on="0"/>
        <pt x="393" y="60" on="1"/>
        <pt x="393" y="53" on="0"/>
        <pt x="397" y="42" on="0"/>
        <pt x="412" y="34" on="0"/>
        <pt x="440" y="31" on="0"/>
        <pt x="465" y="31" on="1"/>
        <pt x="487" y="31" on="1"/>
        <pt x="486" y="24" on="0"/>
        <pt x="483" y="6" on="0"/>
        <pt x="482" y="0" on="1"/>
        <pt x="460" y="1" on="0"/>
        <pt x="426" y="2" on="0"/>
        <pt x="394" y="3" on="0"/>
        <pt x="362" y="3" on="0"/>
        <pt x="342" y="3" on="1"/>
        <pt x="339" y="3" on="0"/>
        <pt x="313" y="3" on="0"/>
        <pt x="273" y="2" on="0"/>
        <pt x="226" y="1" on="0"/>
        <pt x="202" y="0" on="1"/>
        <pt x="207" y="31" on="1"/>
        <pt x="229" y="31" on="1"/>
        <pt x="254" y="31" on="0"/>
        <pt x="284" y="34" on="0"/>
        <pt x="301" y="42" on="0"/>
        <pt x="309" y="53" on="0"/>
        <pt x="311" y="61" on="1"/>
        <pt x="312" y="63" on="0"/>
        <pt x="318" y="94" on="0"/>
        <pt x="324" y="131" on="0"/>
        <pt x="329" y="162" on="0"/>
        <pt x="329" y="165" on="1"/>
        <pt x="57" y="165" on="1"/>
        <pt x="57" y="170" on="0"/>
        <pt x="61" y="194" on="0"/>
        <pt x="69" y="204" on="1"/>
        <pt x="454" y="665" on="1"/>
        <pt x="461" y="673" on="0"/>
        <pt x="467" y="677" on="0"/>
        <pt x="476" y="677" on="1"/>
        <pt x="481" y="677" on="0"/>
        <pt x="493" y="674" on="0"/>
        <pt x="493" y="666" on="1"/>
        <pt x="493" y="664" on="0"/>
        <pt x="493" y="660" on="0"/>
        <pt x="491" y="653" on="1"/>
      </contour>
      <contour>
        <pt x="93" y="196" on="1"/>
        <pt x="341" y="196" on="1"/>
        <pt x="402" y="566" on="1"/>
      </contour>
    </TTGlyph>
    <TTGlyph name="g" xMin="15" yMin="-206" xMax="567" yMax="453">
      <contour>
        <pt x="519" y="428" on="1"/>
        <pt x="496" y="427" on="0"/>
        <pt x="445" y="411" on="0"/>
        <pt x="419" y="391" on="1"/>
        <pt x="419" y="391" on="0"/>
        <pt x="428" y="379" on="0"/>
        <pt x="437" y="358" on="0"/>
        <pt x="445" y="330" on="0"/>
        <pt x="445" y="314" on="1"/>
        <pt x="445" y="283" on="0"/>
        <pt x="415" y="223" on="0"/>
        <pt x="363" y="177" on="0"/>
        <pt x="293" y="148" on="0"/>
        <pt x="254" y="148" on="1"/>
        <pt x="234" y="148" on="0"/>
        <pt x="182" y="159" on="0"/>
        <pt x="156" y="179" on="1"/>
        <pt x="150" y="172" on="0"/>
        <pt x="132" y="140" on="0"/>
        <pt x="132" y="121" on="1"/>
        <pt x="132" y="101" on="0"/>
        <pt x="147" y="80" on="0"/>
        <pt x="166" y="70" on="0"/>
        <pt x="186" y="68" on="0"/>
        <pt x="192" y="68" on="1"/>
        <pt x="283" y="68" on="1"/>
        <pt x="323" y="68" on="0"/>
        <pt x="392" y="56" on="0"/>
        <pt x="443" y="27" on="0"/>
        <pt x="473" y="-20" on="0"/>
        <pt x="473" y="-56" on="1"/>
        <pt x="473" y="-97" on="0"/>
        <pt x="424" y="-154" on="0"/>
        <pt x="349" y="-190" on="0"/>
        <pt x="262" y="-206" on="0"/>
        <pt x="224" y="-206" on="1"/>
        <pt x="176" y="-206" on="0"/>
        <pt x="99" y="-187" on="0"/>
        <pt x="45" y="-155" on="0"/>
        <pt x="15" y="-112" on="0"/>
        <pt x="15" y="-89" on="1"/>
        <pt x="15" y="-56" on="0"/>
        <pt x="72" y="8" on="0"/>
        <pt x="124" y="22" on="1"/>
        <pt x="116" y="28" on="0"/>
        <pt x="94" y="63" on="0"/>
        <pt x="94" y="92" on="1"/>
        <pt x="94" y="128" on="0"/>
        <pt x="127" y="181" on="0"/>
        <pt x="140" y="195" on="1"/>
        <pt x="122" y="214" on="0"/>
        <pt x="109" y="255" on="0"/>
        <pt x="109" y="276" on="1"/>
        <pt x="109" y="310" on="0"/>
        <pt x="141" y="370" on="0"/>
        <pt x="194" y="415" on="0"/>
        <pt x="262" y="442" on="0"/>
        <pt x="299" y="442" on="1"/>
        <pt x="332" y="442" on="0"/>
        <pt x="385" y="422" on="0"/>
        <pt x="403" y="406" on="1"/>
        <pt x="421" y="422" on="0"/>
        <pt x="456" y="440" on="0"/>
        <pt x="486" y="450" on="0"/>
        <pt x="511" y="453" on="0"/>
        <pt x="519" y="453" on="1"/>
        <pt x="534" y="453" on="0"/>
        <pt x="553" y="443" on="0"/>
        <pt x="563" y="429" on="0"/>
        <pt x="567" y="414" on="0"/>
        <pt x="567" y="409" on="1"/>
        <pt x="567" y="390" on="0"/>
        <pt x="544" y="372" on="0"/>
        <pt x="533" y="372" on="1"/>
        <pt x="520" y="372" on="0"/>
        <pt x="505" y="388" on="0"/>
        <pt x="505" y="399" on="1"/>
        <pt x="505" y="413" on="0"/>
        <pt x="517" y="425" on="0"/>
        <pt x="519" y="427" on="1"/>
      </contour>
      <contour>
        <pt x="255" y="175" on="1"/>
        <pt x="287" y="175" on="0"/>
        <pt x="331" y="205" on="0"/>
        <pt x="358" y="253" on="0"/>
        <pt x="370" y="310" on="0"/>
        <pt x="370" y="337" on="1"/>
        <pt x="370" y="362" on="0"/>
        <pt x="356" y="392" on="0"/>
        <pt x="335" y="409" on="0"/>
        <pt x="309" y="415" on="0"/>
        <pt x="298" y="415" on="1"/>
        <pt x="263" y="415" on="0"/>
        <pt x="218" y="379" on="0"/>
        <pt x="193" y="328" on="0"/>
        <pt x="183" y="272" on="0"/>
        <pt x="183" y="252" on="1"/>
        <pt x="183" y="225" on="0"/>
        <pt x="202" y="194" on="0"/>
        <pt x="226" y="179" on="0"/>
        <pt x="250" y="175" on="0"/>
      </contour>
      <contour>
        <pt x="225" y="-179" on="1"/>
        <pt x="265" y="-179" on="0"/>
        <pt x="334" y="-160" on="0"/>
        <pt x="386" y="-129" on="0"/>
        <pt x="416" y="-88" on="0"/>
        <pt x="416" y="-66" on="1"/>
        <pt x="416" y="-39" on="0"/>
        <pt x="383" y="-11" on="0"/>
        <pt x="331" y="3" on="0"/>
        <pt x="264" y="5" on="0"/>
        <pt x="230" y="5" on="1"/>
        <pt x="202" y="5" on="0"/>
        <pt x="167" y="4" on="0"/>
        <pt x="143" y="1" on="0"/>
        <pt x="126" y="-8" on="0"/>
        <pt x="115" y="-15" on="1"/>
        <pt x="89" y="-33" on="0"/>
        <pt x="71" y="-76" on="0"/>
        <pt x="71" y="-90" on="1"/>
        <pt x="71" y="-107" on="0"/>
        <pt x="93" y="-139" on="0"/>
        <pt x="133" y="-164" on="0"/>
        <pt x="190" y="-179" on="0"/>
      </contour>
    </TTGlyph>
</ttFont>
